<?xml version="1.0" encoding="UTF-8" standalone="no"?><!DOCTYPE svg PUBLIC "-//W3C//DTD SVG 1.1//EN" "http://www.w3.org/Graphics/SVG/1.1/DTD/svg11.dtd"><svg width="100%" height="100%" viewBox="0 0 1042 1042" version="1.1" xmlns="http://www.w3.org/2000/svg" xmlns:xlink="http://www.w3.org/1999/xlink" xml:space="preserve" xmlns:serif="http://www.serif.com/" style="fill-rule:evenodd;clip-rule:evenodd;stroke-linecap:round;stroke-linejoin:round;stroke-miterlimit:1.5;"><circle cx="520.833" cy="520.833" r="512.5" style="fill:#cbfdff;"/><circle id="Border" cx="520.833" cy="520.833" r="501.111" style="fill:#fffefe;fill-opacity:0;stroke:#0e468d;stroke-width:34.79px;"/><g id="Waves"><clipPath id="_clip1"><circle cx="520.833" cy="520.833" r="455.556"/></clipPath><g clip-path="url(#_clip1)"><path d="M-30.389,693.94c0,-0 182.222,91.111 273.333,91.111c91.112,0 182.223,-91.111 273.334,-91.111c91.111,-0 182.222,91.111 273.333,91.111c91.111,0 273.333,-91.111 273.333,-91.111l0,91.111c0,0 -182.222,91.111 -273.333,91.111c-91.111,0 -182.222,-91.87 -273.333,-91.111c-91.111,0.759 -182.222,96.426 -273.334,95.667c-91.111,-0.76 -273.333,-100.222 -273.333,-100.222l0,-86.556Z" style="fill:#4fa4db;stroke:#8dfcfb;stroke-opacity:0;stroke-width:20.83px;"/><path d="M-30.389,561.833c0,0 182.222,91.111 273.333,91.111c91.112,0 182.223,-91.111 273.334,-91.111c91.111,0 182.222,91.111 273.333,91.111c91.111,0 273.333,-91.111 273.333,-91.111l0,91.111c0,0 -182.222,91.112 -273.333,91.112c-91.111,-0 -182.222,-91.871 -273.333,-91.112c-91.111,0.76 -182.222,96.426 -273.334,95.667c-91.111,-0.759 -273.333,-100.222 -273.333,-100.222l0,-86.556Z" style="fill:#52a5dc;stroke:#8dfcfb;stroke-opacity:0;stroke-width:20.83px;"/><path d="M-25.833,420.607c-0,-0 182.222,91.111 273.333,91.111c91.111,-0 182.222,-91.111 273.333,-91.111c91.111,-0 182.223,91.111 273.334,91.111c91.111,-0 273.333,-91.111 273.333,-91.111l-0,91.111c-0,-0 -182.222,91.111 -273.333,91.111c-91.111,-0 -182.223,-91.871 -273.334,-91.111c-91.111,0.759 -182.222,96.426 -273.333,95.666c-91.111,-0.759 -273.333,-100.222 -273.333,-100.222l-0,-86.555Z" style="fill:#52c2e9;stroke:#8dfcfb;stroke-opacity:0;stroke-width:20.83px;"/><path d="M-25.833,283.94c-0,-0 182.222,91.111 273.333,91.111c91.111,0 182.222,-91.111 273.333,-91.111c91.111,-0 182.223,91.111 273.334,91.111c91.111,0 273.333,-91.111 273.333,-91.111l-0,91.111c-0,0 -182.222,91.111 -273.333,91.111c-91.111,0 -182.223,-91.87 -273.334,-91.111c-91.111,0.759 -182.222,96.426 -273.333,95.667c-91.111,-0.76 -273.333,-100.222 -273.333,-100.222l-0,-86.556Z" style="fill:#79d6f7;stroke:#8dfcfb;stroke-opacity:0;stroke-width:20.83px;"/><path d="M-25.833,133.611c-0,0 182.222,91.111 273.333,91.111c91.111,0 182.222,-91.111 273.333,-91.111c91.111,0 182.223,91.111 273.334,91.111c91.111,0 273.333,-91.111 273.333,-91.111l-0,91.111c-0,0 -182.222,91.111 -273.333,91.111c-91.111,0 -182.223,-91.87 -273.334,-91.111c-91.111,0.759 -182.222,96.426 -273.333,95.667c-91.111,-0.759 -273.333,-100.222 -273.333,-100.222l-0,-86.556Z" style="fill:#91e3ff;stroke:#8dfcfb;stroke-opacity:0;stroke-width:20.83px;"/></g></g><path id="Coral" d="M664.479,541.936c-6.966,2.734 -24.451,13.546 -22.424,-2.189c0.382,-2.968 1.675,-5.227 2.039,-8.219c0.615,-5.055 -0.151,-10.726 -0.688,-15.759c-0.772,-7.244 -11.247,-6.38 -11.196,0.803c0.056,7.68 -2.432,62.397 -17.08,54.319c-4.932,-2.719 -7.308,-12.293 -8.537,-17.302c-1.471,-5.998 -10.278,-4.276 -10.389,1.566c-0.153,8.063 2.006,14.638 5.908,21.353c3.933,6.777 2.174,13.694 -0.129,21.017c-2.697,8.577 -6.046,17.036 -12.812,23.159c-8.711,7.884 -18.254,15.043 -27.605,22.171c-17.331,13.219 -34.41,29.181 -43.814,49.193c-4.585,9.761 -7.048,20.527 -5.871,31.316c1.192,10.945 4.077,23.884 -6.001,31.861c-15.861,12.549 -16.777,-31.246 -17.865,-37.33c-0.96,-5.367 -8.49,-4.183 -9.808,0.211c-3.529,11.786 -2.044,24.507 1.495,36.098c3.309,10.828 10.331,18.844 5.491,30.482c-4.405,10.587 -14.727,15.908 -25.14,19.46c-4.193,1.433 -13.163,4.245 -17.074,1.308c-7.808,-5.881 -2.332,-16.436 0.81,-23.003c4.587,-9.59 10.588,-18.657 13.262,-29.049c1.35,-5.251 -5.826,-9.395 -9.474,-5.11c-8.289,9.722 -14.63,23.93 -19.228,35.779c-2.262,5.835 -3.168,11.529 -4.117,17.644c-0.902,5.812 -3.684,11.093 -4.614,16.897c-0.973,6.076 -1.882,10.797 -7.952,13.842c-4.547,2.275 -10.089,3.311 -13.802,-0.545c-7.671,-7.961 -4.682,-19.109 -1.583,-28.2c3.933,-11.544 10.419,-21.92 16.177,-32.601c5.31,-9.838 9.2,-21.827 17.264,-29.827c8.366,-8.297 18.658,-14.365 26.934,-22.685c6.871,-6.902 12.431,-14.925 16.642,-23.704c1.778,-3.701 4.288,-6.575 5.778,-10.384c1.554,-3.966 1.638,-8.46 4.02,-12.114c5.318,-8.164 12.097,-10.859 19.443,-16.335c7.771,-5.788 14.022,-13.251 18.638,-21.758c2.856,-5.258 -5.107,-11.506 -8.821,-6.333c-4.707,6.544 -15.444,21.01 -25.062,16.437c-6.713,-3.194 -10.153,-13.524 -7.042,-20.145c4.578,-9.745 14.124,-22.56 25.364,-24.609c12.459,-2.282 19.928,10.805 30.96,14.061c11.298,3.327 24.78,3.615 35.459,-1.916c6.378,-3.303 1.318,-11.669 -4.69,-10.672c-6.731,1.114 -35.295,5.079 -30.825,-8.896c2.167,-6.77 9.608,-11.21 15.057,-15.128c7.894,-5.672 16.009,-10.221 22.978,-17.185c21.779,-21.765 38.639,-54.577 36.383,-85.986c-0.417,-5.803 -9.115,-7.003 -10.373,-0.989c-4.139,19.825 -10.078,39.643 -20.942,56.906c-5.308,8.436 -26.264,39.121 -38.553,26.859c-6.332,-6.309 -3.459,-19.552 -1.446,-27.023c3.232,-11.989 8.29,-22.334 17.102,-31.199c3.763,-3.786 9.091,-6.193 12.986,-9.792c4.399,-4.066 9.797,-7.151 13.884,-11.724c3.095,-3.458 -0.215,-8.841 -4.696,-7.68c-6.1,1.573 -16.23,10.088 -17.46,-0.46c-0.569,-4.892 4.602,-11.498 1.49,-15.977c-2.641,-3.802 -8.604,-2.571 -9.941,1.752c-6.809,21.999 -16.847,42.339 -24.193,64.096c-3.437,10.182 -5.214,20.02 -4.31,30.56c0.75,8.756 -1.136,21.166 -9.943,25.551c-18.211,9.076 -15.415,-28.9 -14.897,-36.301c0.359,-5.141 -7.156,-6.427 -9.373,-2.259c-5.71,10.735 -6.385,24.468 -3.959,36.192c2.023,9.784 1.204,22.537 -11.006,25.372c-15.75,3.661 -15.765,-17.177 -13.935,-27.218c2.476,-13.57 9.895,-25.785 17.081,-37.33c17.814,-28.62 38.558,-57.116 52.473,-87.831c2.015,-4.448 -3.846,-9.138 -7.302,-5.095c-3.028,3.544 -11.777,19.576 -17.387,16.172c-5.045,-3.061 -5.353,-14.77 -6.141,-19.888c-0.938,-6.099 -10.007,-4.027 -10.212,1.543c-0.377,10.197 1.352,19.708 3.567,29.578c1.847,8.226 2.469,17.076 -4.765,22.973c-18.798,15.33 -15.743,-25.419 -16.27,-32.601c-0.979,-13.368 -4.673,-26.642 -12.648,-37.517c-2.943,-4.019 -9.661,-1.386 -8.177,3.724c3.059,10.532 5.865,21.905 6.568,32.873c0.579,9.021 -6.992,12.332 -14.703,7.861c-8.772,-5.095 -14.415,-21.361 -18.164,-30.327c-2.17,-5.188 -11.773,-5.133 -10.83,1.636c3.816,27.397 24.109,41.676 40.517,61.26c5.466,6.521 11.878,15.619 11.763,24.469c-0.07,5.406 -4.834,7.977 -10.086,7.852c-10.886,-0.273 -15.475,-16.78 -19.152,-24.757c-2.557,-5.538 -9.867,-1.036 -9.042,3.981c1.774,10.781 6.467,19.678 11.233,29.314c2.428,4.915 7.892,15.408 1.882,19.763c-9.283,6.715 -19.588,-6.466 -24.438,-12.612c-8.008,-10.15 -13.219,-22.272 -15.55,-34.961c-4.134,-22.513 -1.754,-48.072 -14.68,-68.022c-3.014,-4.651 -10.516,-1.332 -8.905,4.066c2.524,8.452 14.691,50.806 -5.281,46.28c-8.236,-1.869 -14.064,-12.144 -18.257,-18.704c-3.611,-5.655 -12.229,-0.381 -8.885,5.43c5.57,9.691 13.08,19.101 20.532,27.444c8.313,9.301 19.442,14.489 26.61,25.255c4.226,6.349 16.159,20.145 8.123,27.483c-4.002,3.654 -9.651,1.652 -14.23,0.312c-6.17,-1.815 -9.372,7.291 -3.94,10.314c8.634,4.798 17.833,6.372 27.596,5.943c9.278,-0.405 18.482,0.024 26.397,5.648c11.092,7.876 13.899,22.225 18.746,34.011c5.282,12.838 10.987,25.878 11.261,39.994c0.297,15.284 -4.361,30.357 -13.267,42.774c-4.86,6.778 -19.68,26.159 -28.341,12.27c-4.02,-6.451 -2.691,-16.063 0.496,-22.451c3.777,-7.564 5.248,-14.996 4.722,-23.806c-1.074,-18.026 -9.851,-34.876 -21.186,-48.586c-16.301,-19.724 -38.428,-37.618 -50.778,-60.201c-5.052,-9.239 -9.955,-21.493 -12.866,-31.573c-3.01,-10.415 -4.012,-19.755 -10.113,-29.298c-3.055,-4.775 -11.827,-1.503 -9.531,4.191c2.083,5.165 6.377,13.656 6.489,19.109c0.102,4.97 -4.568,4.736 -8.741,2.282c-4.071,-2.391 -7.015,-7.034 -10.571,-10.306c-4.384,-4.043 -11.97,1.862 -8.256,6.91c6.673,9.075 13.797,17.808 21.148,26.338c3.598,4.175 14.016,13.843 11.61,20.441c-3.073,8.428 -20.176,-0.623 -24.76,-3.272c-9.108,-5.282 -16.78,-12.776 -23.655,-20.667c-3.294,-3.778 -9.811,0.709 -8.202,5.173c5.824,16.172 19.676,27.685 35.64,33.208c15.759,5.453 36.443,0.46 50.253,10.727c4.047,3.007 9.022,10.002 9.079,15.222c0.101,9.083 -8.944,4.393 -14.719,5.375c-3.625,0.615 -4.626,5.975 -1.978,8.195c9.925,8.327 25.955,4.238 37.223,10.625c10.6,6.006 17.775,21.181 19.773,32.71c1.883,10.867 -4.96,20.987 -17.287,18.992c-7.598,-1.223 -12.381,-6.98 -18.893,-10.586c-7.316,-4.051 -17.344,-10.602 -21.873,-17.816c-5.5,-8.764 -8.565,-18.579 -13.779,-27.467c-5.275,-8.99 -11.722,-17.271 -18.991,-24.733c-4.9,-5.033 -11.872,2.734 -7.37,7.86c6.182,7.042 11.519,14.801 15.896,23.089c2.206,4.175 7.159,11.202 -0.461,11.732c-6.99,0.475 -15.871,-8.507 -20.617,-12.776c-20.715,-18.633 -34.896,-41.536 -46.552,-66.588c-2.475,-5.321 -10.86,-1.169 -9.228,4.206c3.26,10.743 7.906,20.831 13.3,30.646c3.829,6.964 0.908,13.889 -8.334,10.213c-6.627,-2.633 -12.83,-10.205 -16.827,-15.814c-3.851,-5.406 -12.351,-0.39 -8.886,5.43c6.981,11.739 18.291,21.484 30.701,27.085c10.346,4.666 21.855,6.318 31.958,11.584c11.042,5.749 20.065,16.491 30.745,23.362c6.791,4.37 31.428,12.807 21.197,24.679c-5.558,6.45 -18.627,6.341 -26.354,6.691c-15.749,0.717 -30.895,-3.716 -43.168,-13.772c-20.981,-17.185 -34.922,-45.206 -61.694,-54.445c-4.776,-1.643 -8.707,5.866 -4.62,8.85c3.697,2.703 12.182,6.325 5.785,10.392c-3.595,2.282 -9.023,0.561 -12.855,2.407c-4.226,2.033 -2.253,7.914 1.437,9.091c3.894,1.238 7.346,0.171 11.162,0.459c3.613,0.281 7.489,1.683 11.015,2.548c12.342,3.038 18.401,7.93 26.765,17.176c8.535,9.434 17.902,18.4 29.366,24.18c19.708,9.933 42.231,9.177 63.201,4.16c11.55,-2.765 24.512,-6.224 36.342,-3.155c14.626,3.794 23.266,17.909 23.207,32.492c-0.371,1.223 -0.423,2.524 -0.184,3.786c-1.179,12.815 -13.141,38.561 -29.971,26.751c-8.279,-5.811 -17.748,-9.636 -27.445,-12.355c-11.811,-3.311 -23.975,-5.017 -36.089,-6.777c-9.582,-1.402 -20.678,-1.558 -28.895,-7.035c-9.392,-6.255 -16.177,-13.056 -21.353,-23.198c-4.978,-9.745 -8.317,-20.332 -14.204,-29.617c-2.655,-4.191 -10.258,-1.317 -8.309,3.653c1.868,4.76 13.999,33.061 -1.344,25.084c-6.541,-3.397 -11.764,-10.704 -16.247,-16.375c-10.935,-13.85 -19.641,-29.376 -31.433,-42.564c-3.11,-3.474 -9.414,0.639 -7.763,4.892c1.7,4.386 9.703,14.365 4.789,17.956c-3.362,2.454 -10.084,-0.148 -13.87,-0.109c-5.288,0.054 -7.43,7.844 -2.457,10.22c11.87,5.656 30.729,2.875 38.357,15.011c2.657,4.23 5.659,9.193 6.422,14.155c2.184,14.232 -18.956,7.985 -25.501,5.087c-11.907,-5.266 -21.998,-13.905 -32.734,-21.111c-4.16,-2.789 -9.892,3.412 -6.748,7.338c20.685,25.785 54.61,43.055 85.466,24.328c7.738,6.1 15.894,11.233 24.283,14.972c11.532,5.142 25.015,8.351 37.602,8.834c8.742,0.327 18.266,9.504 14.251,19.187c-4.385,10.571 -15.204,23.354 -24.742,29.672c-5.767,3.817 -14.362,8.592 -20.787,4.51c-6.882,-4.37 -10.029,-13.157 -13.474,-20.114c-5.341,-10.796 -14.76,-20.059 -25.4,-25.582c-5.095,-2.648 -10.863,4.596 -6.079,8.46c4.752,3.833 24.325,19.81 19.028,27.771c-2.976,4.48 -12.85,0.772 -16.872,-0.366c-4.766,-1.34 -8.317,6.037 -4.197,8.865c12.713,8.741 27.558,15.479 43.052,16.92c3.912,0.366 7.863,0.39 11.772,-0.031c3.2,-0.343 6.713,-2.181 9.822,-1.815c4.945,0.584 9.982,6.411 7.2,11.319c-2.986,5.273 -12.559,4.198 -17.642,4.455c-7.466,0.374 -14.588,1.582 -21.539,4.573c-6.262,2.688 -3.87,11.327 2.926,10.182c7.75,-1.309 23.882,-5.274 28.464,3.396c2.369,4.479 0.273,6.707 -2.064,10.407c-2.048,3.249 -4.272,6.38 -1.496,10.034c1.94,2.555 5.204,3.389 7.801,1.223c10.702,-8.927 17.794,-21.711 20.717,-35.265c2.717,-12.589 -0.885,-24.624 3.276,-37.034c2.58,-7.688 8.018,-13.18 11.939,-20.035c3.434,-5.991 5.701,-11.787 12.109,-15.44c11.279,-6.427 25.015,-1.215 33.903,6.902c7.438,6.793 12.025,18.337 8.461,27.779c-2.432,6.442 -4.591,15.206 -3.591,22.154c1.702,11.826 5.079,23.324 0.02,34.884c-1.425,3.256 -3.435,6.317 -4.088,9.815c-0.318,1.698 -0.299,3.459 -0.079,5.173c0.567,4.448 2.599,8.834 6.156,11.552c3.558,2.719 8.735,3.475 12.613,1.231c5.919,-3.42 6.596,-11.451 8.749,-17.94c2.485,-7.486 11.138,-19.763 20.115,-20.067c8.365,-0.281 13.622,10.773 16.581,16.982c5.309,11.132 11.143,24.281 20.404,32.858c2.528,2.345 7.461,7.034 11.24,6.816c6.284,-0.366 3.74,-5.912 2.813,-10.563c-1.145,-5.749 -13.51,-21.235 -8.969,-26.33c3.974,-4.456 13.358,2.493 16.747,5.017c8.044,5.99 20.064,11.692 30.404,7.353c4.161,-1.745 5.864,-5.39 3.594,-10.15c-2.83,-5.936 -11.965,-6.801 -17.684,-8.67c-9.965,-3.256 -21.152,-6.894 -29.008,-14.186c-3.29,-3.046 -5.503,-6.271 -5.211,-10.976c1.114,-17.917 20.938,-9.098 30.502,-4.619c14.218,6.66 30.872,15.042 43.088,24.936c8.341,6.761 30.056,25.052 40.568,12.713c10.903,-12.807 -14.22,-15.144 -18.283,-22.934c-8.213,-15.728 2.868,-27.74 16.969,-33.933c6.554,-2.874 14.749,-5.772 21.964,-6.138c10.083,-0.507 12.145,9.457 17.047,16.538c4.051,5.85 9.834,11.505 16.436,14.505c5.257,2.383 15.612,7.197 12.824,-2.984c-2.291,-8.374 -11.948,-10.454 -17.891,-15.471c-2.453,-2.072 -6.478,-5.803 -5.177,-9.379c2.205,-6.068 18.842,-4.503 23.994,-4.518c12.531,-0.024 25.073,-0.109 37.574,-1.06c7.778,-0.592 6.492,-11.357 -0.844,-11.731c-16.364,-0.842 -32.845,-0.296 -49.225,-0.141c-15.189,0.141 -30.725,-0.56 -45.719,2.283c-5.858,1.114 -10.85,4.728 -16.098,0.857c-4.011,-2.96 -5.2,-7.299 -4.787,-12.098c0.788,-9.138 6.573,-17.925 11.237,-25.387c3.363,-5.383 -4.666,-10.867 -8.895,-6.396c-9.585,10.135 -13.828,22.778 -16.934,36.06c-2.679,11.451 -3.345,25.738 -12.1,34.564c-9.622,9.698 -26.922,5.484 -35.027,-3.958c-8.914,-10.391 -2.662,-24.094 4.751,-33.403c9.728,-12.215 14.027,-27.015 22.645,-40.04c6.72,-10.151 16.544,-18.073 29.112,-19.125c11.251,-0.934 16.45,7.798 24.2,13.835c10.176,7.931 21.467,14.443 33.334,19.491c17.881,7.603 44.969,16.818 64.074,10.127c4.967,-1.737 3.649,-7.977 -0.69,-9.348c-9.505,-3.015 -20.236,-2.189 -30.128,-4.215c-10.18,-2.095 -20.048,-5.32 -29.501,-9.644c-8.939,-4.089 -21.431,-9.784 -27.782,-17.394c-2.265,-2.711 -5.646,-8.382 -3.99,-12.075c2.546,-5.671 14.393,-3.139 19.16,-2.703c29.754,2.734 54.742,16.881 82.96,24.546c6.724,1.831 8.433,-7.556 3.453,-10.672c-11.107,-6.957 -23.255,-13.313 -35.764,-17.278c-8.245,-2.618 -23.111,-8.125 -18.849,-19.654c6.145,-16.624 37.39,5.266 45.902,9.472c6.284,3.108 11.132,-5.959 5.144,-9.574c-3.829,-2.313 -10.356,-4.479 -13.301,-7.914c-4.333,-5.056 0.414,-10.595 4.042,-14.256c5.328,-5.367 9.301,-10.283 11.197,-17.886c1.555,-6.247 -7.306,-8.343 -10.169,-3.295c-8.787,15.526 -25.814,21.025 -41.455,27.07c-15.313,5.929 -29.15,14.747 -44.434,20.831c-5.677,2.267 -11.659,2.563 -17.373,4.284c-5.974,1.807 -11.449,4.752 -17.656,6.232c-7.253,1.737 -22.584,6.162 -29.221,1.161c-10.35,-7.79 1.559,-27.242 9.439,-32.601c5.383,-3.661 10.448,-3.989 16.61,-2.937c7.667,1.309 15.137,1.535 22.95,0.405c9.586,-1.386 23.844,-3.895 29.882,-12.191c2.671,-3.669 1.065,-9.613 -4.207,-9.449c-7.789,0.249 -15.422,4.089 -22.746,6.434c-6.002,1.924 -12.085,-0.319 -8.556,-8.148c2.316,-5.134 7.356,-8.071 11.345,-11.934c7.868,-7.611 14.272,-13.469 25.469,-12.519c11.582,0.99 24.622,1.254 35.785,-2.321c11.754,-3.755 24.562,-10.743 30.518,-21.882c4.388,-8.203 -7.136,-6.707 -10.84,-4.768c-1.769,0.927 -7.301,5.009 -9.01,4.557c-3.672,-0.973 -1.782,-6.037 -0.923,-8.654c1.154,-3.506 2.449,-7.299 3.132,-11.459c1.173,-7.144 -8.709,-9.543 -10.91,-2.633c-3.198,10.041 -6.015,29.828 -19.049,32.048c-13.741,2.329 -6.288,-15.9 -3.437,-21.898c8.255,-17.356 23.749,-26.696 38.434,-38.077c4.389,-3.404 1.883,-12.293 -4.332,-9.862Z" style="fill:#0e468d;fill-rule:nonzero;"/></svg>