<?xml version="1.0" encoding="UTF-8"?>
<svg id="Layer_1" xmlns="http://www.w3.org/2000/svg" xmlns:xlink="http://www.w3.org/1999/xlink" viewBox="0 0 882.92 214">
  <defs>
    <style>
      .cls-1 {
        fill: #fff;
      }

      .cls-2 {
        fill: none;
      }

      .cls-3 {
        clip-path: url(#clippath-1);
      }

      .cls-4 {
        clip-path: url(#clippath-2);
      }

      .cls-5 {
        clip-path: url(#clippath);
      }
    </style>
    <clipPath id="clippath">
      <rect class="cls-2" x=".02" y="0" width="882.9" height="213.99"/>
    </clipPath>
    <clipPath id="clippath-1">
      <rect class="cls-2" x=".02" y="0" width="882.9" height="213.99"/>
    </clipPath>
    <clipPath id="clippath-2">
      <rect class="cls-2" x=".02" y="0" width="882.9" height="213.99"/>
    </clipPath>
  </defs>
  <g class="cls-5">
    <rect class="cls-1" x="474.33" y="0" width="1.5" height="213.99"/>
  </g>
  <path class="cls-1" d="M612.05,147.47c.58.36,1.49.95,2.88,1.78-1.4-1.07-2.37-1.89-2.56-2.23,0,0-2.4-1.06-.32.45"/>
  <path class="cls-1" d="M881.57,167.01l-3.32-3.02-3.04-4.82c-2.95-6.38-2.59-1.94-2.59-1.94-.67.42-1.33.8-2.01,1.2-2.16-2.17-5.03-4.39-6.68-6.5-.38-.48-.85-1.2-1.36-2.02,1.3-1.94,2.71-5.35,3.78-5.79,1.38-.57,2.67.19,5.07-.65,2.4-.83,1.05-3.67-.22-3.62-1.27.04-4.92,1.39-4.76.2.15-1.19,2.74-8.57,1.39-10.27-1.36-1.7-3.48-.98-3.78.61-.14.63-.32,1.61-.54,2.69-1.34-1.05-3.65-2.72-4.63-2.65-1.41.11-2.35,2.11-.97,3.48,1.11,1.11,2.96,3.06,4.09,4.86-.69,1.92-1.86,4.73-2.47,6.17-.11-.18-.22-.34-.33-.49-.07-.78-.34-1.44-.89-1.83-.16-.11-.32-.19-.48-.26-1.5-2.43-3.41-5.97-4.61-7.29-1.5-1.64-3.3-2.08-4.46-.25-.83,1.32.27,3.33,1.47,4.74-.58-.22-1.13-.57-1.53-1.21-1.5-2.39-1.05-3.29-.31-5.08.75-1.79,1.36-4.78-.15-5.81-1.78-1.25-3.28-.15-4.03,1.93-.74,2.1-1.19,7.76-1.78,10.3-.09.37-.17.8-.25,1.25-1.11-1.09-3.28-3.23-4.65-4.74.35-2.1,1.32-4.61,1.92-6.07.75-1.79-.9-3.27-2.24-2.83-.92.31-2.4,2.73-3.25,4.22-.6-.9-1.16-1.74-1.53-2.28-.89-1.34-3.13-1.19-3.72.9-.59,2.09,4.63,7.9,5.22,8.95.6,1.04-3.27,1.19-4.47,1.65-1.19.44-1.34,3.57,1.2,3.42,2.54-.15,3.44-1.34,4.92-1.34.74,0,2.04,1.04,3.4,2.14-.05.13-.17.2-.21.35-.02.1.03.24.02.35-.13-.07-.25-.14-.37-.22-1.79-1.19-3.27-1.63-4.32-.29-.38.49-.44,1.19-.25,1.93-.81.66-1.73,1.57-3.18,1.42-2.8-.28-3.23-1.18-4.19-2.86-.97-1.68-2.97-3.97-4.7-3.44-2.08.65-2.13,2.51-.94,4.37,1.21,1.88,5.42,5.69,7.06,7.71.24.29.52.63.84.97-1.54.22-4.56.62-6.59.78-1.45-1.56-2.85-3.86-3.63-5.22-.96-1.69-3.13-1.3-3.6.04-.32.92.7,3.58,1.35,5.14-1.1-.06-2.08-.14-2.73-.19-1.6-.1-2.86,1.75-1.56,3.5,1.27,1.76,9.07,1.17,10.26,1.34,1.18.16-1.05,3.33-1.44,4.54-.04.15-.04.32-.02.49-.37.04-.71.21-.99.65-.5.78.17,1.98.89,2.81-.35-.13-.68-.33-.93-.72-.89-1.42-.62-1.94-.18-3,.44-1.06.8-2.82-.09-3.44-1.06-.74-1.94-.09-2.39,1.14-.44,1.24-.7,4.59-1.04,6.09-.05.21-.1.5-.15.75-.65-.64-1.94-1.9-2.75-2.8.21-1.24.78-2.73,1.13-3.59.44-1.05-.53-1.94-1.33-1.67-.55.18-1.42,1.62-1.91,2.49-.37-.53-.69-1.03-.91-1.35-.53-.79-1.85-.7-2.21.53-.35,1.24,2.74,4.67,3.09,5.29.35.63-1.94.71-2.64.98-.7.26-.79,2.12.71,2.02,1.5-.09,2.02-.79,2.91-.8.44,0,1.21.62,2.01,1.27-.03.08-.09.11-.12.2,0,.06.01.14.01.2-.07-.04-.15-.06-.22-.11-1.06-.7-1.94-.97-2.56-.17-.22.28-.21.69-.11,1.11-.5.39-1.04.96-1.93.87-1.65-.17-1.9-.71-2.48-1.7-.09-.16-.21-.33-.33-.51.41-.35.7-.7.73-1,.13-1.16-.95-1.69-1.67-1.21-.26.17-.64.43-1.07.72-.05,0-.11-.01-.16,0-.12-.92-.35-2.33-.73-2.66-.57-.5-1.7-.09-1.7.94,0,.84-.04,2.29-.3,3.41-1,.46-2.53,1.09-3.3,1.4.06-.23.12-.49.15-.68.22-1.38,1.17-4.28,1.22-5.48.07-1.19-.45-2.05-1.59-1.8-.95.22-1.28,1.82-1.28,2.86.01,1.04.04,1.58-1.18,2.45-.66.47-1.35.27-1.92.19-.1-.38-.29-.71-.58-.83-.84-.35-1.41.26-1.94,1.29-.04.06-.08.12-.12.18-.03-.04-.04-.12-.09-.15-.05-.07-.12-.07-.18-.11.35-.88.68-1.72,1.02-1.91.69-.4,1.43-.08,2.66-.68,1.22-.6.32-2.02-.36-1.92-.68.1-2.52,1.07-2.53.42,0-.64.9-4.75.05-5.57-.83-.81-1.93-.29-1.97.58-.03.34-.06.89-.11,1.47-.79-.47-2.13-1.21-2.65-1.1-.74.15-1.1,1.29-.29,1.92.68.52,1.8,1.44,2.53,2.33-.25,1.07-.69,2.66-.92,3.45-.15-.18-.31-.39-.45-.54-.95-1.02-2.67-3.54-3.59-4.33-.89-.77-1.9-.88-2.39.18-.43.88.66,2.12,1.48,2.76.83.63,1.27.94,1.21,2.44-.06,1.51-2.11,1.66-1.2,2.9.72,1,1.6.3,2.25-.26.02.3.12.6.42.83.67.53,1.79,1.43,2.51,2.32-.23,1.07-.68,2.66-.91,3.46-.15-.19-.31-.38-.44-.53-.96-1.02-2.68-3.55-3.58-4.33-.91-.77-1.89-.89-2.4.17-.41.89.66,2.12,1.49,2.76.83.62,1.27.93,1.21,2.44-.07,1.51-2.11,1.66-1.22,2.9.91,1.24,2.05-.15,2.7-.62.65-.47.89-.22,2,1.73.49.83,1.21,1.6,1.91,2.27-1.37.19-2.72.37-4.07.53.26-.26.54-.51.9-.86,1.02-.95.86-2.7.02-3.05-.86-.35-1.42.26-1.96,1.3-.38.77-2.71,2.37-3.9,3.15-29.51,2.82-55.73,0-76.66-4.52-21.07-4.45-37-10.41-47.6-14.84-5.32-2.23-9.32-4.1-11.98-5.43-2.67-1.29-4.03-2.02-4.03-2.02-13.88-6.05-21.06-10.02-24.78-12.26,2.02,1.54,4.94,3.59,7.92,5.48,5.04,3.25,10.08,6.14,10.08,6.14,0,0-1.88-1.02-3.71-2.12-1.84-1.08-3.69-2.15-3.69-2.15,0,0-3.27-1.71-6.54-3.42-3.21-1.78-6.45-3.57-6.45-3.57,0,0,1.9,1.3,3.81,2.59,1.9,1.3,3.86,2.51,3.86,2.51-2.43-1.04-7.86-4.15-12.52-7.21-4.7-3.02-8.64-5.98-8.64-5.98,2.18,2.3,9.18,7.67,18.99,13.58,9.78,5.94,22.34,12.42,34.97,17.85,12.62,5.48,25.3,9.83,34.82,12.71,4.77,1.4,8.73,2.58,11.53,3.24,2.79.71,4.37,1.11,4.37,1.11-5.23.58-35.56-6.67-62.62-18.91-13.58-5.93-26.36-12.85-35.56-18.58-9.23-5.68-14.93-10.16-14.93-10.16,1.51,1.85,8.68,7.59,19.17,14.05,10.47,6.51,24.23,13.81,38.28,19.82.69.3,1.39.59,2.09.89-4.89-1.65-9.79-3.39-14.69-5.25-12.85-5.98-24.8-12.68-33.7-18.34-4.97-3.19-9.01-6-11.8-8.11-2.79-2.08-4.37-3.42-4.37-3.42,2.72,3.01,14.96,12.49,33.16,22.11,3.37,1.81,7.01,3.64,10.76,5.45-7.14-2.82-14.3-5.85-21.52-9.15-4.72-2.61-10.17-2.67-14.27-3.93-12.31-3.97-26.22-9.56-35.81-15.29,1.95,3.2,3.37,4.64,5.91,7.58,0,0-1.78-.81-3.57-1.61,8.08,6.88,15.31,12.46,22.2,17.92,6.9,5.44,13.59,10.48,21,15.28,1.63,1.14,7.03,3.05,8.92,3.34,11.91,6.16,23.92,13.34,38.76,16.75,3.73.69,7.09.68,10.43.68,3.34.02,6.61.19,10.29.96-5.46-1.23-3.05-1.24,6.28.6,9.4,1.62,25.75,4.96,49.07,7.43,18.64,1.99,38.75-2.44,54.46-6.58,1.49-.41,2.96-.83,4.42-1.24,6.75-.32,13.02-1.34,18.65-2.15,5.69-1.09,10.73-2.18,14.86-3.23,4.11-1.18,7.37-2.18,9.6-2.89,2.24-.69,3.42-1.16,3.42-1.16,24.27-7.52,36.46-14.1,42.97-17.62,6.48-3.63,7.36-4.36,7.36-4.36l-1.35-3.9M858.46,158.55c.85.09,2.23.5,3.31.31.61.76,1.21,1.51,1.83,2.23-.64-.16-1.16-.33-1.45-.54-1.8-1.19-3.3-1.64-4.34-.29-.87,1.12-.06,3.38,1.72,4.44-1.03.54-2.05,1.07-3.08,1.59.22-1.04.37-2.09.37-3.11,0-4.18.15-4.78,1.65-4.63ZM829.73,177.53c-.37-.37-.72-.72-.99-1.08-.23-.28-.51-.71-.8-1.2.76-1.15,1.59-3.16,2.23-3.42.81-.33,1.58.11,2.99-.39.05-.01.08-.04.12-.06.36.25.75.48,1.18.61,2.5.73,4.27,1.14,4.67,2.06,0,0,.02,0,.02,0-3.14,1.25-6.28,2.4-9.42,3.48ZM846.66,165.1c.11.03.2.09.32.11,1.32.31,2.42.54,3.26.82-.48,1.14-1.08,2.34-1.69,3.57-.02-.33-.05-.58-.05-.58-.27-.28-.82-.97-1.49-1.82-.11-.65-.22-1.36-.34-2.1ZM849.5,143.57c1.08.2,2.36.38,3.13-.25.03.47-.01,1.02-.12,1.69-.46,2.77-4.27,2.58-2.91,5.07.94,1.7,2.35,1.18,3.58.45-.22,1.65-.45,3.24-.7,4.29-.08.37-.17.8-.25,1.26-1.11-1.09-3.28-3.23-4.66-4.74.36-2.1,1.32-4.61,1.93-6.06.26-.64.22-1.23,0-1.72ZM850.92,161.58c-.74-.16-1.64-.44-2.47-.99-.89-.6-1.72-1.01-2.46-1.1-.04-.48-.07-.96-.09-1.45,1.17.3,3.28,2.28,5.02,3.54ZM840.66,159.29c0,.08.02.15.02.21-.07-.07-.13-.15-.2-.23.06,0,.11.02.18.01ZM834.49,151.82c.48-.52,1.37-1.18,1.96-1.94.15.06.29.13.47.17,1.53.37,2.73.62,3.58.96-.11,1.29-.11,2.89-.05,4.63-.37.07-.72.15-.95.23-.48.19-.78.82-.81,1.49-.56-.57-1.1-1.07-1.56-1.42-3.3-2.56-3.68-3.04-2.65-4.13ZM826.17,161.61c.71-.92,4.37-1.38,6.58-2.13.65.7,1.23,1.34,1.59,1.83,1.48,1.97,3.8,5.04,6.12,7.65-.1-.03-.2-.06-.29-.09,0,0-2.23-.12-3.96-1.41-1.72-1.3-3.18-1.83-4.29-.55-.54.62-.54,1.64-.13,2.62-.8.18-1.62.33-1.57-.12.08-.7,1.62-5.07.82-6.07-.8-1.01-2.06-.58-2.23.36-.08.37-.2.96-.32,1.59-.8-.62-2.15-1.6-2.73-1.57-.18.01-.32.1-.46.19.24-.89.36-1.65.87-2.31ZM824.23,166.32c.28-.41.45-.78.62-1.14.05.21.14.42.34.61.66.65,1.75,1.79,2.42,2.86-.41,1.15-1.1,2.81-1.47,3.66-.09-.12-.15-.25-.23-.36-.06-.42-.18-.8-.48-1.02-.08-.06-.16-.06-.26-.11-.68-1.11-1.51-2.62-2.2-3.62.44-.07.89-.32,1.27-.87ZM820.16,171.49c.65.12,1.43.25,1.9-.13.01.28-.01.59-.07.99-.28,1.64-2.53,1.52-1.72,3,.55,1.01,1.39.69,2.11.27-.13.97-.26,1.92-.42,2.53-.05.21-.08.5-.14.76-.64-.64-1.94-1.91-2.76-2.81.21-1.24.77-2.73,1.15-3.59.16-.38.09-.72-.06-1.02ZM819.34,180.82c-.27.08-.53.14-.8.22-.12-.04-.27-.1-.4-.12-.02-.28-.03-.56-.05-.86.31.08.76.4,1.24.76ZM814.99,180.8s.02.08,0,.13c-.03-.05-.07-.1-.12-.15.04,0,.08.01.11.01ZM811.34,176.38c.29-.31.83-.71,1.18-1.17.08.03.16.1.24.12.91.22,1.63.37,2.13.58-.06.76-.07,1.7-.02,2.73-.23.04-.43.08-.57.14-.28.11-.46.48-.48.88-.33-.34-.64-.63-.92-.84-1.95-1.51-2.17-1.8-1.57-2.44ZM802.54,174.56c.16-.11.63-.37,1.18-.69,1,1.18,2.89,2.94,3.7,3.95.14.16.34.37.51.57-.9.12-2.7.36-3.9.47-.3-.32-.59-.69-.87-1.09,1.2.54,1.76-1,1.26-1.47-.49-.47-2.4-1.34-1.87-1.74ZM792.86,173.55c.06-.06.08-.15.14-.21.49.21,1.09.28,1.46.39.78.24.72.56-.14,2.64-.12.28-.24.65-.35,1.08-.19-.31-.5-.53-.77-.48-.12.02-.32.09-.51.15-.43-.83-.86-1.58-1.26-2.15.31-.38.8-.83,1.43-1.41ZM793.65,178.81c-.02.06-.03.12-.03.17-.02-.03-.04-.07-.05-.11.03-.02.05-.05.09-.07ZM792.65,185.78c-.62-.4-1.23-.81-1.75-1.22.32-.35.76-.76,1.3-1.26.06-.04.06-.1.11-.15.15.39.29.75.41,1.09-.08.58-.15,1.05-.21,1.25,0,0,.05.12.14.28ZM790.78,179.68c.11.23.24.47.36.69-.32.24-.6.65-.87,1.17-.22.47-.56.83-.87,1.1.47-1.04.92-2.51,1.38-2.96ZM796.13,185.36c-.04-.17-.13-.44-.21-.71.57-2.09.93-4.88,1.14-6.54.04-.33.14-.78.25-1.29.75-.14,1.64-.43,2.41-.63.06.71.52,1.88.84,2.63-.65-.04-1.24-.08-1.62-.11-.95-.06-1.69,1.04-.93,2.06.75,1.04,5.36.7,6.08.79.7.1-.63,1.97-.86,2.69-.05.16,0,.35.08.52-2.45.51-4.91.97-7.35,1.39.16-.19.24-.43.17-.82ZM805.63,184.28c.39-.88.35-1.55.79-2.11.41-.54,2.57-.81,3.89-1.26.38.41.72.8.94,1.09.19.24.4.53.62.83-2.09.52-4.17,1.01-6.24,1.46Z"/>
  <path class="cls-1" d="M868.42,85.74c-9.35-1.93-14.99-5.79-21.38-7.87-6.38-2.08-24.06-3.12-28.21-4.45-24.5-5.79-54.49-4.76-79.28,0-28.81,6.83-53.74,22.56-67.01,28.06-12.38,6.23-37.81,9.3-42.26,9.9-4.45.6-8.12-1.29-9.2-2.97-7.32-11.88-23.06-23.66-24.45-24.06.2,3.37-1.68,8.82-3.47,13.26-2.97,7.82,1.58,7.82-1.28,8.41-2.88.6-8.72,4.55-15.55,9.7-6.83,5.15-23.46,11.68-21.58,13.95,10.79,12.72,59.69-1.39,70.47.79,10.11,2.03,73.57,13.97,129.16,10.09-.23.95-.45,2.26-.39,3.82.52,8.24,10.26,10.29,13.64,10.36h.11c1.32,0,2.6-.38,3.63-.69.35-.1.77-.23,1.05-.3l.71.05c.17,1.59.3,2.86.4,3.04.89,1.63,6.23,2.38,12.47,0,10.69-3.26,30.73-22.42,32.96-26.43,2.23-4,7.85-5.3,16.04-8.45,6.76-2.62,6.65-4.28,7.27-4.76.62-.48,7.27,3.42,10.25,4.01,2.97.59,6.53-2.38,6.53-2.38,0,0,.6,1.63,5.79-1.18,7.71-3.71,14.7-14.25,14.25-16.33-.45-2.08-1.33-13.66-10.69-15.59M803.22,124.2c-1.57,1.44-26.29,25.88-30.15,26.63l-.77-.04c-1.25.14-3.06,1.03-4.6,1-2.24-.05-10.34-1.45-10.73-7.58-.09-2.26.6-3.94.6-3.94-1.63-3.75-1.02-7.44,4.61-14.21,5.62-6.77,28.02-15.82,29.94-17.06,1.93-1.25,23.47,3.87,11.1,15.21ZM850.89,90.69c.18-.51,1.14-.64,2.17-.29,1.02.35,1.7,1.06,1.52,1.57-.17.52-1.14.65-2.16.29-1.02-.35-1.7-1.05-1.52-1.57ZM859.73,117.24c-3.07-1.23-10.02-6.88-10.29-8.65-.27-1.91,3.88-1.5,8.31,2.38,2.31,1.57,12.33-4.36,14.37-5.86,2.04-1.5,4.42-2.99,4.5-1.5.07,1.46-11.51,14.5-16.89,13.62Z"/>
  <path class="cls-1" d="M590.78,46.98c0,.73-.59,1.32-1.33,1.32h-1.03c-.74,0-1.33-.59-1.33-1.32v-6.14c0-1.83-1.03-2.86-2.83-2.86h-1.66v9.01c0,.73-.59,1.32-1.29,1.32h-1.03c-.73,0-1.32-.59-1.32-1.32v-22.13c0-.74.59-1.33,1.32-1.33h4.64c4.52,0,6.1,2.28,6.1,7.21,0,2.28-.41,4.12-1.55,5.26-.11.11-.18.18-.29.29,1.07,1.14,1.58,2.65,1.58,4.56v6.14M582.61,34.25h1.66c2.06,0,3.12-1.03,3.12-3.53s-.55-3.53-2.46-3.53h-2.32v7.06Z"/>
  <path class="cls-1" d="M622.26,23.55c.74,0,1.33.59,1.33,1.32v.99c0,.74-.59,1.33-1.33,1.33h-5.62v6.91h4.64c.73,0,1.32.59,1.32,1.32v1c0,.74-.59,1.32-1.32,1.32h-4.64v6.95h5.62c.74,0,1.33.59,1.33,1.32v.99c0,.73-.59,1.32-1.33,1.32h-7.94c-.74,0-1.33-.59-1.33-1.32v-22.14c0-.73.59-1.32,1.33-1.32h7.94"/>
  <path class="cls-1" d="M655.55,23.55c.74,0,1.33.59,1.33,1.32v.99c0,.74-.59,1.33-1.33,1.33h-5.62v6.91h4.63c.73,0,1.32.59,1.32,1.32v1c0,.74-.59,1.32-1.32,1.32h-4.63v6.95h5.62c.74,0,1.33.59,1.33,1.32v.99c0,.73-.59,1.32-1.33,1.32h-7.94c-.74,0-1.32-.59-1.32-1.32v-22.14c0-.73.58-1.32,1.32-1.32h7.94"/>
  <path class="cls-1" d="M688.85,23.55c.73,0,1.32.59,1.32,1.32v.99c0,.74-.59,1.33-1.32,1.33h-5.6v6.91h4.12c.74,0,1.33.59,1.33,1.32v1c0,.74-.59,1.32-1.33,1.32h-4.12v9.27c0,.73-.63,1.32-1.33,1.32h-1.03c-.73,0-1.33-.59-1.33-1.32v-22.14c0-.73.59-1.32,1.33-1.32h7.96"/>
  <path class="cls-1" d="M730.32,24.84c0-.74.59-1.33,1.32-1.33h9.63c.73,0,1.33.59,1.33,1.33v1.03c0,.74-.59,1.33-1.33,1.33h-3.02v19.78c0,.73-.59,1.32-1.33,1.32h-.99c-.73,0-1.33-.59-1.33-1.32v-19.78h-2.97c-.74,0-1.32-.59-1.32-1.33v-1.03"/>
  <path class="cls-1" d="M774.62,46.98c0,.73-.59,1.32-1.33,1.32h-1.03c-.73,0-1.33-.59-1.33-1.32v-6.14c0-1.83-1.03-2.86-2.83-2.86h-1.66v9.01c0,.73-.59,1.32-1.29,1.32h-1.03c-.73,0-1.32-.59-1.32-1.32v-22.13c0-.74.59-1.33,1.32-1.33h4.64c4.52,0,6.11,2.28,6.11,7.21,0,2.28-.41,4.12-1.55,5.26-.11.11-.18.18-.29.29,1.07,1.14,1.59,2.65,1.59,4.56v6.14M766.45,34.25h1.66c2.06,0,3.12-1.03,3.12-3.53s-.55-3.53-2.46-3.53h-2.32v7.06Z"/>
  <path class="cls-1" d="M796.84,24.84c0-.74.59-1.33,1.29-1.33h1.03c.74,0,1.32.59,1.32,1.33v16.73c0,1.95.59,3.09,2.39,3.09s2.39-1.32,2.39-3.09v-16.73c0-.74.59-1.33,1.29-1.33h1.03c.74,0,1.32.59,1.32,1.33v16.73c0,4.12-1.76,6.73-6.03,6.73s-6.03-2.83-6.03-6.73v-16.73"/>
  <path class="cls-1" d="M830.18,40.65c0-.73.59-1.32,1.32-1.32h1.03c.71,0,1.33.59,1.33,1.32v.48c0,1.77.33,2.61.84,3.05.41.41,1.03.48,1.55.48,1.54,0,2.39-.66,2.39-2.61,0-1.73-1.69-3.09-3.49-4.49v.04c-2.43-1.91-4.96-3.9-4.96-7.54,0-4.15,2.17-6.54,6.07-6.54s6.06,2.54,6.06,7.21v.51c0,.74-.59,1.33-1.32,1.33h-1.03c-.73,0-1.32-.59-1.32-1.33v-.51c0-2.43-.77-3.53-2.39-3.53s-2.39.85-2.39,2.76,1.81,3.31,3.61,4.71h-.04c2.43,1.87,4.89,3.75,4.89,7.32,0,4.12-2.17,6.32-6.06,6.32s-6.07-2.35-6.07-7.17v-.48"/>
  <path class="cls-1" d="M860.19,24.84c0-.74.59-1.33,1.33-1.33h9.63c.74,0,1.33.59,1.33,1.33v1.03c0,.74-.59,1.33-1.33,1.33h-3.01v19.78c0,.73-.59,1.32-1.32,1.32h-.99c-.73,0-1.33-.59-1.33-1.32v-19.78h-2.98c-.73,0-1.33-.59-1.33-1.33v-1.03"/>
  <g class="cls-3">
    <path class="cls-1" d="M25.17,192.06l-10.01-22.77h-.39l-9.93,22.16c-.94,2.12-1.73,3.52-2.38,4.2-.64.67-1.46,1.08-2.46,1.23v.76h9.24v-.76c-1.45-.11-2.36-.27-2.72-.49-.63-.37-.94-.94-.94-1.72,0-.59.19-1.33.57-2.23l1.17-2.7h9.81l1.47,3.46c.38.9.59,1.41.61,1.53.08.26.12.51.12.76,0,.41-.15.72-.45.94-.44.3-1.19.45-2.27.45h-.55v.76h13.43v-.76c-.85-.07-1.5-.31-1.97-.74-.61-.56-1.4-1.92-2.35-4.08M8.03,188.21l4.26-9.56,4.14,9.56h-8.4Z"/>
  </g>
  <path class="cls-1" d="M46.51,193.47v-14.99h-7.8v.76c.85.11,1.4.34,1.66.69.27.35.41,1.26.41,2.7v10.24c-.77,1.08-1.42,1.8-1.97,2.15-.4.26-.84.39-1.33.39-.37,0-.7-.1-.98-.3-.28-.21-.48-.51-.62-.91-.12-.39-.18-1.27-.18-2.64v-13.09h-7.8v.76c.85.11,1.4.34,1.66.69.27.35.41,1.26.41,2.7v7.6c0,2.21.14,3.76.43,4.65.29.89.85,1.67,1.68,2.33.85.66,1.81.98,2.89.98s2.16-.25,3.07-.74c.92-.51,1.83-1.3,2.74-2.4v2.56h7.8v-.74c-.84-.1-1.39-.32-1.66-.68-.27-.37-.41-1.28-.41-2.74"/>
  <path class="cls-1" d="M58.38,185.26c-2.01-1.36-3.23-2.33-3.67-2.89-.27-.34-.41-.7-.41-1.07,0-.49.2-.92.59-1.29.4-.38.87-.57,1.43-.57.89,0,1.78.35,2.66,1.07.9.71,1.77,2.03,2.6,3.97h.7l-.31-6.53h-.7c-.33.48-.57.77-.72.88-.15.09-.35.14-.59.14-.23,0-.53-.1-.9-.31-.97-.51-1.97-.76-3.01-.76-1.93,0-3.4.6-4.42,1.8-1.01,1.19-1.51,2.52-1.51,4,0,1.35.45,2.58,1.35,3.7.61.76,1.97,1.87,4.06,3.32,1.42.97,2.33,1.69,2.74,2.17.41.48.62,1.05.62,1.7,0,.57-.21,1.07-.64,1.47-.41.4-.94.59-1.6.59-.96,0-1.97-.45-3.05-1.35-1.06-.9-1.9-2.25-2.52-4.05h-.69l.33,6.88h.67c.3-.68.68-1.02,1.13-1.02.15,0,.43.08.84.22,1.53.57,2.75.86,3.66.86,1.17,0,2.25-.27,3.22-.82.97-.55,1.72-1.33,2.25-2.35.53-1.02.8-2.07.8-3.13,0-1.18-.32-2.23-.96-3.18-.63-.95-1.95-2.11-3.95-3.46"/>
  <path class="cls-1" d="M72.12,171.48h-.68c-.9,1.65-1.96,3.15-3.17,4.49-1.2,1.34-2.66,2.62-4.38,3.83v.72h2.5v10.34c0,2.05.07,3.3.2,3.77.23.84.76,1.59,1.6,2.27.85.67,1.88,1,3.09,1,2.49,0,4.28-1.31,5.39-3.93l-.61-.45c-.79,1.35-1.63,2.02-2.52,2.02-.22,0-.46-.09-.72-.28-.26-.2-.44-.46-.56-.78-.09-.33-.14-1.05-.14-2.15v-11.82h4.54v-2.03h-4.54v-7"/>
  <path class="cls-1" d="M92.11,177.91c-.89,0-1.81.33-2.77.98-.95.64-2.07,1.95-3.34,3.93v-4.34h-7.82v.76c.66.07,1.11.19,1.37.37.26.18.46.46.59.84.11.3.16,1,.16,2.09v10.59c0,1.67-.15,2.7-.45,3.09-.29.38-.85.61-1.68.68v.74h10.34v-.74c-.76-.04-1.31-.14-1.64-.31-.31-.18-.55-.45-.72-.82-.1-.22-.14-.72-.14-1.5l-.02-1.15v-4.4c0-1.59.22-3.05.65-4.38.29-.86.71-1.52,1.27-1.99.36-.3.73-.45,1.13-.45.18,0,.34.04.47.12.1.06.41.32.94.78.53.47,1.16.7,1.88.7.63,0,1.16-.25,1.6-.76.45-.5.68-1.21.68-2.13,0-.86-.23-1.52-.7-1.99-.45-.48-1.06-.72-1.82-.72"/>
  <path class="cls-1" d="M111.75,195.28c-.18,0-.33-.05-.47-.16-.14-.11-.24-.27-.31-.5-.07-.23-.1-.78-.1-1.66v-7.43c0-2.06-.1-3.38-.29-3.95-.31-.9-1-1.73-2.07-2.5-1.05-.78-2.48-1.17-4.3-1.17-1.5,0-2.95.24-4.34.72-1.39.48-2.48,1.17-3.26,2.07-.78.89-1.17,1.82-1.17,2.81,0,.7.29,1.3.86,1.82.59.52,1.31.78,2.17.78.81,0,1.46-.23,1.94-.7.51-.48.76-1.05.76-1.72,0-.55-.26-1.11-.78-1.7-.38-.42-.57-.78-.57-1.06,0-.33.18-.62.53-.86.57-.4,1.3-.6,2.19-.6.55,0,1.04.15,1.48.43.44.27.73.6.88.98.17.37.25,1.28.25,2.72v1.93c-4.22,1.94-6.96,3.49-8.21,4.67-1.25,1.16-1.88,2.47-1.88,3.93,0,1.08.36,1.98,1.09,2.7.72.71,1.63,1.06,2.72,1.06,1.86,0,3.95-1.03,6.29-3.09.13,1.04.51,1.81,1.13,2.33.61.51,1.47.76,2.56.76.93,0,1.75-.22,2.48-.67.74-.47,1.45-1.2,2.13-2.21l-.61-.49c-.37.51-.73.76-1.09.76M105.15,193.31c-.9.77-1.69,1.15-2.38,1.15-.61,0-1.09-.18-1.43-.56-.45-.48-.67-1.03-.67-1.66,0-.75.27-1.5.8-2.24.8-1.1,2.03-2.14,3.69-3.11v6.41Z"/>
  <path class="cls-1" d="M121.79,193.66v-23.79h-8.03v.76c.9.06,1.51.27,1.82.65.31.37.47,1.22.47,2.56v19.82c0,1.35-.14,2.19-.41,2.5-.41.47-1.04.71-1.88.74v.74h10.34v-.74c-.92-.05-1.53-.27-1.84-.64-.32-.38-.47-1.25-.47-2.6"/>
  <path class="cls-1" d="M133.42,193.66v-15.17h-8.03v.76c.9.05,1.51.27,1.82.65.31.37.47,1.23.47,2.58v11.18c0,1.35-.14,2.19-.41,2.5-.41.47-1.04.71-1.88.74v.74h10.34v-.74c-.91-.05-1.53-.27-1.85-.64-.31-.38-.47-1.25-.47-2.6"/>
  <path class="cls-1" d="M127.4,172.38c0,.87.31,1.62.92,2.23.61.61,1.36.92,2.23.92s1.62-.31,2.23-.92c.63-.61.94-1.36.94-2.23s-.31-1.62-.92-2.23c-.61-.63-1.37-.94-2.25-.94s-1.62.31-2.23.94c-.61.62-.92,1.36-.92,2.23"/>
  <path class="cls-1" d="M153.5,195.28c-.18,0-.33-.05-.47-.16-.14-.11-.24-.27-.31-.5-.07-.23-.1-.78-.1-1.66v-7.43c0-2.06-.1-3.38-.29-3.95-.31-.9-1-1.73-2.07-2.5-1.05-.78-2.49-1.17-4.3-1.17-1.5,0-2.95.24-4.34.72-1.39.48-2.48,1.17-3.25,2.07-.78.89-1.17,1.82-1.17,2.81,0,.7.29,1.3.86,1.82.59.52,1.31.78,2.17.78.81,0,1.45-.23,1.95-.7.5-.48.76-1.05.76-1.72,0-.55-.26-1.11-.78-1.7-.38-.42-.57-.78-.57-1.06,0-.33.18-.62.53-.86.58-.4,1.31-.6,2.19-.6.55,0,1.04.15,1.47.43.44.27.73.6.88.98.16.37.25,1.28.25,2.72v1.93c-4.22,1.94-6.96,3.49-8.21,4.67-1.26,1.16-1.88,2.47-1.88,3.93,0,1.08.36,1.98,1.09,2.7.72.71,1.63,1.06,2.72,1.06,1.86,0,3.95-1.03,6.29-3.09.14,1.04.51,1.81,1.13,2.33.61.51,1.47.76,2.56.76.93,0,1.76-.22,2.48-.67.74-.47,1.45-1.2,2.13-2.21l-.62-.49c-.37.51-.73.76-1.09.76M146.91,193.31c-.9.77-1.69,1.15-2.38,1.15-.62,0-1.09-.18-1.43-.56-.45-.48-.68-1.03-.68-1.66,0-.75.27-1.5.8-2.24.8-1.1,2.03-2.14,3.69-3.11v6.41Z"/>
  <path class="cls-1" d="M174.25,193.45v-7.45c0-2.21-.11-3.71-.33-4.49-.27-1.02-.82-1.88-1.64-2.56-.82-.7-1.85-1.04-3.09-1.04-1.04,0-2.01.25-2.91.73-.9.48-1.84,1.25-2.82,2.31v-2.48h-7.8v.76c.85.11,1.4.34,1.66.69.27.35.41,1.26.41,2.7v10.81c0,1.48-.12,2.36-.35,2.66-.34.44-.91.7-1.72.78v.74h9.69v-.74c-.72-.1-1.22-.33-1.49-.72-.26-.38-.39-1.29-.39-2.72v-10.26c1.01-1.68,2.1-2.52,3.28-2.52.36,0,.68.12.96.35.3.22.51.53.63.94.12.41.18,1.4.18,2.97v8.52c0,1.35-.11,2.2-.33,2.54-.31.5-.83.8-1.56.9v.74h9.69v-.74c-.85-.1-1.4-.32-1.68-.68-.26-.37-.39-1.29-.39-2.76"/>
  <path class="cls-1" d="M203.79,186.73h.72c.67,0,1.24.13,1.7.39.48.26.79.55.94.88.15.32.23,1.02.23,2.11v5.77c-.74.27-1.46.49-2.17.64-.7.14-1.38.2-2.05.2-1.93,0-3.59-.47-5-1.41-1.39-.94-2.4-2.42-3.03-4.42-.63-2.01-.94-4.34-.94-7,0-2.2.29-4.34.86-6.43.57-2.09,1.55-3.71,2.93-4.87,1.38-1.17,3.11-1.76,5.18-1.76s4.17.7,6,2.09c1.83,1.39,3.2,3.43,4.12,6.1h.76v-9.79h-.76c-.27.78-.57,1.31-.9,1.6-.33.27-.68.41-1.07.41-.25,0-1.04-.25-2.4-.76-1.34-.52-2.31-.83-2.91-.94-1.11-.22-2.35-.33-3.73-.33-4.45,0-8.14,1.44-11.08,4.32-2.93,2.88-4.4,6.41-4.4,10.59,0,2.33.48,4.44,1.43,6.33.75,1.46,1.79,2.78,3.11,3.95,1.34,1.16,2.88,2.1,4.61,2.82,1.75.71,3.94,1.07,6.57,1.07,2.06,0,4.05-.21,5.96-.62,1.92-.4,3.77-.99,5.55-1.78v-5.77c0-1.01.06-1.65.18-1.9.22-.49.53-.84.92-1.04.41-.22,1.13-.36,2.15-.43v-.76h-13.5v.76"/>
  <path class="cls-1" d="M231.97,179.2c-1.43-.86-2.98-1.29-4.65-1.29-2.77,0-4.96,1.02-6.55,3.07-1.58,2.03-2.38,4.42-2.38,7.17s.78,5,2.33,7.02c1.56,2.02,3.78,3.03,6.66,3.03s5.24-1.1,6.9-3.32c1.38-1.83,2.07-4.1,2.07-6.82,0-1.88-.38-3.62-1.13-5.2-.74-1.58-1.82-2.8-3.26-3.66M229.93,194.33c-.18.83-.53,1.48-1.06,1.95-.41.34-.92.51-1.54.51s-1.19-.25-1.68-.76c-.49-.51-.81-1.24-.96-2.21-.19-1.27-.29-2.64-.29-4.1,0-2.76.07-4.91.23-6.45.16-1.56.49-2.6.98-3.11.5-.53,1.11-.8,1.8-.8.57,0,1.04.15,1.39.43.5.4.89,1.03,1.15,1.9.26.86.39,2.45.39,4.77,0,3.94-.14,6.57-.41,7.86Z"/>
  <path class="cls-1" d="M255.94,178.48h-6.27v.76c.78.03,1.32.18,1.62.45.31.26.47.6.47,1.02,0,.74-.36,1.99-1.09,3.77l-2.52,6.2-3.15-7.19c-.6-1.39-.9-2.34-.9-2.85,0-.41.16-.76.49-1.06.23-.23.67-.35,1.31-.35v-.76h-10.18v.76c.61.12,1.08.36,1.39.72.44.48,1.04,1.61,1.82,3.4l6.45,14.85h.96l6.39-15.03c.76-1.8,1.34-2.89,1.72-3.26.38-.37.87-.59,1.48-.67v-.76"/>
  <path class="cls-1" d="M268.69,180.3c-1.42-1.6-3.1-2.39-5.04-2.39-2.32,0-4.35.95-6.08,2.84-1.72,1.88-2.58,4.42-2.58,7.62,0,2.61.59,4.79,1.76,6.55,1.46,2.18,3.61,3.28,6.45,3.28,1.65,0,3.1-.44,4.36-1.31,1.26-.89,2.4-2.39,3.44-4.51l-.7-.45c-.77,1.19-1.48,2.01-2.15,2.48-.67.45-1.41.68-2.23.68-1.32,0-2.46-.56-3.4-1.7-1.23-1.47-1.9-3.48-2.03-6.02h10.51c-.11-3.12-.88-5.48-2.31-7.07M260.39,186v-.72c0-2.12.4-3.78,1.21-5,.45-.7,1.03-1.04,1.74-1.04.48,0,.86.12,1.15.37.5.42.87,1.04,1.11,1.86.25.82.37,2.33.37,4.53h-5.57Z"/>
  <path class="cls-1" d="M286.19,177.91c-.89,0-1.81.33-2.77.98-.96.64-2.07,1.95-3.34,3.93v-4.34h-7.82v.76c.65.07,1.11.19,1.37.37.26.18.46.46.59.84.11.3.17,1,.17,2.09v10.59c0,1.67-.15,2.7-.45,3.09-.29.38-.85.61-1.68.68v.74h10.34v-.74c-.77-.04-1.31-.14-1.64-.31-.32-.18-.55-.45-.72-.82-.1-.22-.14-.72-.14-1.5l-.02-1.15v-4.4c0-1.59.22-3.05.66-4.38.29-.86.71-1.52,1.27-1.99.35-.3.73-.45,1.13-.45.18,0,.33.04.47.12.1.06.41.32.94.78.53.47,1.16.7,1.88.7.63,0,1.16-.25,1.6-.76.45-.5.68-1.21.68-2.13,0-.86-.23-1.52-.7-1.99-.45-.48-1.06-.72-1.82-.72"/>
  <path class="cls-1" d="M308.53,193.45v-7.45c0-2.21-.11-3.71-.33-4.49-.27-1.02-.82-1.88-1.64-2.56-.82-.7-1.85-1.04-3.09-1.04-1.04,0-2.01.25-2.91.73-.9.48-1.84,1.25-2.83,2.31v-2.48h-7.8v.76c.85.11,1.4.34,1.66.69.27.35.41,1.26.41,2.7v10.81c0,1.48-.12,2.36-.35,2.66-.34.44-.92.7-1.72.78v.74h9.69v-.74c-.73-.1-1.22-.33-1.5-.72-.26-.38-.39-1.29-.39-2.72v-10.26c1.01-1.68,2.1-2.52,3.28-2.52.36,0,.68.12.96.35.3.22.51.53.64.94.12.41.18,1.4.18,2.97v8.52c0,1.35-.11,2.2-.33,2.54-.32.5-.83.8-1.56.9v.74h9.69v-.74c-.85-.1-1.4-.32-1.68-.68-.26-.37-.39-1.29-.39-2.76"/>
  <path class="cls-1" d="M342.35,193.45v-7.84c0-2.05-.16-3.53-.47-4.46-.3-.94-.85-1.71-1.64-2.31-.78-.61-1.83-.92-3.15-.92-1.09,0-2.15.27-3.15.82-1,.55-2.04,1.43-3.13,2.66-.45-1.17-1.09-2.05-1.92-2.62-.83-.57-1.86-.86-3.09-.86-1.07,0-2.05.23-2.95.69-.89.45-1.86,1.25-2.91,2.4v-2.52h-7.8v.76c.85.11,1.4.34,1.66.69.27.35.41,1.26.41,2.7v10.81c0,1.48-.12,2.36-.35,2.66-.34.44-.92.7-1.72.78v.74h9.87v-.74c-.85-.08-1.41-.33-1.68-.76-.26-.44-.39-1.33-.39-2.68v-10.28c.72-1.02,1.4-1.75,2.05-2.17.45-.28.95-.43,1.49-.43.37,0,.71.12,1.02.37.33.24.56.59.7,1.02.14.44.21,1.52.21,3.25v8.23c0,1.12-.06,1.85-.17,2.19-.1.33-.3.61-.61.86-.3.23-.72.36-1.25.39v.74h9.91v-.74c-.89-.05-1.49-.33-1.8-.84-.23-.35-.35-1.22-.35-2.6v-10.28c.61-.86,1.22-1.5,1.82-1.92.6-.44,1.19-.66,1.78-.66.4,0,.74.12,1.02.35.3.22.52.56.66,1.02.14.46.2,1.55.2,3.25v8.23c0,1.32-.12,2.17-.37,2.54-.37.53-.94.83-1.72.9v.74h9.89v-.74c-.85-.11-1.41-.34-1.68-.69-.26-.36-.39-1.27-.39-2.75"/>
  <path class="cls-1" d="M359.14,180.3c-1.42-1.6-3.1-2.39-5.04-2.39-2.32,0-4.35.95-6.08,2.84-1.72,1.88-2.58,4.42-2.58,7.62,0,2.61.59,4.79,1.76,6.55,1.46,2.18,3.61,3.28,6.45,3.28,1.65,0,3.11-.44,4.36-1.31,1.25-.89,2.4-2.39,3.44-4.51l-.7-.45c-.76,1.19-1.48,2.01-2.15,2.48-.67.45-1.41.68-2.23.68-1.32,0-2.46-.56-3.4-1.7-1.23-1.47-1.9-3.48-2.03-6.02h10.5c-.11-3.12-.88-5.48-2.31-7.07M350.85,186v-.72c0-2.12.4-3.78,1.21-5,.45-.7,1.03-1.04,1.74-1.04.48,0,.86.12,1.15.37.5.42.87,1.04,1.11,1.86.24.82.37,2.33.37,4.53h-5.57Z"/>
  <path class="cls-1" d="M380.79,193.45v-7.45c0-2.21-.11-3.71-.33-4.49-.27-1.02-.82-1.88-1.64-2.56-.82-.7-1.85-1.04-3.09-1.04-1.04,0-2.01.25-2.91.73-.9.48-1.84,1.25-2.83,2.31v-2.48h-7.8v.76c.85.11,1.4.34,1.66.69.27.35.41,1.26.41,2.7v10.81c0,1.48-.12,2.36-.35,2.66-.34.44-.92.7-1.72.78v.74h9.69v-.74c-.72-.1-1.22-.33-1.49-.72-.26-.38-.39-1.29-.39-2.72v-10.26c1.01-1.68,2.1-2.52,3.28-2.52.35,0,.68.12.96.35.3.22.51.53.64.94.12.41.18,1.4.18,2.97v8.52c0,1.35-.11,2.2-.33,2.54-.31.5-.83.8-1.55.9v.74h9.69v-.74c-.85-.1-1.41-.32-1.68-.68-.26-.37-.39-1.29-.39-2.76"/>
  <path class="cls-1" d="M395.55,180.51v-2.03h-4.55v-7h-.68c-.9,1.65-1.96,3.15-3.17,4.49-1.2,1.34-2.66,2.62-4.38,3.83v.72h2.5v10.34c0,2.05.07,3.3.21,3.76.23.84.76,1.59,1.6,2.27.85.67,1.88,1,3.09,1,2.48,0,4.28-1.31,5.39-3.93l-.61-.45c-.79,1.35-1.63,2.02-2.52,2.02-.22,0-.46-.09-.72-.28-.26-.2-.44-.46-.55-.78-.1-.33-.14-1.05-.14-2.15v-11.82h4.55"/>
  <path class="cls-1" d="M164.64,120.32l-.53.53c.23-.11.4-.3.53-.53"/>
  <path class="cls-1" d="M170.43,81.82c0-.56-.45-1.01-1-1.01s-1,.45-1,1.01.45,1.01,1,1.01,1-.45,1-1.01"/>
  <path class="cls-1" d="M179.76,40.45v.02h0l.03,29.18c0,2.82,1.19,5.28,2.84,6.04l13.9,8.3c.31.35.76.57,1.27.57.44,0,.83-.17,1.13-.44l14.11-8.43c1.65-.76,2.84-3.22,2.84-6.04l.03-29.18h0v-.02h-36.13M185.69,43.27l.58.06.35-.62.34.61.59-.05-.28.51.44.47-.57.11v.63l-.54-.4-.54.4v-.63l-.57-.11.44-.47-.28-.51ZM185.54,49.84c1.05,0,.75,1.01.92,1.01s-.01-1.01.69-1.01c1.04,0,2.34,2.67,1.16,2.67-.51,0-.1-.38-.11-.45-.03-.19-.28-.24-.38-.24-.33,0-.47.56-.75.57-.21.01-.36.03-.36-.22,0-.19.43-.34.6-.5-2.34,0-2.39,1.07-2.75,1.07-.61,0,.51-1.13.84-1.46-.48-.08-.75-.66-1.27-.96.24-.35.38-.2.69.05,0-.25.18-.54.73-.54ZM185.52,58.73l.44-.46-.28-.51.58.06.35-.62.34.61.59-.05-.28.51.44.46-.57.11v.63l-.54-.4-.54.4v-.63l-.57-.11ZM180.78,41.44h3.8v7.47h-3.8v-7.47ZM181.24,51.52l.44-.46-.28-.51.58.06.35-.62.34.61.59-.05-.27.51.44.46-.57.11v.63l-.54-.4-.54.4v-.63l-.57-.11ZM180.78,53.72h3.8v7.09h-3.8v-7.09ZM191.77,80l-8.65-5.16c-1.44-.98-2.16-2.72-2.34-4.81v-8.21h10.99v18.19ZM191.77,60.82h-3.12v-7.09h3.12v7.09ZM189.67,50.55l.58.06.35-.62.35.61.59-.05-.27.51.44.46-.57.11v.63l-.54-.4-.54.4v-.63l-.57-.11.45-.46-.28-.51ZM191.77,48.92h-3.12v-7.47h3.12v7.47ZM202.9,80.58l-3.99,2.38h-.07c-.29.23-.65.37-1.05.37s-.78-.15-1.07-.38l-3.97-2.37v-18.78h10.15v18.78ZM202.9,60.82h-10.15v-19.37h10.15v19.37ZM214.88,70.02c-.19,2.09-.9,3.83-2.34,4.81l-8.65,5.16v-18.19h10.99v8.21ZM214.88,60.82h-10.99v-19.37h10.99v19.37Z"/>
  <path class="cls-1" d="M181.23,66.73c-.05.14.09.32.33.46-.11.1-.2.34-.2,1.03,0,2.3,1.44,3.37,2.51,3.37.75,0,.64-.53.73-.78.03.39.4-.2.4.49s-.73.4-.73,1.02c0,.82,1.16-.03,1.16.88,0,1.1-.14,1.08-.14,1.5,0,.29,1.21-.4,1.14-.53.29.11.28.96.82.94.35-.01.43-.88.7-.95-.16.04,1.1.82,1.1.43,0-1.07-.44-.62-.44-1.36,0-.68,1.49-.55,1.25-.9-.2-.29-.33-.11-.49-.62.03.1-1.17-1.71.25-.78,1.49.98,1.66-2.26,1.58-2.43-.04-.08-.71.17-.96.32.11-.41.76-1.12,1.07-1.39-.06-.46-.65-.04-1.27.28,2.06-2.95.74-1.74-.41-1.53,1.84-1.98,1.35-1.95,0-1.33,1.06-.84,1.29-1.85,1.13-2.14-1,1.33-1.92,1.12-1.92,2.36,0,.81-.29,2.14-.71,2.59-.54.58-.13-2.18-1.53-2.18-.45,0-1.51-.04-1.84.52.29,0,.72.73.72,1.02s.27,1.09-.22,1.09-1.04-1.01-1.04-1.5-.03-.37-.03-1.07c0-1.17-1.9-2.81-2.67-2.81,0,.81,1.06,1.01,1.06,2.04-.45,0-1.09-.84-1.09-.32s.68.62.68,1.07-.77-.16-.77.32c0,.43.42.35.52.77-.31-.09-.59-.05-.65.11"/>
  <path class="cls-1" d="M229.73,76.12c.66,0,1.19-.47,1.19-1.05s-.53-1.05-1.19-1.05-1.19.47-1.19,1.05.53,1.05,1.19,1.05"/>
  <path class="cls-1" d="M223.74,77.93c0,.58.53,1.05,1.19,1.05s1.19-.47,1.19-1.05-.53-1.05-1.19-1.05-1.19.47-1.19,1.05"/>
  <path class="cls-1" d="M167.82,83.47c-.66,0-1.19.47-1.19,1.05s.53,1.05,1.19,1.05,1.19-.47,1.19-1.05-.53-1.05-1.19-1.05"/>
  <path class="cls-1" d="M171.52,85.88c.66,0,1.19-.47,1.19-1.05s-.53-1.05-1.19-1.05-1.19.47-1.19,1.05.53,1.05,1.19,1.05"/>
  <path class="cls-1" d="M275.21,43.92c1.26-2.41.88-5.77-.88-7.87-.44-.44-.13-1.46-.95-1.59-1.13,2.67-.12,5.65,1.14,7.99.13.51,0,1.4.69,1.46"/>
  <path class="cls-1" d="M122.9,43.67c.31-.06.25.57.57.26-.38-1.4-.38-3.49,0-5.01-.25-1.27-.76-2.35-1.89-3.11-.19-.13-.5-.06-.63.13.63,2.48-.51,5.97,1.95,7.74"/>
  <path class="cls-1" d="M278.92,40.81c.51-.32,1.2-1.02.82-1.71-.38-.57-1.01-.7-1.64-.64-.57.32-.94.95-.76,1.65.38.51,1.01.83,1.58.7"/>
  <path class="cls-1" d="M118.81,43.29c.5-.25.69-.82.82-1.4-.19-.51-.63-.63-1.07-.82-.44.06-.94.13-1.2.57-.19.45-.12,1.01.25,1.33.25.32.82.32,1.2.32"/>
  <path class="cls-1" d="M280.5,44.56c.63.25,1.26,0,1.7-.57.13-.38.13-.63,0-1.01-.38-.32-.75-.64-1.32-.64-.44.19-.95.64-1.07,1.14.12.38.25.82.69,1.08"/>
  <path class="cls-1" d="M277.35,44.94c.57.19,1.01-.31,1.32-.63.06-.38.44-1.02-.06-1.27-.38-.19-.69-.45-1.2-.32-.63.19-.88.83-.88,1.46.12.45.5.45.82.76"/>
  <path class="cls-1" d="M273.25,45.7c.82-.13.75-1.01.75-1.71-.31-.38-.75-.7-1.26-.7-.63.25-1.01.89-.94,1.52.19.51.69,1.14,1.45.89"/>
  <path class="cls-1" d="M125.68,45.64c.38-.32,1.01-.7.82-1.33-.25-.7-1.19-1.14-1.83-.57-.12.38-.69.76-.25,1.2.25.45.82.83,1.26.7"/>
  <path class="cls-1" d="M122.02,45.7c.44-.19.69-.7.69-1.21-.25-.45-.69-1.08-1.39-.83-.5.25-.88.83-.57,1.46.26.38.76.76,1.26.57"/>
  <path class="cls-1" d="M259.33,52.93c.88-.83.44-2.41.69-3.62-.13-1.65-.63-3.24-1.26-4.57-.19-.32-.19-.95-.69-.76-.38,2.16-1.39,4.76-.25,6.98.57.57.63,1.65,1.51,1.97"/>
  <path class="cls-1" d="M118.18,44.68c-.5.25-.89.89-.82,1.52.32.51.82,1.08,1.58.89.44-.44,1.01-.82.82-1.59-.31-.57-.94-.89-1.57-.82"/>
  <path class="cls-1" d="M269.03,53.44c.57-2.03.5-4.25-.31-6.09-.63-.38-.95-1.21-1.01-1.9-.19-.38-.44-.76-.88-.44-.51,1.08-.76,2.29-.76,3.62.44,1.84,1.7,3.43,2.58,5.14l.38-.32"/>
  <path class="cls-1" d="M274.95,45.44c-.5.32-.88.89-.69,1.52.19.7.82.89,1.45.76.63-.19.88-.89.95-1.52-.31-.5-1.01-1.14-1.7-.76"/>
  <path class="cls-1" d="M121.83,49.38c.5-.13.94-.7.94-1.21-.13-.63-.69-.89-1.26-1.21-.38.13-.82.13-1.01.51-.32.51-.19.95,0,1.46.44.19.82.82,1.33.44"/>
  <path class="cls-1" d="M123.41,48.36c.32.44.69,1.02,1.45.76.25-.32.95-.63.69-1.27-.32-.57-.69-1.08-1.45-.89-.44.38-.82.76-.69,1.4"/>
  <path class="cls-1" d="M276.97,50.14c.12-.82,1.39-1.65,1.45-2.48-1.95.51-3.78,1.59-5.11,3.3-.69,1.14-1.83,2.28-1.7,3.55.57-.06,1.07-.51,1.45-.83,1.7-.57,3.21-1.84,3.91-3.55"/>
  <path class="cls-1" d="M123.66,53.95c.31,0,.5-.38.44-.64-1.13-.95-1.64-1.9-2.58-2.98-.82-1.08-2.02-1.33-3.09-2.16-.44.06-1.26-.51-1.45.19,1.51,2.22,3.59,5.39,6.68,5.58"/>
  <path class="cls-1" d="M273.25,58.58c.69.44,1.45-.25,2.14-.51,2.46-1.33,3.78-4.12,3.91-6.85h-.5c-2.21,2.41-4.22,4.63-5.55,7.36"/>
  <path class="cls-1" d="M266.14,54.9c.75-.32,1.26-.89,1.07-1.84-.32-.32-.5-.63-.88-.76-.25,0-.57,0-.76.19-.57.19-.94.76-.88,1.4.32.51.76,1.08,1.45,1.01"/>
  <path class="cls-1" d="M121.46,56.61c-1.14-1.01-2.21-2.16-3.41-2.98-1.32-.32-2.46-.95-3.84-.83-.44.19-1.26-.07-1.32.63,2.2.63,3.65,2.48,5.79,3.24.95,0,1.96.51,2.78-.06"/>
  <path class="cls-1" d="M135.25,56.23c.57-.25,1.01-.7.95-1.46-.13-.57-.76-.64-1.26-.76-.5.25-1.13.76-.88,1.46.31.51.69.57,1.19.76"/>
  <path class="cls-1" d="M130.84,56.43c.38.51,1.07.19,1.51-.19.19-.44.13-1.08-.25-1.46-.51-.51-1.26-.13-1.7.32-.31.51.06.95.44,1.33"/>
  <path class="cls-1" d="M266.51,55.92c-.44.13-.88.44-.95.95,0,.82.82.95,1.45,1.14.5-.25,1.07-.76.82-1.46-.25-.38-.75-.82-1.32-.63"/>
  <path class="cls-1" d="M269.16,57.31c.19.63.82.89,1.51.76.19-.25.38-.32.63-.51.51-.32.06-.83-.12-1.14-.32-.25-.63-.57-1.07-.45-.5.32-1.07.63-.94,1.33"/>
  <path class="cls-1" d="M114.08,57.19c.13.32.31.63.5.82.82.26,1.45-.06,1.7-.82-.19-.7-.75-1.01-1.51-1.08-.5.19-.63.63-.69,1.08"/>
  <path class="cls-1" d="M135.07,58.58c.32.44.75.95,1.39.89.44-.25,1.01-.7,1.07-1.21-.25-.7-1.01-1.21-1.7-.95-.5.13-.75.76-.75,1.27"/>
  <path class="cls-1" d="M131.73,58.14c-.13.64.31.89.69,1.21.63.38,1.2-.19,1.57-.51.19-.32,0-.83-.19-1.02-.38-.25-.63-.57-1.13-.44-.38.13-.69.51-.95.76"/>
  <path class="cls-1" d="M279.56,57.69c-.44.13-.88.38-1.2.83,0,.32-.13.83.25.95.32.38.88.51,1.39.32.32-.19.82-.7.82-1.21-.32-.38-.7-.76-1.26-.89"/>
  <path class="cls-1" d="M283.65,60.3c.57-.06,1.01-.57,1.2-1.14-.19-.63-.94-.95-1.57-.63-.32.13-.57.57-.57,1.02-.13.57.57.7.94.76"/>
  <path class="cls-1" d="M122.27,59.28c-.38.25-.95.13-1.07.7-.25.44,0,.95.32,1.27.32.26.76.57,1.2.32.63-.25.88-.76.76-1.52-.32-.45-.63-.7-1.2-.76"/>
  <path class="cls-1" d="M126.06,61.69c.12-.38.69-.57.5-1.08-.32-.76-1.64-1.27-2.14-.32-.44.57.07,1.14.51,1.52.38.25.82.06,1.14-.13"/>
  <path class="cls-1" d="M275.65,59.79c-.44.32-.76.7-.69,1.21.13.51.69.89,1.26.76.38-.38.95-.83.88-1.46-.31-.51-.88-.57-1.45-.51"/>
  <path class="cls-1" d="M279.81,61.31c-.19.45-.13,1.02.25,1.33.38.32,1.01.38,1.51.25.63-.38.57-1.01.7-1.59-.38-.19-.5-.51-.95-.76-.63-.13-1.2.25-1.51.76"/>
  <path class="cls-1" d="M119.12,62.2c-.06.32-.25.95.19,1.21.38.19.82.38,1.26.13.19-.25.76-.38.5-.89-.25-.76-1.39-1.52-1.95-.44"/>
  <path class="cls-1" d="M270.73,62.77c.82.51,1.76.76,2.52,1.4,1.32,1.21,3.59,1.02,5.1.25.06-.13.19-.51-.06-.57-2.01-.06-3.46-1.78-5.29-2.03-.82.19-1.95.13-2.27.95"/>
  <path class="cls-1" d="M122.21,62.9c-.38.51-.12,1.21.44,1.59.32.13.82.25,1.07-.13.12-.38.5-.57.38-1.08-.38-.7-1.2-1.08-1.89-.38"/>
  <path class="cls-1" d="M129.02,65.05c.5-.31.88-.82.63-1.39-.44-.7-1.58-1.21-2.14-.25-.57.51,0,1.01.32,1.46.38.06.76.44,1.2.19"/>
  <path class="cls-1" d="M194.42,75.33c.84,2.23,3.47,1.15,5.27,1.33.96-.48,1.86-1.14,2.39-2.05.06-1.03.36-2.35-.24-3.2-.72-.9-.96-2.35-1.26-3.56-.3-1.69,1.8-.24,1.92-1.51-.6-.66-1.49-1.87-2.57-1.02-.6.48-.9,1.26-.72,2.11.24,1.63.96,3.13,1.2,4.64-.36-.18-.6-.54-.9-.79-1.26-1.62-3.59-1.14-5.03-2.65-1.74.12,1.13,1.93-.9,2.29-.06.42.42.66.42,1.09-.18.18-.42.18-.6.3,0,1.08.66,2.05,1.02,3.01"/>
  <path class="cls-1" d="M134.5,67.28c.38-.32.88-.7.69-1.33-.25-.45-.76-.64-1.2-.64-.38.32-.82.64-.63,1.27.25.32.57.95,1.13.7"/>
  <path class="cls-1" d="M173,66.83c-.69,2.48-1.95,5.78-.25,8.12.69.06.51-.76.57-1.27,1.26-2.09,1.51-4.63.76-7.11-.19-.63-.95-.38-1.07.25"/>
  <path class="cls-1" d="M228.14,73.69c.82-1.78.75-4.13-.13-5.9-.25-.51-.19-1.65-1.07-1.46-.06,1.21-.44,2.22-.76,3.36.19,1.59.76,3.05,1.45,4.51l.51-.51"/>
  <path class="cls-1" d="M132.36,71.02c1.89.32,4.1.06,5.61-1.08.7-.51,1.77-.7,2.15-1.46-.13-.32-.44-.19-.57-.44-3.02-.63-5.54.7-7.18,2.98"/>
  <path class="cls-1" d="M118.56,76.99c-1.39-2.29-2.02-4.57-4.35-6.22-.25,0-.63,0-.63.25-.06,2.79,1.45,5.46,3.84,6.54.69-.13,1.2.63,1.7.25.25-.51-.38-.57-.57-.83"/>
  <path class="cls-1" d="M224.99,74.19c.5-.19.63-.82.57-1.46-.32-.57-1.2-.83-1.7-.32-.13.32-.51.57-.32,1.02.19.57.76.95,1.45.76"/>
  <path class="cls-1" d="M275.46,80.73c3.53-1.01,5.67-4.25,7.69-7.11-.5-.26-1.2,0-1.7.25-3.34.82-4.48,4.38-6.62,6.67.12.32.38.19.63.19"/>
  <path class="cls-1" d="M110.49,77.62c.57-.06.31-.63.63-.89-.12-.63-.63-.82-1.13-1.08-.5.13-1.07.76-.82,1.4.25.51.82.83,1.32.57"/>
  <path class="cls-1" d="M121.26,76.48c1.89,1.9,4.6,2.79,7.25,1.84.32-.13.94-.13.76-.7-2.14-1.59-5.17-1.08-7.75-1.71-.25.06-.25.32-.25.57"/>
  <path class="cls-1" d="M112.32,77.5c.25.38.44.64.82.83.63.13,1.2,0,1.57-.57.06-.25,0-.7-.13-.95-.32-.32-.69-.44-1.2-.51-.5.19-1.01.57-1.07,1.21"/>
  <path class="cls-1" d="M171.99,76.61c-.44.13-.63.76-.44,1.21.25.38.76.63,1.32.51.38-.25.88-.64.75-1.21-.19-.57-1.07-.63-1.64-.51"/>
  <path class="cls-1" d="M283.21,77.5c-.13.45.25.7.31,1.02.38.19.82.38,1.2.19.44-.38,1.01-.7.82-1.33-.32-.32-.57-.38-.88-.64-.63-.06-1.2.19-1.45.76"/>
  <path class="cls-1" d="M288.31,78.96c.38.19.88.06,1.14-.38.31-.44.63-.89.25-1.46-.51,0-.76-.64-1.39-.38-.38.19-.94.57-.94,1.08.06.57.57.76.94,1.14"/>
  <path class="cls-1" d="M107.02,80.29c.38.13.69-.13,1.01-.25.13-.38.51-.63.44-1.08-.19-.57-.75-.82-1.26-.95-.63.19-1.01.7-1.13,1.27.19.44.5.83.94,1.02"/>
  <path class="cls-1" d="M239.1,79.08c-.19.57.25.95.63,1.33.63.32,1.14-.13,1.51-.64,0-.25.06-.57-.07-.82-.5-.82-1.57-.57-2.08.13"/>
  <path class="cls-1" d="M117.17,78.7c-.57.32-.5.89-.5,1.46.32.25.5.76,1.07.7.57-.06.76-.51.88-.95,0-.83-.69-1.46-1.45-1.21"/>
  <path class="cls-1" d="M110.24,80.54c.31.57.94,1.14,1.7.89.38-.32.82-.76.63-1.4-.32-.32-.63-.95-1.2-.95-.63.19-1.07.89-1.13,1.46"/>
  <path class="cls-1" d="M244.65,81.43c.63-.25.82-.89.69-1.52-.31-.44-.69-.7-1.26-.7-.76.13-.82.82-1.13,1.33.32.51.95,1.14,1.7.89"/>
  <path class="cls-1" d="M115.21,81.11c.13-.32.51-.51.32-.95-.19-.51-.57-.95-1.2-.89-.44.25-.88.57-.82,1.21.06.44.57.57.82.89.38.13.57-.25.88-.25"/>
  <path class="cls-1" d="M279.74,80.03c-.13.32-.26.89.06,1.14.38.19.69.63,1.2.51.51-.25.88-.51,1.07-1.02,0-1.21-1.7-1.71-2.33-.64"/>
  <path class="cls-1" d="M284.6,80.54c-.44.76.19,1.21.76,1.46.63-.06,1.32-.38,1.51-1.08-.19-.63-.75-1.21-1.51-.95-.38.06-.51.32-.76.57"/>
  <path class="cls-1" d="M255.68,80.67c-.7.32-1.01.95-.88,1.65.38.25.76.44,1.2.51.51-.38,1.26-.63.94-1.46-.38-.44-.69-.7-1.26-.7"/>
  <path class="cls-1" d="M237.65,82.19c-.13.57.19.95.63,1.21.57.38,1.07-.25,1.45-.51.06-.19.19-.64-.12-.76-.31-.7-1.64-.64-1.95.06"/>
  <path class="cls-1" d="M242,81.94c-.31.06-.63.26-.82.51-.19.32-.06.7.06.95.44.13.94.63,1.39.19.44-.25.57-.51.5-1.02-.19-.51-.69-.51-1.14-.64"/>
  <path class="cls-1" d="M136.07,83.84c.06-.38.5-.83.13-1.21-.38-.32-.7-.57-1.26-.64-.5,0-.5.44-.88.57-.13.51-.19,1.33.44,1.59.57.38,1.26.06,1.58-.32"/>
  <path class="cls-1" d="M262.73,83.91c.44-.13,1.07-.38.95-1.01-.44-.51-1.01-1.14-1.89-.76-.13.32-.5.57-.5.95.31.51.69,1.08,1.45.83"/>
  <path class="cls-1" d="M258.89,82.13c-.45.13-.63.51-1.01.82,0,.38,0,.76.32.95.38.38.94.44,1.39.25.25-.32.95-.63.69-1.27-.25-.45-.82-.76-1.38-.76"/>
  <path class="cls-1" d="M288.69,83.65l-.19-.19c-2.71-.13-5.48-2.22-8.19-.51-.51.32-1.45,0-1.64.82,2.52.95,5.92,2.16,8.57.57.44-.26,1.57.19,1.45-.7"/>
  <path class="cls-1" d="M107.84,84.79c2.77.89,5.8-.06,8.13-1.46l.25-.44-.19-.19c-3.03-.44-6.11,0-8.44,1.71l.25.38"/>
  <path class="cls-1" d="M270.1,83.33c-.25-.64-1.01-.7-1.45-.7-.5.19-1.01.7-.82,1.21.19.7,1.01.89,1.64.7.38-.25.63-.7.63-1.21"/>
  <path class="cls-1" d="M126.75,84.86c.63-.25.5-.76.75-1.27-.38-.57-.94-1.14-1.7-.76-.32.32-.82.51-.63,1.21.19.51.94,1.08,1.58.83"/>
  <path class="cls-1" d="M121.46,85.11c.38.13.94.19,1.26-.19.13-.32.5-.57.32-1.01-.13-.64-.69-.89-1.26-1.02-.44.19-.63.38-1.01.7-.19.7.26,1.14.7,1.52"/>
  <path class="cls-1" d="M274.52,85.36c-.12-.51-.57-.95-1.14-1.01-.25.13-.69.13-.82.32-.38.32-.44.82-.25,1.21.25.32.69.7,1.2.63.5-.13.95-.57,1.01-1.14"/>
  <path class="cls-1" d="M116.67,88.47c.5-.95,1.2-1.65,1.38-2.73.06-.38.51-.57.32-1.08l-.19-.13c-2.58,1.14-4.54,2.98-6.36,5.33l.25.51c1.7-.44,3.4-.44,4.6-1.9"/>
  <path class="cls-1" d="M270.42,87.27c.44-.31,1.07-.44.94-1.2-.19-.51-.76-.95-1.39-.82-.38.32-1.01.57-.82,1.27.25.44.69.76,1.26.76"/>
  <path class="cls-1" d="M124.1,85.49c-.63.19-.88.89-.63,1.46.38.44.82.63,1.39.63.38-.32.89-.51.95-1.2-.13-.07-.25-.19-.19-.32-.19-.57-.94-.63-1.51-.57"/>
  <path class="cls-1" d="M285.1,89.17c.5-.32,1.07-.7.82-1.46-.32-.45-.88-.82-1.51-.7-.7.13-.82.89-1.45.95-1.01-1.14-2.52-2.6-4.35-2.48-.69.51.5.95.76,1.52.76,1.9,2.71,3.17,4.54,3.93.19.13.63.19.75-.06-.06-.51-.44-.95-.88-1.27-.06-.82.88-.13,1.33-.44"/>
  <path class="cls-1" d="M288.94,87.21c.25-.32.38-.89.06-1.21-.44-.32-.88-.57-1.45-.44-.44.19-.7.44-.95.82-.13.51.19.82.5,1.14.57.06,1.51.32,1.83-.32"/>
  <path class="cls-1" d="M260.59,86c-.06.44.44.76.63,1.02.82,2.54,3.6,3.87,5.74,5.08.12,0,.44.06.57-.13-.25-.76-.82-1.84-1.38-2.54-.25-.7-.76-1.01-1.2-1.65-1.13-.89-2.71-2.09-4.35-1.78"/>
  <path class="cls-1" d="M120.07,87.78c.38.38.76.63,1.45.51.32-.25.82-.7.57-1.27-.32-.32-.63-.83-1.13-.76-.51.25-1.33.83-.88,1.52"/>
  <path class="cls-1" d="M271.87,88.03c-.38.32-.06.83.06,1.14.44.44.95.25,1.45.19.19-.25.69-.51.63-.89-.44-.63-1.45-1.33-2.14-.44"/>
  <path class="cls-1" d="M288.82,90.95c.5-.32,1.07-.83.88-1.59-.25-.32-.51-.44-.76-.63-.63-.26-1.2.06-1.64.44-.06.44-.31.82,0,1.2.38.32.88.76,1.51.57"/>
  <path class="cls-1" d="M246.1,98.12c-3.03-.89-6.3-.19-8.57,1.71v.38c2.33.06,4.66.06,6.62-.95.57-.57,1.95-.38,1.95-1.14"/>
  <path class="cls-1" d="M153.21,101.93c.57-.19.88-.51.95-1.08-.13-.44-.63-.89-1.2-.95-.44.32-1.07.64-.82,1.4.19.38.63.64,1.07.64"/>
  <path class="cls-1" d="M242.69,102.57c.44.25.82.57,1.39.44.63-.25.82-.89.95-1.46-.44-1.14-2.08-1.14-2.52,0,.06.32-.13.76.19,1.02"/>
  <path class="cls-1" d="M257.56,101.42c-3.28-.25-7.06-.25-9.14,2.29l.32.25,3.4.06c2.08,0,3.84-1.21,5.42-2.22v-.38"/>
  <path class="cls-1" d="M135.25,102.5c-.5.32-.76.89-.5,1.46.25.45.69.7,1.32.57.57-.19.82-.63.82-1.21-.25-.51-.95-1.27-1.64-.83"/>
  <path class="cls-1" d="M138.97,103.14c-.19.25-.57.19-.76.57-.19.38-.07.82.38,1.08.32.32.82.19,1.2,0,.13-.32.44-.51.25-.83-.19-.44-.63-.64-1.07-.83"/>
  <path class="cls-1" d="M113.58,109.8c.69.38,1.7,1.33,2.33.57-1.45-1.9-1.96-3.94-4.1-5.14-.44-.19-.95-.44-1.32-.7-.44.13-1.01-.7-1.26.06,2.21,1.46,2.14,3.93,4.35,5.2"/>
  <path class="cls-1" d="M276.47,115.26v-.13l-.06.06c-.69-.89-2.21-.06-3.03-.7-4.35-.44-8.51-1.58-12.41-3.11.06-.19.32-.13.5-.13.63-.32,1.07-.89,1.01-1.59-.31-.44-.82-.7-1.45-.7-.38.19-.88.63-.95,1.08.06.51.5,1.08.95,1.21-.13.13-.38.07-.57.07-1.95-.89-3.84-1.72-5.74-2.6-.69-.13-1.26-.7-1.95-.83-1.45-.7-2.9-1.4-4.35-1.97-4.03-2.09-8.51-3.24-12.79-4.76-.95-.26-1.83-.51-2.71-.76-1.57-.44-3.15-.83-4.73-1.27-5.36-1.33-12.54-1.46-17.2,1.46-.76-.25-1.2.95-1.58.19,1.32-3.49,5.17-4.63,8.63-4.76,25.27-.25,48.96-.44,73.85-.83,2.9,0,5.74-1.02,7.25-3.62,1.07-1.52,1.26-4.13.44-5.84-1.01-1.84-2.71-2.6-4.73-2.6-1.64.13-2.84,1.21-3.53,2.6-.38,1.4.13,2.66,1.2,3.49.44.19,1.01.13,1.26-.32.32-.82-.57-.82-.69-1.46-.26-.89.06-1.65.69-2.22.63-.63,1.7-.32,2.46-.32.76.51,1.51.95,1.89,1.84.38,1.08.38,2.28,0,3.36-.69,1.59-2.27,2.86-3.9,3.17-5.23.76-62.64.51-62.64.51-6.74.63-14.43-1.27-20.23,2.28-2.65,1.27-3.97,4.19-4.66,6.79-1.7,1.53-3.53,3.3-4.92,5.01l-.19-.19c.32-1.53,1.01-2.86,1.32-4.38.95-1.27.95-2.98,1.64-4.38,2.39-3.87,4.66-7.81,8.38-10.53,1.58-2.1,4.35-1.71,6.74-1.71,2.58,1.2,5.61,1.59,8.76,1.27.13-.13.19-.25.19-.44-.88-.82-2.33-1.14-3.34-1.97-2.52-1.21-4.92.38-7.56.19-.13-.13-.25-.19-.19-.38,2.4-1.78,5.1-3.05,7.82-4.19,2.21-1.21,4.54-1.84,6.87-2.73.95,0,1.83-.82,2.71-.25-1.89,3.68-3.59,7.62-6.49,10.73-.95,0-1.51,1.01-2.46,1.08-.51.7-1.51.19-2.14.44-1.96.83-4.73.32-6.05,2.16.13.19.31.25.5.32,3.84.06,8.13.32,12.22.13.51-.19.95-.64,1.01-1.21-.57-1.08.19-2.03.69-2.86.31-1.52,1.32-2.47,1.77-3.93,1.32-2.6,2.83-5.14,4.28-7.74.13.07.25.25.51.19,2.83-.95,6.43-.06,9.64-.13l.44.38c.31,3.05-.25,6.16-.57,9.2-1.07,3.68-5.29,3.3-8.32,4.12-.75.51-2.2.25-2.2,1.52,3.65.76,7.94.32,11.84.25.63-.25.76-.83,1.07-1.4.13-.82.95-1.52.69-2.41-.69-.89-.06-2.28-.25-3.49.13-.32.13-.76,0-1.21.5-1.84.38-4.06.76-5.84,1.13.13,1.64,1.46,2.83,1.52.63-.89-.69-1.27-1.01-1.84,1.39-.32,2.96.06,4.22.64l-.63.7c-.38.7.19,1.21.76,1.46.44.13.75-.19,1.07-.32.82-.57-.06-1.14.19-1.65,4.67.82,9.14,1.97,13.42,3.81,1.19.38,2.33,1.27,3.65,1.2-1.32-1.2-3.15-1.84-4.79-2.54-1.07-.64-2.58-.7-3.4-1.59.19-.32.63-.19.82-.44,2.14-.25,3.97-1.84,5.48-3.55.13-.38.82-.26.76-.76-.57-.64-1.52.19-2.27.13-2.65.51-3.78,3.62-6.43,4.19-3.21-.76-6.49-1.52-9.71-2.35-1.58-.26-3.27-.38-4.72-1.02,0-1.2.31-2.35.44-3.49.19-.38.31-.83.25-1.33.19-.25.4-.46.62-.63l1.32-.61c1.54-.41,3.45-.1,5.05.03.95.51,2.14.44,3.15.7.44-.32,1.07-.38,1.58-.32,2.02-1.08.69-3.43.82-5.27,1.77-1.59,3.34-3.37,4.79-5.21.06-.51-.25-1.01-.7-1.21-.44-.19-.94-.13-1.26.25-.76.57,0,1.27,0,1.97-.76,1.01-1.95,1.9-2.9,2.47-.02,0-.22.07-.54.2l-.15-.39c-.19-.38-.38-.82-.51-1.27-.38-.44-.63-1.27-1.01-1.71-1.07-2.79-3.15-4.38-4.92-6.6-3.21-4.19-8.25-6.54-13.3-8.19-4.98-1.71-10.02.51-14.49,2.09-1.38-.38-2.08-1.46-2.46-2.67-.25-2.41.25-4.76,1.2-6.73.19-1.59,1.26-2.79,1.7-4.25,1.13-3.55,2.33-7.04,2.58-10.91.13-2.35-1.64-4-3.4-5.01-1.2-.32-2.58-.25-3.47.7-.82,1.71-2.58,2.86-4.09,3.68-.13,1.08,1.2.38,1.64.76,1.39.25,2.96-.19,4.1.7.13,2.54-1.32,4.63-2.65,6.54-2.14,3.17-4.41,6.41-5.73,9.9l-.05-.05v-3.29s0,0,0,0v-.02h-29.88c-1.51-.51-2.7-2.09-4.34-2.09-3.53-1.4-5.86,2.29-9.46,1.84-.44.26-.31.7-.56,1.02-.19.19-.51.06-.69-.07-.19-1.52-.69-2.92-.88-4.38-.38-.63-.19-1.52-.5-2.16-2.02-5.52,4.92-1.33,6.3-4.57,1.2-2.79-2.33-3.11-3.4-5.08v-.83c-1.01-1.01-2.08-1.33-2.71-2.66.44-1.59.63-3.3.19-4.89-.06-.38-.31-.89-.88-.7-1.2,1.65-2.08,2.98-3.22,4.57-1.2-.89-2.33-2.03-3.72-2.79-.94-.13-1.83-1.08-2.9-.7-.19.38,0,.7.19.95.06,2.48,1.32,4.44,3.09,6.22l.19.95c-1.13,2.6-.82,5.58-1.13,8.38-2.84,7.23-7.44,14.22-13.67,19.23-3.59,4.06-7.88,8-8.44,13.58-.19.89.13,1.97-.57,2.6-2.08-.76-4.16-1.78-5.86-3.11-2.9-2.03-7.06-1.78-8.95-5.46-.76-1.46.19-2.92.88-4,2.14-2.03,1.83-5.65.69-8.12-.25-.06-.32.25-.5.32-.19,3.75-3.15,6.35-2.02,10.47.25,1.2.88,1.97,1.2,3.11-.44-.13-1.07-.13-1.45-.32-1.39-.19-2.77-.76-4.22-.57-2.9,1.33-6.87-.32-9.2,2.35-.38.06-.88.13-.76.7,1.39,0,2.71.38,4.1.32,2.21.38,3.65-1.46,5.17-2.29h.38c.63-.64,1.71-.25,2.52-.38,3.97.45,7.06,2.35,10.33,4.32v.25c-1.26.57-2.71.95-3.97,1.65-1.45,1.08-3.09,2.48-3.53,4.25-1.01,1.59.31,2.98.94,4.32.06.63.12,1.4.69,1.65,2.01-2.16.12-4.82.44-7.3.5-1.9,2.27-2.79,4.1-3.3,3.59-1.52,6.18,1.39,9.07,3.05-.06,2.92.32,5.71-.31,8.57-.88.32-2.01.51-2.96.45-4.98.38-8.88,3.11-13.36,4.63-2.01.7-4.41.63-6.43,1.4,1.58.44,3.21-.13,4.85-.19,6.17-.89,10.9-5.65,17.58-4.82l.13.19c-.76,1.59-1.76,2.92-2.96,4.12-.19-.7-.25-1.27-.88-1.65-.51-.25-1.07,0-1.45.51-.19.32-.19.7,0,.95.31.57.82.7,1.38.89-.13.57-.82.83-1.2,1.33-1.76,2.98-5.36,1.78-7.44,3.87-.32.44-1.45.7-.94,1.4,2.39.25,4.73-.38,6.49-1.65,2.33-2.6,4.79-5.07,7.12-7.55.38,2.03-.19,4.13-1.38,5.77-.57-.32-1.01-.76-1.7-.95-.63.13-1.07.76-1.13,1.27.25.44.5.95.94,1.27-2.14,1.52-4.85,1.65-7.31,2.35-4.6.57-9.07.95-13.74,1.02-2.2-.13-4.73.64-6.8,0-2.4.44-4.98-.32-6.93,1.02-.25.32.06.64.06.95,2.9,1.9,6.87.38,10.15.95h24.83c1.83-.06,3.65-.13,5.1-.95,3.22-1.84,4.98-5.14,6.62-8.38.63-1.14,1.07-2.47,1.32-3.81.63-2.16,2.58-3.68,4.72-3.87.32,3.3-.31,6.6-1.07,9.65-.38,2.03-1.7,4-.88,6.16.19,1.02,1.26,1.02,2.08,1.14,7.62-.13,15.25-.44,23.32.13,1.45.25,2.71.7,4.28.63.12-.19.57-.25.38-.63-.19-.7-.69-1.59-1.51-1.78-.13-.38-.69-.25-.88-.51-4.03-2.28-8.88-1.08-13.61-1.01-2.46.25-4.91.7-7-.7-.94-1.14-.25-4.76-.25-4.76,0-.77.99-3.97,1.98-6.91,1.91.53,6.66,3.42,6.66,3.42,2.21.83,4.22,2.16,6.3,3.36,8.57,4.76,14.24,12.63,18.08,21.39.06.7.7,1.46.25,2.15-1.32-2.03-3.21-3.17-4.79-4.82-.44-2.98-2.21-5.84-4.79-7.04-.95-1.4-2.96-1.52-4.54-1.97l-22.94-.13c-18.65-.25-35.66.57-54.19.25-2.58-.25-5.74-1.14-6.49-3.87-.5-.95-.5-2.6,0-3.49.69-1.21,1.95-1.59,3.21-1.71,1.01.13,1.7,1.08,2.14,1.78,0,.82-.7,1.58-1.01,2.28.07.25.32.76.76.57.82-.32,1.45-1.2,1.64-2.03.06-.44.25-1.08-.19-1.4-.38-1.33-1.76-2.28-2.96-2.6-1.58-.13-3.21.32-4.29,1.46-1.51,1.27-1.45,3.55-1.01,5.33,1.01,2.79,3.97,4.7,6.81,5.08l61.31.25c5.99.32,12.73-.7,18.78.51,2.21.7,4.54,2.35,5.1,4.82-.07.12-.25.06-.44.06-4.98-3.24-11.53-4.44-17.9-3.68-2.52-.12-4.79.82-7.05,1.46-1.2.25-2.33-.32-3.09-1.01-2.27-2.03-6.24-1.9-9.14-1.14,0,.19-.06.38.06.44,3.09-.25,4.91,2.41,7.69,2.73.63.13,1.13-.57,1.7-.06-2.9,1.39-5.67,3.05-8.76,3.93-.95-.19-1.45-1.08-2.21-1.59-1.2-1.33-3.4-.76-5.04-.89-.57.13-1.07-.25-1.45,0,.5,1.02,1.64,1.59,2.71,2.1,1.57.7,3.4-.06,4.85.89-.38.45-.88.57-1.32.89-2.96,1.14-5.42,3.81-8.7,3.62-3.46.38-6.99-.63-9.32-3.05-1.01-2.48-3.59-3.81-6.36-3.68-.19.13-.44.13-.38.44,1.39.82,2.46,2.47,3.84,3.43.88,1.08,2.58,0,3.4,1.21,1.2.82,2.71,1.52,4.1,1.78,1.01.44,2.14.64,3.28.89l-.44.25c-5.73,1.9-12.35,2.1-18.78,1.84-1.89-.07-3.72-.64-5.61-.57.32.38.95.7,1.51.89-.5.32-1.07.44-1.7.51-.76.19-1.64.25-2.4.63-1.01-.06-1.89.32-2.71.64-1.07,1.14-2.33,2.35-3.59,2.92,0,.26-.07.64.25.64,1.2-.51,2.71-.13,3.91-.64,2.08-.19,3.28-2.47,4.92-3.43,1.76-1.4,4.28-1.08,6.43-.76,1.26.32-.13.82.25,1.65.5.44.94.95,1.64.76.13-.13.25-.26.44-.32.38-.51.31-1.08.06-1.59.88-.57,2.08.07,3.03-.32,2.39-.06,4.79-.57,7.12-.64.38-.06.82-.44,1.2-.06-.19.51-.82.57-.57,1.27.12.57.76.82,1.26.95.63-.25,1.2-.7.94-1.52-.12-.44-.63-.51-.94-.7,1.32-.64,2.83-.82,4.16-1.46.95-.19,1.83-.51,2.65-.89.82-.06,1.51-.82,2.27-.51-.32,1.08-.76,2.09-1.32,3.05-1.01,3.36-1.76,7.8,0,11.04.19.06.25-.06.38-.13-1.32-3.36-.57-7.23.57-10.41.88-5.39,6.43-6.98,10.4-9.01l.19.25c-1.07,2.79-2.65,5.46-2.39,8.82.13.57-.25,1.14,0,1.52,1.07-.57,1.76-1.84,2.33-2.92.44-2.85-1.19-6.41,1.7-8.5,5.17-2.03,10.02-4.69,16.01-4.76.19.19.63-.13.69.25-1.26,1.4-3.09,2.73-3.65,4.44-2.01,2.79-1.95,7.55-1.07,10.98.57,1.97-1.13,3.05-1.95,4.57-.39.54-.5,1.46-.86,2.08l1.24.14c1.07-1.14,2.08-2.54,2.14-4.19.13.63.69,1.14,1.2,1.27.44-.7-.38-1.21-.44-1.9,1.01-.57,1.45.7,2.27.95,1.32.32,2.46.89,3.84.89l.44-.44c-1.39-2.16-4.16-2.54-6.55-2.67-1.26-2.09-1.26-4.69-1.13-7.23.25-1.33.51-2.73,1.26-3.93.32-.89,1.2-1.72,1.76-2.41,1.14-1.08,2.59-1.84,3.97-2.16h.19c0,.13.06.19.06.19-1.7,1.33-1.89,3.17-2.9,4.82-1.07,1.59-1.58,3.75-.57,5.52.38.83.19,2.09,1.07,2.67.82-1.14.88-2.6,1.32-3.88-.19-2.09-1.45-4.06-.25-6.09.63-1.59,1.96-2.22,3.4-2.79,3.47-.32,6.49,1.46,9.51,2.79.63.44,1.7.83,1.83,1.71-.06,1.72-1.01,3.43-2.33,4.26-1.7,1.01-4.16,1.14-5.74-.07-.94-.95-1.32-2.6-1.01-3.87.69-.76,1.64-1.4,2.77-1.01.63.32,1.2.95,2.02.57.32-.19.44-.7.25-1.02-.69-.38-.94-1.33-1.89-1.46-1.2-.19-2.65-.13-3.46.7-1.32,1.14-1.83,2.85-1.45,4.44.44,2.03,1.95,3.49,3.9,4.06,2.9.7,5.93-.19,7.75-2.66.76-.83.94-1.71,1.39-2.73,3.03,1.84,5.29,5.08,6.49,8.38,0,1.08.31,2.22.06,3.17l2.2.19c-.19-.51,0-1.08.19-1.52.82-4.19,3.4-7.68,6.49-10.41,1.07-.63.82.83,1.07,1.27.94,2.41,3.15,4.12,5.48,4.83,2.64.44,5.17-.19,6.8-2.22.82-1.53,1.83-3.75.44-5.33-.88-1.08-2.08-1.65-3.46-1.65-1.64,0-2.65,1.14-3.47,2.35,0,.51-.07,1.08.38,1.33.25,0,.76.06.95-.32.13-.95.94-1.4,1.7-1.9.69-.38,1.45,0,2.01.38.69.57.82,1.52.88,2.48-.13,1.21-.94,2.47-2.08,2.98-1.83.95-4.48.51-6.05-.57-.76-.82-1.2-1.78-1.76-2.79-.13-1.01-.5-1.9,0-2.92,2.77-1.65,5.67-2.86,9.01-3.17,1.32.25,2.46,1.14,3.34,2.09,2.9,2.99-.63,7.24,1.38,10.53.76-.12.76-1.14,1.07-1.78.95-2.28-.25-4.76-.82-6.98-.76-1.4-1.2-2.6-2.4-3.75.32-.13.44-.13.76-.13,1.32.89,2.77,1.9,3.84,3.3,1.83,2.98,2.78,6.54,2.46,10.4-.5,1.91-2.52,2.79-4.1,3.49-.63.51-1.38,1.27-1.7,2.03.76.44,1.83,0,2.58-.32,1.2-.44,1.89-1.97,2.71-2.67.12.06.06.25.12.38.06.7-.31,1.65.32,1.84.32-.89.38-2.16.57-3.24.82.89.95,2.03,1.2,3.18.57,1.14,1.51,2.67,3.02,2.85.38-.57-.06-1.14-.19-1.65-.19-1.59-1.51-2.41-2.39-3.56-2.21-3.05-1.2-7.81-2.9-11.23-.63-1.84-1.96-3.18-3.4-4.7l.25-.25c3.09-.06,5.67.95,8.51,1.52,3.47,1.71,8.51,1.33,10.14,5.84.69,2.54,1.83,4.89,3.59,6.85l.19-.13c.38-.64.38-1.71,0-2.35-.38-3.17-3.15-3.93-4.6-6.6l.19-.25c1.51.44,3.09.83,4.6,1.46,5.04,1.4,8.57,6.35,9.2,11.49,0,4.06-.76,7.43-2.33,10.85-.19.51-1.07,1.08-.5,1.52.69-.5.82-1.33,1.2-1.9,2.08-3.49,3.15-8.31,2.08-12.76-.06-.82-1.01-1.46-.57-2.29.32.38.69.44,1.07.57.38-.25.95-.25,1.2-.7.06-.38.31-.82,0-1.14-.38-.57-1.2-.57-1.83-.44-.32.38-.69.89-.76,1.4-.63-1.08-1.26-2.47-2.27-3.36l.12-.19c2.84.95,5.42,2.35,8.32,3.11.63.38,1.32.7,2.21.7,2.46.95,5.17,1.33,7.75,1.96,1.89-.19,3.47.7,5.36.26M248.74,73.69l-.13,2.09h-6.43c-.06-.13-.25-.19-.19-.38,2.27-.57,4.22-1.9,6.49-2.48l.25.76ZM242.19,70.58c.5-.51.76-1.08,1.14-1.71.06-.63-.25-.89-.63-1.33.44-.44,1.14-.32,1.7-.44,1.58.95,3.21,2.48,3.53,4.19-2.52,1.08-5.04,2.29-7.69,2.86.44-1.08,1.19-2.41,1.95-3.55ZM219.87,55.56c2.01,3.34,4.52,7.15,8.27,8.41,2.01,1.65,4.54,3.62,7.24,2.16,1.45-.44,1.58,1.59,2.27,2.41.76,2.35-.95,4-1.07,6.16-.25.76-.88,1.21-1.58,1.46-1,.19-1.82.82-2.9.82-8.19,3.17-16.7,6.54-23.19,13.01.38-.76.57-1.71.63-2.67-.13-.95-.06-2.03-.69-2.79-.14-.34-.56-1.27-.46-1.68l7.89-5.01c2-.92,3.45-3.91,3.45-7.33l.02-20.69.11,5.73ZM218.53,70.97c-.23,2.54-1.09,4.65-2.85,5.85l-16.55,10.52h-.09c-.35.28-.79.45-1.27.45s-.94-.18-1.3-.47l-16.53-10.51c-1.76-1.2-2.62-3.31-2.85-5.85v-8.48c.12.15.29.21.51.02,1.64-1.08,1.13-3.49,1.13-5.14.38-1.97-1.01-2.92-1.57-4.63-.02-.02-.05-.05-.07-.07v-14.53h6.86c.51.21.94.59,1.53.65l.47-.65h32.59v32.83ZM173.38,46.84c.38-1.46.76-2.79,2.14-3.62.2.14.29.29.31.45h.02s0,6.92,0,6.92c-.6-1.23-3.12-2.18-2.48-3.75ZM185.48,88.79c-6.47-4.87-13.63-9.23-20.92-12.65.65-1.89,1.22-3.42,1.38-3.73.13-.95.5-1.84.38-2.92.5-1.27.38-2.92.38-4.31.25-2.03,1.26-3.94,1.95-5.9.38-.95.69-1.97,1.07-2.92.38-1.21.51-2.35,1.26-3.3,1.95,1.24,3.85,1.29,4.88,3.28v14.18c.01,3.42,1.47,6.41,3.47,7.33l6.84,4.34c.09,2.19-1.32,4.14-.69,6.47v.13ZM195.18,102.06c-2.08-4.44-4.79-8-8.07-11.61-.13-.57-.7-1.08-.38-1.71,1.2-1.14,1.45-3.36.82-4.82-.12-.32-.5-.7-.44-1.01l-.54-.43,9.64,6.12c.37.42.92.69,1.54.69.53,0,1.01-.21,1.37-.54l3.25-2.06c-2.38,3.55,1.49,8.73-1.54,12.08v.25c-.88,1.14-1.32,2.29-2.52,3.05-1.51-.63-2.08-2.35-2.96-3.62-1.39-1.33-1.39-4.06-.57-5.9.57-1.84-.38-3.43-.57-5.08l-.63-.38c-1.51,1.97-2.08,5.08-.88,7.42.63,1.14.69,2.73,1.64,3.68.56,1.84,1.7,3.05,2.71,4.69.25.64-.38.76-.69,1.08-.69-.44-.57-1.46-1.2-1.9ZM199.4,109.17c-.25.76-.75,1.39-.69,2.22l-.25.13c.19-.95-.76-1.52-.51-2.54-.5-.76-.5-1.71-.94-2.54-.57-1.02.5-1.46.94-2.16.88.38,1.2,1.2,1.83,1.97.38,1.08-.44,1.9-.38,2.92ZM199.02,103.07c2.14-2.73,3.85-5.78,4.48-9.26.44-.32.12-1.14.57-1.52-.12-1.01.57-2.03.06-2.86.4-1.38-1.84-2.66-.41-3.55l-.3.15,4.02-2.55c-.56,1.41-1.04,3.89-.48,5.33.19,1.14,1.13,2.48.25,3.49-3.02,3.68-4.73,8.12-6.74,12.31-.76-.13-1.13-.82-1.45-1.52Z"/>
  <path class="cls-1" d="M267.77,105.17c-3.4-.76-6.87.51-9.14,2.98-.13.13-.06.32.13.44.31.06.57-.12.82-.19,3.15-.13,6.24-.7,8.44-2.67.13-.32-.25-.38-.25-.57"/>
  <path class="cls-1" d="M256.62,107.9c.69-.32,1.26-.82,1.01-1.71-.25-.89-1.45-.89-1.95-.38-.19.32-.63.57-.44,1.08.32.51.69.95,1.39,1.02"/>
  <path class="cls-1" d="M135.57,107.01c.12.38.38.89.82.95.32.07.88,0,1.14-.32.38-.32.44-.89.31-1.33-.38-.57-.95-.51-1.45-.51-.5.32-.82.63-.82,1.2"/>
  <path class="cls-1" d="M126.56,110.88v-.44c-2.39-1.71-4.29-4.25-7.44-4.25-.38.13,0,.38,0,.57,1.45.63,2.46,1.9,3.34,3.17,1.13.89,2.58,1.27,4.1.95"/>
  <path class="cls-1" d="M276.47,106.18c-2.46,1.02-4.6,3.62-5.61,6.03.38.44.76-.19,1.2-.19,2.58-.95,3.84-3.62,5.29-5.77-.25-.13-.63-.07-.88-.07"/>
  <path class="cls-1" d="M139.54,107.52c.32.38.57.76,1.07.7.44-.38.95-.51.88-1.21-.25-.45-.82-.83-1.33-.7-.31.32-.88.57-.63,1.2"/>
  <path class="cls-1" d="M285.29,107.39l-.32-.38c-2.02.83-3.27,2.99-4.16,4.89-.32.57-1.07,1.21-.76,1.84,2.01-.32,3.09-1.97,4.35-3.43.57-.89.32-2.1.88-2.92"/>
  <path class="cls-1" d="M105.07,108.08c-.25.51-.06,1.21.5,1.52.51.19,1.07.06,1.45-.25.38-.51.19-.95,0-1.4-.44-.76-1.57-.44-1.95.13"/>
  <path class="cls-1" d="M101.92,108.21c-.5.26-.69.76-.63,1.33.32.57.76.95,1.45.83.38-.06.69-.44.88-.76.06-.32-.12-.57-.19-.89-.32-.44-.95-.76-1.52-.51"/>
  <path class="cls-1" d="M108.47,109.86c.5.51,1.01,1.14,1.89.76.75-.13.63-1.02.5-1.52-.44-.51-1.01-.57-1.64-.51-.44.25-.76.7-.76,1.27"/>
  <path class="cls-1" d="M120,109.42c-.38.19-.63.38-.88.7-.38.44.32.76.44,1.14.31.07.88.19,1.19-.13.51-.13.38-.76.44-1.21-.25-.51-.82-.32-1.2-.51"/>
  <path class="cls-1" d="M288.94,110.69c.32.57.88.64,1.45.7.51,0,.76-.57.95-1.01-.13-.7-.95-.95-1.58-.95-.5.19-1.07.57-.82,1.26"/>
  <path class="cls-1" d="M279.81,110.69c-.38-.63-.82-1.08-1.64-1.01-.5.19-.95.57-1.07,1.14.32.7,1.07,1.33,1.95.95.25-.19.82-.57.76-1.08"/>
  <path class="cls-1" d="M285.79,110.05c-.38.38-.82.83-.25,1.33.38.38,1.01.44,1.51.25.32-.19.57-.64.57-1.08-.19-.76-1.26-.82-1.83-.51"/>
  <path class="cls-1" d="M103.87,111c-.51.19-.69.76-.63,1.33.19.57.82.89,1.39.89.63-.25.88-.89.75-1.59-.38-.44-.88-.83-1.51-.64"/>
  <path class="cls-1" d="M275.77,113.99c.69-.32,1.07-.95.88-1.65-.38-.7-1.64-1.08-2.14-.12-.51.32-.19,1.01.06,1.33.38.32.7.57,1.2.45"/>
  <path class="cls-1" d="M137.96,112.21c-.38.12-.5.38-.82.63-.19.57.19.95.51,1.33.19.25.69.19.94.06.19-.38.94-.51.69-1.2-.38-.38-.63-1.02-1.32-.83"/>
  <path class="cls-1" d="M290.2,113.48c-.19-.64-.88-.89-1.45-.89-.44.13-.5.45-.88.7,0,.57,0,1.08.57,1.4.44.13,1.07.06,1.45-.26.06-.32.44-.5.32-.95"/>
  <path class="cls-1" d="M288.57,119.13v-.5c-1.26-1.21-2.27-2.54-3.91-3.36.07-.38.44-.19.7-.25.5-.19,1.2-.57.95-1.33-.25-.38-.51-.7-.95-.88-.51-.13-.76.25-1.14.32-1.07.76.7,1.4-.12,2.28-1.13.07-2.65-.25-3.47.57.5.45,1.26.45,1.7.76,1.64,1.78,3.97,2.35,6.24,2.41"/>
  <path class="cls-1" d="M258.19,113.54c-.19.64.32,1.02.63,1.46.44.19,1.01.13,1.39-.25.06-.32.44-.7.31-1.01-.19-.95-1.83-1.14-2.33-.19"/>
  <path class="cls-1" d="M119.63,115.95c.06-.95-1.2-1.33-1.89-.76-.06.32-.38.57-.32,1.02.19.51.63.7,1.14.76.63-.06.88-.44,1.07-1.02"/>
  <path class="cls-1" d="M119.5,119.76c-.25.57-1.32,1.27-1.07,1.84,2.4-.19,4.1-2.09,5.04-4.19.32-.89,1.26-1.4,1.26-2.29h-.38c-1.83,1.33-3.85,2.47-4.85,4.63"/>
  <path class="cls-1" d="M256.68,115.45c-.25.51-.57,1.01-.06,1.52.31.25.76.7,1.32.51.5-.26,1.14-.76,1.07-1.46-.5-.7-1.57-1.33-2.33-.57"/>
  <path class="cls-1" d="M261.22,115.7c-.44.06-.57.57-.88.89,0,.51.38.89.82,1.14.19.06.5-.06.63.13.63-.19,1.07-.7,1.13-1.4-.19-.76-1.13-.82-1.7-.76"/>
  <path class="cls-1" d="M134.5,116.4c-.44-.38-.63-.95-1.39-.7-.31.32-.88.7-.76,1.27.25.45.63.83,1.2.76.5-.25,1.01-.63.94-1.33"/>
  <path class="cls-1" d="M136.51,116.97c.19.51.69.64,1.13.76.63-.13,1.01-.51,1.2-1.08-.13-.7-.82-.95-1.45-.95-.44.32-.94.63-.88,1.27"/>
  <path class="cls-1" d="M277.22,122.11c.13-.45-.44-.76-.75-1.02-.76-1.84-2.14-3.43-3.59-4.63-.51-.19-1.14-.89-1.7-.32.63,1.9,1.76,3.55,3.28,5.08.94.19,1.76,1.34,2.77.89"/>
  <path class="cls-1" d="M276.91,118.43c.56.13,1.38.26,1.76-.38.25-.44.32-.95.13-1.4-.44-.19-.76-.57-1.2-.51-.44.19-1.01.32-1.2.82-.38.57.19,1.08.51,1.46"/>
  <path class="cls-1" d="M143.45,117.86c-.38.38-1.07.51-.76,1.27.19.7.94.89,1.51.76.63-.32.5-1.08.44-1.59-.38-.32-.69-.57-1.19-.44"/>
  <path class="cls-1" d="M262.73,122.43l-1.76-1.9c-.63-.19-1.07-1.33-1.7-.76-.07.25,0,.51.25.63,1.07,2.86,1.7,5.71,4.54,7.74h.25c.38-.32-.13-.76.06-1.21-.12-1.65-.75-3.24-1.64-4.51"/>
  <path class="cls-1" d="M149.81,119.76c-1.95-.25-3.72.64-5.55,1.21-.25.07-.38.38-.31.57,2.9,1.72,6.43.64,8.94-1.14-.06,0-.12-.06-.06-.13l-3.02-.51"/>
  <path class="cls-1" d="M130.28,125.67c.63.38.94-.32,1.45-.51,2.65-.63,4.6-3.24,6.74-4.57v-.51c-3.34.32-7.06,2.16-8.19,5.58"/>
  <path class="cls-1" d="M259.01,123.45c-.31-.51-.76-.51-1.32-.63-.32.19-.76.25-.94.7,0,.45,0,1.02.57,1.27.25.32.88.32,1.2,0,.5-.13.69-.82.5-1.33"/>
  <path class="cls-1" d="M253.78,123.76c-.19-.26-.63-.19-.82-.06-2.21-.57-4.35-.13-6.43.32-.31.32-.94.13-1.01.64,1.89.51,3.85,1.52,5.99.76.82-.25,1.89-.76,2.27-1.65"/>
  <path class="cls-1" d="M137.71,126.62c.51-.19.57-.76.76-1.02-.13-.63-.63-1.02-1.26-1.08-.38.13-.88.25-1.01.7-.32.44.13.76.25,1.14.38.25.82.44,1.26.25"/>
  <path class="cls-1" d="M140.74,125.1c-.32.19-.76.25-.88.57-.19.44,0,.89.19,1.27.38.32.76.57,1.26.44.5-.25.69-.82.88-1.2-.25-.51-.82-1.14-1.45-1.08"/>
  <path class="cls-1" d="M255.68,126.11c-.19.44-.82.76-.44,1.27.19.32.32.83.76.89.44.25,1.07.19,1.39-.25.25-.38.5-.7.44-1.21-.31-.95-1.45-1.27-2.14-.7"/>
  <path class="cls-1" d="M259.33,128.4c.76.32,1.01-.51,1.39-.83.13-.25-.06-.57-.13-.89-.32-.19-.69-.7-1.26-.51-.82.13-1.01,1.08-.75,1.71.19.13.38.63.75.51"/>
  <path class="cls-1" d="M138.22,127.7c-.76.38-.82,1.21-.76,1.84.25.83,1.14.83,1.83.7.5-.38.76-1.01.63-1.71-.32-.76-1.07-.89-1.7-.82"/>
  <path class="cls-1" d="M138.22,133.41v.32c1.01.63,2.01-.32,3.02-.51,1.76-1.01,2.14-3.17,2.27-4.95-1.57,1.77-3.97,3.24-5.29,5.14"/>
  <path class="cls-1" d="M246.54,128.84c-.31.13-.69.32-.82.7-.19.44-.12,1.08.32,1.27.44.19,1.13.38,1.51-.06.19-.32.63-.63.38-1.02-.31-.44-.82-.95-1.39-.89"/>
  <path class="cls-1" d="M150.69,137.66c-.5-1.59,0-3.56-.88-5.02.06-.38-.44-.38-.32-.82-.76-.83-1.45-2.03-2.39-2.67-.13-.06-.32-.06-.44.13.63,2.22.44,4.76,1.83,6.67.69.63,1.13,1.84,2.21,1.71"/>
  <path class="cls-1" d="M249.62,129.48c-.31.31-.82.51-.63,1.14.38.32.76.51,1.2.57.31-.32.88-.44.88-.95-.19-.7-.82-1.01-1.45-.76"/>
  <path class="cls-1" d="M254.54,130.3c-.25,2.54,1.58,4.38,3.4,6.03h.25c.32.13.38-.25.38-.44-.06-2.6-1.95-4.19-3.66-5.65l-.38.06"/>
  <path class="cls-1" d="M252.33,132.96c-.32.32-1.01.63-.95,1.27.13.95,1.2,1.02,1.89.83.32-.32.63-.7.57-1.21-.25-.57-.76-1.08-1.51-.89"/>
  <path class="cls-1" d="M244.77,140.52c1.64-1.78,4.03-2.98,4.91-5.33-.19-.51.82-1.2-.19-1.33-2.33.95-4.22,3.3-4.85,5.71-.06.25-.19.76.13.95"/>
  <path class="cls-1" d="M252.15,137.53c.38.51.88.64,1.38.7.32-.32.88-.57.88-1.14-.25-.51-.82-.83-1.45-.7-.38.32-.88.51-.82,1.14"/>
  <path class="cls-1" d="M188.84,25.01h18.69c.86,0,1.56-.7,1.56-1.57s-.69-1.57-1.56-1.57h-18.69c-.86,0-1.56.7-1.56,1.57s.7,1.57,1.56,1.57M206.91,22.37h.7c1.31,0,1.23,2.22,0,2.22-.98,0-2.53-2.22-.71-2.22ZM199.26,22.37h1.82c.98,0,2.71,2.22.88,2.22h-1.82c-.98,0-2.71-2.22-.88-2.22ZM191.6,22.37h1.82c.98,0,2.71,2.22.88,2.22h-1.83c-.98,0-2.71-2.22-.88-2.22Z"/>
  <path class="cls-1" d="M209.59,51.11c.82,0,1.93.55,1.93-.27,0-1.17-1.11-.76-1.93-.76s-1.93-.41-1.93.76c0,.83,1.11.27,1.93.27"/>
  <path class="cls-1" d="M207.34,53.56l-1.45,5.67,3.57-1.37,3.51,1.37-1.08-5.67,2.47.67-.95-3.06.95-3.18-2.78.58,1.39-5.26-3.51,1.37-3.57-1.37,1.33,5.26-2.72-.45.76,3.06-.76,3.19,2.85-.8M209.44,48.69c.88,2.04,2.59-.13,2.59,2.04,0,.95-.07,2.06-.87,2.06h-2.86c-1.26,0-1.26-.85-1.26-2.12,0-1.85,1.76-.26,2.4-1.98Z"/>
  <polyline class="cls-1" points="198.79 49.77 199.08 49.23 198.46 49.29 198.09 48.65 197.72 49.3 197.11 49.23 197.4 49.77 196.93 50.26 197.53 50.37 197.53 51.04 198.09 50.61 198.66 51.04 198.66 50.37 199.25 50.26 198.79 49.77"/>
  <polyline class="cls-1" points="194.76 53.94 194.76 54.61 195.32 54.18 195.89 54.61 195.89 53.94 196.49 53.83 196.02 53.34 196.31 52.8 195.69 52.86 195.32 52.22 194.95 52.87 194.34 52.8 194.63 53.34 194.16 53.83 194.76 53.94"/>
  <polyline class="cls-1" points="199.33 52.88 198.86 53.37 199.46 53.49 199.46 54.15 200.03 53.73 200.59 54.15 200.59 53.49 201.19 53.37 200.72 52.88 201.01 52.35 200.39 52.4 200.03 51.76 199.65 52.41 199.04 52.35 199.33 52.88"/>
  <polyline class="cls-1" points="200.89 55.8 200.54 55.83 200.33 55.47 200.12 55.83 199.78 55.8 199.94 56.1 199.68 56.38 200.02 56.44 200.02 56.82 200.33 56.58 200.65 56.82 200.65 56.44 200.99 56.38 200.73 56.1 200.89 55.8"/>
  <polyline class="cls-1" points="198.3 56.77 197.24 56.87 196.62 55.77 195.98 56.88 194.93 56.77 195.43 57.69 194.62 58.53 195.65 58.72 195.65 59.87 196.62 59.14 197.58 59.87 197.58 58.72 198.61 58.53 197.8 57.69 198.3 56.77"/>
  <g class="cls-4">
    <polyline class="cls-1" points="193.87 13.31 193.52 19.2 197.87 15.25 202.22 19.2 201.87 13.31 207.65 12.35 202.86 8.95 205.71 3.8 200.09 5.46 197.87 0 195.65 5.46 190.03 3.8 192.88 8.95 188.1 12.35 193.87 13.31"/>
  </g>
  <path class="cls-1" d="M170.23,125.17l.83,3.5c.27,1.13.68,1.42,1.31,1.69.96.4,2.15.18,2.69.05.75-.18,1.79-.64,2.28-1.36.41-.6.37-1.57.22-2.19l-.79-3.34c-.16-.69.1-.88.76-1.13l-.06-.26-2.75.66.06.26c1.08-.22,1.32.1,1.47.74l.76,3.2c.16.67.51,2.28-1.68,2.81-1.8.43-2.14-1.01-2.29-1.61l-.83-3.5c-.22-.92.17-1.03.99-1.26l-.06-.26-4.22,1.01.06.26c.71-.11,1.04-.16,1.25.72"/>
  <path class="cls-1" d="M181.23,125.82l.91.15c.89.14,1.54.27,1.69.97.03.14.2,1.19-1.31,1.53-1.59.36-2.58-.67-3.07-1.68l-.36.08.57,2.6.37-.08c.01-.18.03-.38.3-.44.39-.09,1.03.15,2.22-.12,2.31-.51,2.83-1.97,2.63-2.89-.25-1.15-1.34-1.55-1.81-1.63l-2.01-.36c-1.15-.21-1.44-.38-1.57-.95-.15-.68.47-1.16,1.12-1.3,1.48-.33,2.5.71,2.89,1.4l.35-.08-.5-2.28-.38.08c-.02.21-.05.39-.34.45-.36.08-1.03-.14-2.03.09-2.38.53-2.46,2.05-2.32,2.69.11.49.31,1.39,2.64,1.77"/>
  <path class="cls-1" d="M185.84,122.71c.09-1.75,1.41-1.93,2.3-2.06l.54,5.66c.09.9-.22.95-1.15,1.11l.03.27,4.57-.44-.02-.27c-.95.04-1.26.04-1.35-.87l-.54-5.66c.89-.04,2.21-.12,2.63,1.58l.37-.04-.23-2.16-7.68.74.17,2.16.37-.04"/>
  <path class="cls-1" d="M198.3,126.89c-.85-.11-1.13-.15-1.11-1.01l.04-2.11h.35s2.59,3.43,2.59,3.43l2.4.05,2.59.32.03-.27c-.43-.07-1.04-.18-.99-.59.02-.17.28-.58.73-1.31l2.87.36c.13.36.45,1.21.41,1.49-.04.35-.28.33-1.07.29l-.03.27,4.13.52.03-.27c-.61-.05-.77-.44-1.21-1.66l-2.15-5.99-.36-.04-3.56,5.51c-.45.71-.69,1.04-1.31,1.08-.13-.01-.27-.05-.41-.2l-2.52-3.12c.7-.17,2.03-.48,2.05-1.81.04-1.81-2.68-1.95-3.58-1.97l-4.14-.08v.27c.72.06,1.12.09,1.1,1.02l-.09,4.77c-.02.87-.27.9-1.15.97v.27s4.34.08,4.34.08v-.27M206.7,122.56l.97,2.76-2.49-.31,1.52-2.45ZM197.29,120.67c.07-.33.1-.45.8-.44,1.03.02,1.55.5,1.52,1.58-.03,1.4-.7,1.63-2.38,1.6l.05-2.75Z"/>
  <path class="cls-1" d="M219.68,127.54l-.37-.07c-.8,1.09-1.67,1.84-3.58,1.49-.85-.15-1.11-.29-1.02-.8l.91-5.01c.17-.94.56-.87,1.45-.74l.05-.26-4.41-.81-.05.26c.56.14,1.07.25.95.95l-.93,5.14c-.12.65-.5.61-1.23.56l-.05.26,7.31,1.34.96-2.31"/>
  <path class="cls-1" d="M219.17,130.02l4.4.93.05-.27c-.68-.19-1.18-.32-1.04-1l1.06-5.11c.15-.72.75-.6,1.35-.5l.06-.27-4.4-.92-.06.26c.57.16,1.16.3,1.02,1l-1.06,5.11c-.14.66-.64.59-1.32.5l-.06.26"/>
  <path class="cls-1" d="M223.84,130.92l-.03.27,2.6.27.02-.27c-.43-.07-1.04-.16-1-.57.02-.17.27-.59.71-1.32l2.88.3c.14.36.47,1.2.44,1.49-.04.35-.27.34-1.07.31l-.03.27,4.15.43.02-.27c-.61-.04-.78-.43-1.24-1.64l-2.28-5.94-.36-.03-3.44,5.58c-.47.77-.68,1.11-1.38,1.13M227.84,126.41l1.03,2.74-2.49-.26,1.47-2.48Z"/>
  <path class="cls-1" d="M195.62,46.44v.76c0,.2.16.36.35.36h2.75c.2,0,.36-.16.36-.36v-.83c.33-.28.56-.73.56-1.32,0-2.59-1.45-.17-2.26-2.37-.59,1.86-2.34.29-2.34,2.3,0,.77.2,1.21.57,1.45M197.24,44.18c.76,0,1.93-.28,1.93.99,0,.9-1.02.38-1.77.38s-1.78.52-1.78-.38c0-1.27.86-.99,1.62-.99Z"/>
  <path class="cls-1" d="M222.19,76.85c.66,0,1.19-.47,1.19-1.05s-.53-1.05-1.19-1.05-1.19.47-1.19,1.05.53,1.05,1.19,1.05"/>
  <path class="cls-1" d="M216.61,40.2c.31,0,.56-.28.56-.62,0-.02-.57-1.11-.57-1.11,0,0-.56.94-.56,1.11,0,.34.25.62.57.62"/>
  <path class="cls-1" d="M177.99,39.58c0,.34.25.62.57.62s.57-.28.57-.62c0-.02-.57-1.11-.57-1.11,0,0-.56.94-.56,1.11"/>
  <path class="cls-1" d="M188.07,40.2c.31,0,.56-.28.56-.62,0-.02-.57-1.11-.57-1.11,0,0-.56.94-.56,1.11,0,.34.25.62.57.62"/>
  <path class="cls-1" d="M197.58,40.2c.31,0,.57-.28.57-.62,0-.02-.57-1.11-.57-1.11,0,0-.56.94-.56,1.11,0,.34.25.62.56.62"/>
  <path class="cls-1" d="M207.1,40.2c.31,0,.56-.28.56-.62,0-.02-.57-1.11-.57-1.11,0,0-.56.94-.56,1.11,0,.34.25.62.56.62"/>
  <path class="cls-1" d="M177.99,52.65c0,.34.25.62.57.62s.57-.28.57-.62c0-.18-.56-1.11-.56-1.11,0,0-.57,1.1-.57,1.11"/>
  <path class="cls-1" d="M177.99,65.34c0,.34.25.62.57.62s.57-.28.57-.62c0-.17-.56-1.11-.56-1.11,0,0-.57,1.1-.57,1.11"/>
  <path class="cls-1" d="M179.51,75.39c0,.34.25.62.56.62s.57-.28.57-.62c0-.18-.56-1.11-.56-1.11,0,0-.57,1.1-.57,1.11"/>
  <path class="cls-1" d="M187.49,80.73c0,.34.25.62.57.62s.56-.28.56-.62c0-.18-.56-1.12-.56-1.12,0,0-.57,1.1-.57,1.12"/>
  <path class="cls-1" d="M216.54,52.65c0,.34.25.62.56.62s.57-.28.57-.62c0-.02-.57-1.11-.57-1.11,0,0-.55.94-.55,1.11"/>
  <path class="cls-1" d="M216.54,65.34c0,.34.25.62.56.62s.57-.28.57-.62c0-.02-.57-1.11-.57-1.11,0,0-.55.94-.55,1.11"/>
  <path class="cls-1" d="M215.01,75.39c0,.34.25.62.57.62s.57-.28.57-.62c0-.02-.57-1.11-.57-1.11,0,0-.56.94-.56,1.11"/>
  <path class="cls-1" d="M207.03,80.73c0,.34.25.62.56.62s.57-.28.57-.62c0-.02-.57-1.12-.57-1.12,0,0-.56.94-.56,1.12"/>
  <path class="cls-1" d="M197.31,86.39c0,.34.25.62.56.62s.57-.28.57-.62c0-.02-.57-1.11-.57-1.11,0,0-.56.94-.56,1.11"/>
  <path class="cls-1" d="M206.71,70.26c-.54,1.08-.54,2.59-1.8,3.2-.36.24-.36.6-.36.97l.3.24c.78-.42,2.27-.54,2.16-1.87.3-.54.6-1.15,1.13-1.57.6-.12,1.14.18,1.38.66-.18.9-.78,1.51-1.61,1.81-.12.12-.06.3-.06.48.24.42.9.24,1.26.18,1.02-.66,1.44-1.87,2.33-2.23.12.6-1.2.79-.36,1.39.54-.12,1.26.06,1.62-.66-.42-1.02,1.44-1.51.3-2.41,0-.9.96-1.27.9-2.23-.36-.96-1.5-.96-1.79-1.87.36-.24.9-.18,1.26,0,.12.18.42.24.8.11l.36-1.03c.03-.07-.41-.48-.68-.41-1.02.24-2.1.36-2.69,1.33,0,.66.48,1.27.96,1.57.36-.12.42.24.66.42.06.3-.12.54-.42.54-.72-.72-1.97.24-2.51-.67.24-.9.72-1.93-.06-2.77.06-.18.36-.36.18-.54-.3-.84-1.2-.18-1.74-.18-.9-.12-1.62.36-2.15,1.08.06.3.18.6.48.9.24-.06.36,0,.42.24l-.6.36c.18.18.18.42.24.66-.42.18-.84-.42-1.02-.72,0-.48.06-1.33-.6-1.45-.12,0-.52.18-.52.18-.15.18-.25.56-.25,1s.23,1.08.23,1.08c0,0,1.85,1.37,2.27,2.21"/>
  <path class="cls-1" d="M169.63,75.22c-.66,0-1.19.47-1.19,1.05s.53,1.05,1.19,1.05,1.19-.47,1.19-1.05-.53-1.05-1.19-1.05"/>
  <path class="cls-1" d="M106.75,112.24c0,.62.52,1.12,1.17,1.12s1.17-.5,1.17-1.12-.52-1.12-1.17-1.12-1.17.5-1.17,1.12"/>
  <path class="cls-1" d="M161.88,132.49l.03.27,2.59-.3-.03-.27c-.44.03-1.05.07-1.1-.34-.02-.17.13-.64.4-1.45l2.87-.33c.22.32.72,1.06.75,1.36.04.35-.19.39-.97.54l.03.27,4.14-.48-.03-.27c-.61.09-.86-.25-1.57-1.33l-3.49-5.31-.36.04-2.16,6.2c-.29.85-.43,1.24-1.11,1.4M164.82,127.22l1.59,2.45-2.49.29.9-2.74Z"/>
  <path class="cls-1" d="M169.03,120.78c-1.14-.19-2.08.64-3.15.32l-2.08.49c-.2.03-.43.02-.7-.04-1.01-2.6,2.02-4.19,1.07-6.73-.82-1.46-2.46-2.86-4.35-2.6-2.14-.25-4.03.95-5.04,2.6-1.45,3.17.38,6.47.95,9.58-.13,1.01,1.01,2.16,0,2.98-2.02-1.4-4.66-2.16-7.12-1.46-.75.38-2.14-.13-2.52.76,2.71,1.46,6.17,1.27,9.2,1.14.38-.13.63-.19.95.06.25,1.65-.32,3.87.69,5.33,1.13,1.52,3.03,1.9,4.85,2.1,5.8-.19,10.96-1.9,16.26-3.24.82-.07,1.45-.51,2.33-.51,2.84-.63,5.92-1.14,8.95-1.2-1.32,1.71-2.08,3.61-2.65,5.71-.76,1.71,1.32,1.97,1.95,2.92-1.95.57-3.34,1.9-5.17,2.67-4.03-.13-7.44,1.4-11.22,1.84-.06.83,1.32.57,1.45,1.4-.19.57-.76.63-1.2.95-.06.38,0,.44.38.51.38-.44,1.2-.13,1.57-.57,1.26,0,2.33-.38,3.53-.44,1.07-.44,2.27-.51,3.21-1.27,1.32-.38,2.14-1.27,3.47-1.65,1.89,0,3.59-.63,5.35-.76v.38c-1.45,2.34-2.96,4.76-4.47,6.98-.25.44.06.89.44,1.02.88.25,1.76,0,2.46-.38,1.32-2.29,2.52-4.44,3.59-6.79.44-2.16,2.02-3.3,3.59-4.76.25-.13.63-.51.88-.13-1.26,1.46-2.08,2.86-3.02,4.44-.5,1.78-.63,4.06.95,5.52.76.64,1.89.45,2.9.51,2.46-1.27,5.61.76,7.5-1.65,1.13-.19,1.32,1.14,1.95,1.78,1.07.32,2.21,1.4,3.28.64-.06-.7-.82-1.33-1.2-1.97-.76-1.33-1.7-2.41-2.39-3.62-.32-.89-.88-1.46-1.01-2.35,1.14.38,2.14,1.14,3.4,1.33,1.07.45,2.4.38,3.4,1.01.82,1.08,2.08,1.71,3.15,2.41,1.57.76,3.34.89,4.98,1.52.63.06,1.58.57,2.02,0-.25-.32-.57-.51-.94-.7-.19-.82,1.13-.38,1.58-1.02-.15-.31-.43-.44-.73-.48-.9-.48-3.15-.65-3.74-.98-.76-.12-1.45-.44-2.21-.7-3.78,0-5.86-3.43-8.88-4.69.69-.63,1.76-1.14,2.2-2.1.57-.89.76-2.35.19-3.36-.57-1.97-3.09-1.71-4.54-2.79l.19-.19c2.46-.13,4.6.44,6.8.89,6.05.82,11.66,3.11,17.96,3.24,3.46,0,7.81.19,9.51-3.17.32-1.97.69-3.94,1.01-5.9.76-3.17,2.83-6.09,2.52-9.58-.76-1.97-2.33-3.3-4.29-3.93-2.02-.44-4.16-.13-5.48,1.4-2.27,1.84-.69,4.89-.63,7.36,0,.51.06.89-.44,1.15-9.14-.82-17.64-3.11-26.72-4.06-2.09-.36-4.18-.26-6.16-.68l-2.54-.27c-7.88.25-15.75.7-23.13,2.6-1.57.51-3.34.63-4.91,1.21M175.27,144.96l-.88-.82c.44-.57,1.38-.25,2.08-.64,1.64-.51,3.53-1.14,5.36-.76-1.89,1.52-4.35,1.71-6.55,2.22ZM214.61,143.95c1.5.68,4.54,1.35,6.72,1.59-.19.86-1.73.05-1.55,1.27-1.95-.76-4.22-1.14-5.67-2.67.12-.07.25-.26.51-.19ZM155.48,116.97c.19-1.14.44-2.35,1.51-3.17,1.51-.83,3.6-.63,4.98.19.44.25.75.63,1.01,1.2.31,1.08-.19,2.22-.95,2.86h-.63c0-1.01,0-2.03.38-2.86-.06-.76-.69-.82-1.2-1.14-1.07-.32-2.02.19-2.84.63-.63.76-1.2,1.72-.82,2.79.44.7.06,1.65.31,2.41l-.19.25c-.75-.82-1.76-1.71-1.57-3.17ZM158.44,118.79c.95.7,2.27.38,3.4.57.19.7.19,1.59-.32,2.16-1.07-.26-2.46-.13-3.02-1.14.13-.44-.19-1.08-.06-1.59ZM158.25,116.65c.19-.51,0-1.27.69-1.39.44-.13,1.13-.13,1.2.38-.06.76-.13,1.52-.31,2.22-.88.06-1.32-.44-1.58-1.21ZM187.81,137.03c-.31-2.22.57-4.12,2.02-5.71.88-.19,1.89-.38,2.71.13-1.64.44-3.72.82-4.1,2.92.06.82-.19,1.27.19,1.96.69,1.21,2.27.7,3.15,1.65,0,.32-.25.7-.57.76-1.07-.64-2.39-.89-3.4-1.71ZM185.54,141.41c1.51-.64,3.09-1.97,4.79-1.4-1.2.95-3.15,1.33-4.79,1.4ZM191.53,142.04c-.88,2.03-1.89,4-3.09,5.96-.13.32-.63.38-1.01.44,0-.89.88-1.59,1.26-2.35,1.32-1.72,1.7-3.55,3.21-5.2.38.38-.38.63-.38,1.14ZM193.1,138.36v.25h-.13v-.32h.25c-.06,0-.19,0-.25.06h.13ZM192.53,136.64c-1.07-.12-2.08-.44-3.02-.76-.63-.64,0-1.33,0-2.03.88-1.39,3.4-2.09,4.6-.82-.19,1.4-.69,2.6-1.57,3.62ZM193.92,136.64c.19-.82.57-1.9,1.01-2.66-.06.83-.44,1.97-1.01,2.66ZM194.61,131.51c-.82-.19-1.26-1.14-2.14-1.14.76-.25,1.51-.19,2.39-.07.32.44-.19.83-.25,1.21ZM195.37,133.41h-.06v-.7h.06v.7ZM195.43,136.33c-.06-.25.13-.57.19-.89.31-.32.63.26.76.45-.19.32-.57.51-.94.44ZM196.38,132.39c.32-.89.38-1.65.95-2.35.63,0,1.2,0,1.7.25.13,1.27,1.7,2.98,0,4.06-.56.25-1.38.82-2.01.25-.82-.7-.95-1.33-.63-2.22ZM200.98,130.62c-.13-.57.57-.12.82-.38l1.95.13c-1.01-.13-2.27,2.22-2.77.25ZM204.13,131.44c-.75.25-1.32,1.14-2.08,1.33.38-.7,1.32-1.4,2.08-1.33ZM201.42,135.38h.06v.19h-.06v-.19ZM201.61,139.25c-.06.12.06.31-.13.44l-1.45-1.14c.7-.13,1.2.19,1.58.7ZM199.91,137.28c.12-.12.44-.12.57,0h-.57ZM199.02,136.33c.25-.38.57-.95,1.01-.95,0,.06.06.13.13.19-.38.32-.69.63-1.14.76ZM197.57,136.2h-.25l.38-.38c.19.13-.06.25-.13.38ZM197.76,138.61c.82-.89,1.58.51,1.89,1.21.95,1.39,3.4,2.67,2.46,4.57-1.2,1.08-3.09.07-4.41.89-.69-.06-1.89.13-2.27-.57.69-2.03,1.32-4.31,2.33-6.09ZM196,139.82l.31-.51c-.5,1.53-1.26,3.11-2.08,4.57-.38-1.52,1.2-2.73,1.77-4.06ZM198.77,147.37c-1.2.06-3.02.76-4.16-.25.06-.51-.51-.76-.44-1.27,1.01-.38,1.89.83,2.84-.06,1.45.06,2.96-.19,4.41.13.69.19,1.76-1.14,1.89.19-.5,2.1-3.02.63-4.53,1.27ZM202.55,138.23h-.13v-.19h.13v.19ZM202.8,142.23c.06.63.69.89.32,1.46-.12-.25-.5-.83-.32-1.46ZM204.57,146.04l-.32.13c-.32-.26-.19-.95-.13-1.33.38.32.7.76.44,1.21ZM207.72,147.56c-.07.19-.38.19-.51.06-1.89-2.41-2.77-4.95-3.97-7.62l.25-.06c1.51,2.48,2.71,5.21,4.22,7.62ZM210.05,141.72c-.12.06-.12.19-.12.25-1.83.06-3.02-1.02-4.41-1.97l-.07-.32c1.7.13,3.09,1.21,4.6,2.03ZM208.41,133.28c.76.19.82,1.01.88,1.65-.06,1.4-.82,2.6-2.14,3.11-.69.38-1.76.51-2.46.25,1.51-.07,3.15-.63,3.78-2.16l-.06-2.86ZM207.03,133.03c.31.89.88,1.71.57,2.79-.63,1.2-1.89,1.2-3.02,1.46-.57.06-1.01-.12-1.45-.44.06-.25-.06-.44-.25-.63.19-.83-1.45-1.65-.31-2.35,1.01-.95,3.4-3.11,4.47-.82ZM235.44,113.35c1.01-.51,2.65-.44,3.66.13.82.19,1.77.57,2.08,1.33.95.89.69,2.47.51,3.62-.57,1.14-1.45,1.97-2.71,2.16.06-1.52,1.45-2.6.95-4.32-.82-1.2-2.46-1.58-3.97-1.27-.57.38-.32,1.02-.51,1.59l-.25,2.1c-1.26,0-1.32-1.14-1.7-2.03.06-1.33.63-2.66,1.95-3.3ZM236.58,119.07c.69-.7-.19-4.7,1.76-2.1,0,.51.06,1.27-.44,1.65-.32.25-.82.76-1.32.45ZM237.27,120.65c.06,1.01-.88.76-1.39,1.14h-1.51c-.32-.51-.19-1.27-.19-1.78,1.01.19,2.14.19,3.09.63ZM188.69,118.62c5.67-.06,11.47-.38,16.89.57,1.76.06,3.28.51,4.98.63,3.53.44,6.81,1.39,10.4,1.65.57.19,1.26.19,1.89.32,5.67.89,12.03,2.47,17.45,0,0,2.29-.95,4.38-1.26,6.6-.5.64-.06,1.65-.69,2.22,0,1.14-.95,1.71-1.76,2.16-7.5,1.65-14.87-.89-22.12-2.16-10.15-2.22-21.99-2.86-32.33-.51-4.85.89-9.58,2.03-14.24,3.36-2.9.38-6.05.82-8.82-.06-2.27-1.08-1.32-4-2.02-6.03.13-1.58-.44-2.85-.5-4.38-.19-.51-.32-1.14-.25-1.65.94.13,1.89.82,2.9,1.08,5.29,1.02,10.02-.7,14.93-1.59,4.73-1.01,9.58-1.84,14.56-2.22Z"/>
</svg>