<svg id="Layer_1" data-name="Layer 1" xmlns="http://www.w3.org/2000/svg" width="250px" height="250px" viewBox="0 0 100 100">
    <defs>
        <style>
            .cls-1 {
                fill: #00afdb;
            }

            .cls-2 {
                fill: #fff;
            }
        </style>
    </defs>
    <title>assets</title>
    <path class="cls-1" d="M100,50A50,50,0,1,1,50,0a50,50,0,0,1,50,50Z" />
    <path class="cls-2"
        d="M21.94,76.42a7.81,7.81,0,0,1-7.93-8v0a7.86,7.86,0,0,1,8.06-8,8,8,0,0,1,6.1,2.39L26,65.3a5.73,5.73,0,0,0-4-1.75,4.59,4.59,0,0,0-4.49,4.82v0A4.6,4.6,0,0,0,22,73.28a5.58,5.58,0,0,0,4.07-1.81l2.17,2.19a7.91,7.91,0,0,1-6.34,2.76Z" />
    <path class="cls-2"
        d="M37.06,76.37A9.84,9.84,0,0,1,30.5,73.9l2-2.41a7.1,7.1,0,0,0,4.62,1.88c1.39,0,2.23-.55,2.23-1.46v0c0-.87-.53-1.31-3.12-2-3.11-.8-5.13-1.66-5.13-4.73v0c0-2.8,2.25-4.66,5.41-4.66a8.93,8.93,0,0,1,5.75,2L40.51,65a7.25,7.25,0,0,0-4-1.53c-1.3,0-2,.6-2,1.35v0c0,1,.66,1.34,3.34,2,3.14.82,4.9,1.95,4.9,4.65v0c0,3.08-2.34,4.79-5.68,4.79Z" />
    <polygon class="cls-2"
        points="46.51 76.15 46.51 68.2 46.51 60.68 49.91 60.68 49.91 68.2 49.91 76.15 46.51 76.15 46.51 76.15" />
    <path class="cls-2"
        d="M63.72,66c0-1.46-1-2.21-2.67-2.21H57.67V68.2h3.45c1.66,0,2.6-.88,2.6-2.19v0Zm-.06,10.19L60.34,71.2H57.67v4.95h-3.4V60.68h7.07c3.64,0,5.83,1.92,5.83,5.1v0a4.8,4.8,0,0,1-3.31,4.8l3.78,5.52Z" />
    <path class="cls-2"
        d="M82.44,68.42a4.7,4.7,0,0,0-4.69-4.86,4.63,4.63,0,0,0-4.64,4.82v0a4.7,4.7,0,0,0,4.69,4.86,4.63,4.63,0,0,0,4.64-4.82v0Zm-4.69,8a7.92,7.92,0,0,1-8.2-8v0a8.22,8.22,0,0,1,16.44,0v0a8,8,0,0,1-8.24,8Z" />
    <path class="cls-2" d="M64.94,52.78a2.68,2.68,0,1,1-2.68-2.68,2.68,2.68,0,0,1,2.68,2.68Z" />
    <path class="cls-2"
        d="M54,19.14a2.48,2.48,0,0,0-2.48,2.48V42.86a2.48,2.48,0,0,0,5,0V21.62A2.48,2.48,0,0,0,54,19.14Z" />
    <path class="cls-2"
        d="M37.34,16.76a2.48,2.48,0,0,0-2.48,2.48V38.09a2.48,2.48,0,1,0,5,0V19.24a2.48,2.48,0,0,0-2.48-2.48Z" />
    <path class="cls-2"
        d="M70.57,23.91a2.48,2.48,0,0,0-2.48,2.48V40.48a2.48,2.48,0,0,0,5,0V26.39a2.48,2.48,0,0,0-2.48-2.48Z" />
    <path class="cls-2"
        d="M29,23.91a2.48,2.48,0,0,0-2.48,2.48V40.48a2.48,2.48,0,1,0,5,0V26.39A2.48,2.48,0,0,0,29,23.91Z" />
    <path class="cls-2"
        d="M62.26,12a2.48,2.48,0,0,0-2.48,2.48V45.24a2.48,2.48,0,1,0,5,0V14.48A2.48,2.48,0,0,0,62.26,12Z" />
    <path class="cls-2"
        d="M45.65,12a2.48,2.48,0,0,0-2.48,2.48V35.71a2.48,2.48,0,0,0,5,0V14.48A2.48,2.48,0,0,0,45.65,12Z" />
</svg>
