<svg xmlns="http://www.w3.org/2000/svg" preserveAspectRatio="xMinYMin meet" viewBox="0 0 608.8 56">
  <title>Queensland Government Department of the Environment, Tourism, Science and Innovation</title>
  <symbol id="qld_gov" name="qld_gov" viewBox="0 0 60.33 19.69">
    <path d="M22.12,8.63a2.79,2.79,0,0,1-.34.08,1,1,0,0,0,.33-.65c-.1,0-.28.1-.44.13a1,1,0,0,0,.42-1c-.1,0-.24.13-.38.19a1.05,1.05,0,0,0,.16-1,2.81,2.81,0,0,1-.44.35c.1-.5.1-.82-.11-1a5.52,5.52,0,0,1-.7,1.06,1.29,1.29,0,0,0-.23-1,1.34,1.34,0,0,1-.22.61,1.5,1.5,0,0,0-.38-.94,2.48,2.48,0,0,1-.14.76,2.42,2.42,0,0,0-.57-1,7.31,7.31,0,0,1-.92,3.6A2.51,2.51,0,0,1,17,11a1.24,1.24,0,0,0-.8-.22c-.1-.49.54-.94,1.1-1.29s.8-.67.79-1.15a.72.72,0,0,0-.74-.76,1.29,1.29,0,0,0-1,.65,7.43,7.43,0,0,1-.78.26,1.58,1.58,0,0,0-.58.26.9.9,0,0,0,.43.06c.18,0,.74-.13,1.28-.2.2.11.51.28.18.52a14.28,14.28,0,0,1-1.3.71,1.36,1.36,0,0,0-.44,2,3.08,3.08,0,0,0,.68,1.56,3.37,3.37,0,0,1-.21,1.78c-.14-.35-.39-1.15-.55-1.62.17-.89-.1-1.28-.29-1.43s-.48-.11-.67.2c.29,0,.39.35.39.74s-.13.85-.45.85a.42.42,0,0,0,.67.32c0,.09.21.62.37,1.09.1.28.19.53.25.67s.57.17.62,0a6.15,6.15,0,0,1,.27-.67h0c.1-.2.23-.46.43-.84a8.07,8.07,0,0,1,.42.85,1.12,1.12,0,0,1,.08.25A16.71,16.71,0,0,1,17,18.09c-1.12-.3-1.43.24-1.33.65a.37.37,0,0,1,.5-.06.48.48,0,0,0,.35.6c.32-.85,1.47-.66,1.58-.59,0-.16.16-.57-.43-.66,0-.73.1-1.63.13-1.82a1.11,1.11,0,0,0,0-.6l-.09-.32h0a4.68,4.68,0,0,1-.16-1.1.67.67,0,0,0,.52.15c.13.55.32.39.42.63a1.25,1.25,0,0,1,.08.33.51.51,0,0,0,.08.25,1.62,1.62,0,0,0,1-.25,1.14,1.14,0,0,0,.19-.18,2.19,2.19,0,0,0-.57-1.24,2.9,2.9,0,0,0-.61-1.31,2.67,2.67,0,0,0,1-.66.47.47,0,0,0,.42-.47l.29,0c0-.08,0-.21,0-.29l.41,0c0-.11-.09-.23-.13-.31l.46,0a2.81,2.81,0,0,1-.18-.39,5.51,5.51,0,0,0,.63-.11L21.12,10a1.11,1.11,0,0,0,.81-.71c-.08,0-.25,0-.34,0A1,1,0,0,0,22.12,8.63Z" transform="translate(-1.08 -1.17)"></path>
    <path d="M14.51,9.85H7.63v2.54l.09.07V10h6.84v2.33a.46.46,0,0,1,.07.1V9.85Z" transform="translate(-1.08 -1.17)"></path>
    <path d="M11.12,18.6a4.93,4.93,0,0,1-3.43-4.75h0s0-.05,0-.08a3.86,3.86,0,0,1,0-.47,1.8,1.8,0,0,0-.06-.38l0-.06V14A4.53,4.53,0,0,0,9.06,17.4a6,6,0,0,0,2,1.28l0,0,0,0a6,6,0,0,0,2-1.28A4.52,4.52,0,0,0,14.63,14v-.21l-.07.09A5.15,5.15,0,0,1,14,16.1,5.06,5.06,0,0,1,11.12,18.6Z" transform="translate(-1.08 -1.17)"></path>
    <path d="M9.91,7.6a1,1,0,0,0-.74,1.34.31.31,0,0,1-.34-.12A.91.91,0,0,1,8,9.28c.19-.2.31-.66.68-.9a1.32,1.32,0,0,0,.66-.82c-.17.08-1.05.31-1.3,0A4.78,4.78,0,0,0,9.62,7l-.13-.14a6.38,6.38,0,0,1-1.1.45c-.09-.73.6-.7.66-.5a.58.58,0,0,0-.12-.88,1.06,1.06,0,0,0-.18-1.15c0,.62-.73.72-.81,1.19,0-.38-.05-1.39-.08-1.89-.05-.92-1.21-1.24-1.39-1.24-.76,0-.83-.06-.81-.42-.38.44-.25.83.07,1,0,.26-.46.47-.72.53a1.19,1.19,0,0,0,1.67-.09l.07-.07a2.09,2.09,0,0,1,.21.84.58.58,0,0,0-.68.58c.73-.3.81,1.1,1,1.33-.19,0-.52-.45-1-.48s-.79.28-1,.26c0,.41.55.65.87.7-.17.42,0,.71.33.82,0-.39.49-.51,1-.2a1.56,1.56,0,0,0,1.46.24c-.08.18-.31.2-.59.48s-.4.89-.84,1.08a1.39,1.39,0,0,0,1.4-.29.43.43,0,0,0,.57-.08.81.81,0,0,1,.47-1.22s.1-.23,0-.22ZM7.23,7.29a.71.71,0,0,0-.88.14c-.12-.21.06-.53.17-.62-.57,0-.89-.16-1-.33a1.13,1.13,0,0,1,1.17,0,2.45,2.45,0,0,0,.8.44c.13-.13.08-.07.12-.11-.29-.2-.42-1.75-1-1.8.08-.2.38-.18.61-.12a2.48,2.48,0,0,0-.34-1.25c.33-.17.56,0,.67.42a19.27,19.27,0,0,0,.26,2.51L8,6.42c-.09-.57.54-.78.68-1.07a.82.82,0,0,1-.13.7.34.34,0,0,1,.29.41.7.7,0,0,0-.74.91,1.41,1.41,0,0,1-.91-.07ZM5.67,3c.43.21.57-.18,1.38.34-.54.17-.95.83-1.55.66.43-.21.39-.53.64-.69-.16,0-.47-.09-.47-.32Z" transform="translate(-1.08 -1.17)"></path>
    <path d="M15.53,5.48c0-.86,0-1.57,0-1.79l.1,0c.62.22.76,1,2,.12-.68.08-.72-.5-1-.51a1.16,1.16,0,0,0,.5-.88c-.4.32-1.32.34-1.5.44l-.74.43c-.53.29-.16,1.86-.21,2.44-.29-.86-.87-.73-1.17-1.22a1.71,1.71,0,0,0,.11,1.29.78.78,0,0,0-.16.9.56.56,0,0,1,.85.19,1.19,1.19,0,0,1-1.41-.14l-.15.17a1.31,1.31,0,0,0,1.6.23,1,1,0,0,1-.06.3,1.34,1.34,0,0,1-1.09.09c.06.43.55.75,1,.88a.73.73,0,0,1-.5.16.92.92,0,0,1,0,.85c-.24-.16-.36-.31-.45-.92a1.89,1.89,0,0,0-.87-1.35c0,.21,0,.12,0,.26.9.66.39,1.85,1.33,2.28a.87.87,0,0,0,.29-.9,1.08,1.08,0,0,0,.68-.59,1,1,0,0,1-1-.33,2.58,2.58,0,0,0,1.6-1c.47-.49,1.1-.42,1.05,0,.33,0,.46-.5.35-.78A1.21,1.21,0,0,0,17.59,5c-.64.32-1.45-.21-2.06.44Zm.77.47a.43.43,0,0,1,.11.57c-.22-.38-.94-.25-1.64.54l-.19.2c.05-.95-.72-1-.95-.87a.59.59,0,0,1,.28-.49,1.48,1.48,0,0,1-.3-.84,1.75,1.75,0,0,1,1,1.37l.25-.17c-.07-1.33-.06-1.33-.07-2.24,0-.13,0-.42.41-.39,0,.34.07,1.23.05,2.48h.14a1.19,1.19,0,0,1,1.12-.72,1.25,1.25,0,0,0,.7-.08c-.17.42-.8.6-1,.63Zm-1-2.54a5.43,5.43,0,0,1,.56-.35,2,2,0,0,0,.84-.13c-.24.3-.27.4-.66.45.51,0,.72.5,1,.57-.85.26-.94-.58-1.71-.53Z" transform="translate(-1.08 -1.17)"></path>
    <path d="M12.06,8.42a.14.14,0,0,0-.11.05l-.15,0V8.17a.14.14,0,0,0-.05-.27.14.14,0,0,0-.14.14.14.14,0,0,0,.07.12v.27h-.15a.13.13,0,0,0-.12-.08.14.14,0,1,0,0,.28.13.13,0,0,0,.11-.06l.16,0V9a.14.14,0,1,0,.2.12A.14.14,0,0,0,11.79,9V8.58l.13,0a.14.14,0,1,0,.13-.18Z" transform="translate(-1.08 -1.17)"></path>
    <path d="M10.86,8.34a.14.14,0,0,0-.13.08h-.14V8.17A.14.14,0,0,0,10.66,8a.14.14,0,1,0-.19.13v.28l-.15,0a.13.13,0,0,0-.11-.05.14.14,0,1,0,.13.18l.13,0V9a.14.14,0,0,0-.08.13.14.14,0,0,0,.28,0A.14.14,0,0,0,10.59,9v-.4l.15,0a.14.14,0,0,0,.12.06.14.14,0,1,0,0-.28Z" transform="translate(-1.08 -1.17)"></path>
    <path d="M12.69,9.52c-.08-.56-.28-2.11-.31-2.63h-.24c0,.09,0,.21,0,.34a3.87,3.87,0,0,0-2.08,0c0-.14,0-.25,0-.34H9.88c0,.52-.22,2.08-.31,2.63-.14.05-.23.2-.23.45l1.79,0,1.79,0c0-.25-.09-.4-.23-.45Zm-1.56,0c-.21.39-.59.38-.92.16a1.07,1.07,0,0,0-.4-.17c.06-.39.15-1.12.22-1.73.43-.2,1-.24,1.1.26.13-.5.66-.45,1.09-.26.07.62.16,1.35.22,1.73a1.08,1.08,0,0,0-.4.17c-.33.22-.71.23-.92-.16Z" transform="translate(-1.08 -1.17)"></path>
    <path d="M18.39,19.36a2,2,0,0,1-.6.07h-.34a4.5,4.5,0,0,1-3.09-1.12c1-1-.18-1.86-.82-1A5.69,5.69,0,0,0,13,18c-.11.21,0,.42.22.75a3.69,3.69,0,0,0,.76.64H8.22A3.77,3.77,0,0,0,9,18.79c.25-.33.34-.54.22-.75a5.66,5.66,0,0,0-.5-.72c-.64-.87-1.83,0-.82,1A4.49,4.49,0,0,1,4.8,19.43H4.48a2,2,0,0,1-.6-.07c-.24-.06-.29,0-.16.46a6,6,0,0,1,.19,1H18.37a5.79,5.79,0,0,1,.19-1c.13-.41.08-.52-.17-.46Zm-4.53-2a.33.33,0,0,1,.58,0c.12.23-.06.5-.29.72-.33-.36-.37-.64-.29-.75Zm-.48,1.19c-.12-.17-.16-.26-.1-.42a2.9,2.9,0,0,1,.31-.48c.2.79,1.39,1.54,2.27,1.79h-1.4a3.41,3.41,0,0,1-1.09-.89ZM7.8,17.38a.33.33,0,0,1,.58,0c.08.11,0,.39-.28.75-.24-.22-.42-.5-.29-.72Zm.85.26a2.86,2.86,0,0,1,.31.48c.06.16,0,.26-.1.42a3.38,3.38,0,0,1-1.09.89H6.38c.88-.25,2.07-1,2.27-1.79Zm9.46,3h-14a5.55,5.55,0,0,0-.22-1H18.34a5.47,5.47,0,0,0-.22,1Z" transform="translate(-1.08 -1.17)"></path>
    <path d="M6,20.31h0l0,.1a0,0,0,0,1,0,0h.16s0,0-.07-.09L6,19.84l0,0s0,0,0,0l-.21.52s0,.07-.07.07H5.8s0,0,0,0a.16.16,0,0,1,0,0l0,0H6Zm-.22,0h0l.1-.28h0l.1.28H5.82Z" transform="translate(-1.08 -1.17)"></path>
    <path d="M6.46,20.19a.27.27,0,0,0,.07.22.26.26,0,0,0,.18.06.23.23,0,0,0,.17-.06A.31.31,0,0,0,7,20.16v-.09c0-.12,0-.15,0-.17s0,0,0,0H6.86s0,0,0,0,0,0,0,.17v.1a.29.29,0,0,1,0,.21.17.17,0,0,1-.22,0s-.07-.09-.07-.2v-.12c0-.12,0-.15,0-.17s0,0,0,0H6.42s0,0,0,0,0,0,0,.17v.12Z" transform="translate(-1.08 -1.17)"></path>
    <path d="M7.32,20.22c0,.08,0,.14,0,.18s0,0,0,0h.25a.38.38,0,0,0,.28-.1.34.34,0,0,0,.09-.23.29.29,0,0,0-.08-.21.44.44,0,0,0-.33-.09H7.28s0,0,0,0,0,0,0,.17v.15Zm.1-.16c0-.06,0-.14,0-.16v0h.05a.32.32,0,0,1,.24.08.28.28,0,0,1,.08.21.27.27,0,0,1-.07.21.28.28,0,0,1-.19.06c-.07,0-.1,0-.11,0a.21.21,0,0,1,0-.06s0-.08,0-.17v-.1Z" transform="translate(-1.08 -1.17)"></path>
    <path d="M8.45,20.31h0l0,.1a0,0,0,0,1,0,0h.16s0,0-.07-.09l-.21-.51,0,0s0,0,0,0l-.21.52s0,.07-.07.07h.15s0,0,0,0a.16.16,0,0,1,0,0l0,0h.25Zm-.22,0h0l.1-.28h0l.1.28H8.23Z" transform="translate(-1.08 -1.17)"></path>
    <path d="M9.26,19.92s0-.06.06-.07h-.1a.08.08,0,0,1,0,0l-.11.17L9,19.88v0H8.82a.11.11,0,0,1,.07.06l.14.23-.16.23s0,.06-.07.06h.12a.07.07,0,0,1,0,0l.12-.2.13.22s0,0,0,0h.16a.08.08,0,0,1,0,0l-.18-.29.14-.19Z" transform="translate(-1.08 -1.17)"></path>
    <path d="M10.61,20.31h0l0,.1a0,0,0,0,1,0,0h.16s0,0-.07-.09l-.21-.51,0,0s0,0,0,0l-.21.52s0,.07-.07.07h.16s0,0,0,0a.13.13,0,0,1,0,0l0,0h.25Zm-.22,0h0l.1-.28h0l.11.28h-.21Z" transform="translate(-1.08 -1.17)"></path>
    <path d="M11.12,20.22c0,.08,0,.14,0,.18s0,0,0,0h.17s0,0,0,0,0-.1,0-.18v-.34h.1c.07,0,.1,0,.1,0h0s0,0,0,0h0s0-.08,0-.1,0,0,0,0h-.52v0s0,.08,0,.09,0,0,0,0h0v0s0,0,.08,0h.12v.34Z" transform="translate(-1.08 -1.17)"></path>
    <path d="M12.56,20.15h.13a.05.05,0,0,1,0,0v0h0s0,0,0,0v-.11h-.2v-.21h.13a.06.06,0,0,1,.06,0,.08.08,0,0,1,0,0h0s0-.06,0-.07v0h-.36s0,0,0,0,0,0,0,.17v.15c0,.08,0,.14,0,.18s0,0,0,0h.17s0,0,0,0,0-.09,0-.18v-.07Z" transform="translate(-1.08 -1.17)"></path>
    <path d="M13.09,20.22c0,.08,0,.15,0,.18s0,0,0,0h.17s0,0,0,0,0-.1,0-.18v-.15c0-.12,0-.15,0-.17s0,0,0,0h-.17s0,0,0,0,0,0,0,.17v.15Z" transform="translate(-1.08 -1.17)"></path>
    <path d="M13.59,20.22a1.5,1.5,0,0,1,0,.18s0,0,0,0h.25a.38.38,0,0,0,.28-.1.34.34,0,0,0,.09-.23.29.29,0,0,0-.08-.21.44.44,0,0,0-.33-.09h-.22s0,0,0,0,0,0,0,.17v.15Zm.1-.16v-.18h.05A.33.33,0,0,1,14,20a.29.29,0,0,1,.08.21.27.27,0,0,1-.07.21.27.27,0,0,1-.19.06c-.07,0-.1,0-.11,0a.19.19,0,0,1,0-.06s0-.08,0-.17v-.1Z" transform="translate(-1.08 -1.17)"></path>
    <path d="M14.47,20.22c0,.08,0,.14,0,.18s0,0,0,0h.31s0,0,0,0a.51.51,0,0,0,0-.09s0,0,0,0h0s0,.05,0,.06h-.08c-.08,0-.1,0-.1-.07v-.19h.12s0,0,0,0v0h0s0,0,0,0v-.05s0-.06,0-.06h-.2v-.21h.12s0,0,.05,0a.09.09,0,0,1,0,0h0s0,0,0-.06,0,0,0-.05h-.35s0,0,0,0,0,0,0,.17v.15Z" transform="translate(-1.08 -1.17)"></path>
    <path d="M15.22,20.07c0-.12,0-.15,0-.17s0,0,0,0h-.17s0,0,0,0,0,0,0,.17v.15c0,.08,0,.14,0,.18s0,0,0,0h.32s0,0,.05,0a.6.6,0,0,0,0-.1s0,0,0,0,0,0,0,0a.1.1,0,0,1,0,0s-.05,0-.1,0-.08,0-.1,0,0-.07,0-.18v-.15Z" transform="translate(-1.08 -1.17)"></path>
    <path d="M15.73,20.22c0,.08,0,.15,0,.18s0,0,0,0h.17s0,0,0,0,0-.1,0-.18v-.15c0-.12,0-.15,0-.17s0,0,0,0H15.7s0,0,0,0,0,0,0,.17v.15Z" transform="translate(-1.08 -1.17)"></path>
    <path d="M16.3,20.47a.23.23,0,0,0,.13,0,.16.16,0,0,0,.08-.14c0-.08,0-.14-.14-.21l0,0c-.07-.05-.09-.08-.09-.12a.09.09,0,0,1,.1-.09.1.1,0,0,1,.09,0,.09.09,0,0,1,0,.05h0s0,0,0,0,0-.09,0-.1h-.12c-.12,0-.19.07-.19.16a.24.24,0,0,0,.12.2l0,0a.16.16,0,0,1,.08.13.1.1,0,0,1-.11.09.11.11,0,0,1-.12-.08v0s0,0,0,0,0,0,0,0,0,.06,0,.11,0,0,0,0a.28.28,0,0,0,.12,0Z" transform="translate(-1.08 -1.17)"></path>
    <path d="M13.82,3.46c0-.12-.22-.22-.28-.22s-.22.2-.34.32a2.26,2.26,0,0,1,0-1.11A.84.84,0,0,0,14,3c-.6-.48-.5-.92-.68-.94h-.23c-.21,0-.24.41-.27.6a4.86,4.86,0,0,0-.5-.76c-.22-.57-.5-.43-.77-.69.21.33,0,.53.54.76a2.9,2.9,0,0,1,.38.47,1.91,1.91,0,0,1-.22.25,3.32,3.32,0,0,1-.29.71,1,1,0,0,0,.5-.47c.9.68.17,2.42,0,2.8a1.8,1.8,0,0,0-.68-.25l0-.08-.21-.69h.1c.11,0,.14-.08.12-.14l.62.19.28.08-.17-.23-.29-.4.29-.4.17-.23-.28.08-.56.17a.29.29,0,0,0-.26-.2L11.68,3l.08-.27-.23.17-.4.29-.4-.29-.23-.17.08.27.19.64a.3.3,0,0,0-.26.2L10,3.65l-.27-.08.17.23.29.4-.29.4-.17.23L10,4.75l.63-.19c0,.06,0,.14.12.14h.1l-.21.69,0,.08a1.77,1.77,0,0,0-.7.26A2.38,2.38,0,0,1,9.94,3a1,1,0,0,0,.31.66c-.07-.26,0-.72-.08-.83a.59.59,0,0,0-.39-.12,8.11,8.11,0,0,1,.48-.7c.36-.17.46-.59.55-.8-.39.14-.67.34-.74.67s-.29.4-.46.65a.37.37,0,0,0-.38-.43c-.66.14-.61.61-1.17.94.38.13,1-.71,1.19-.62a9.7,9.7,0,0,1-.09,1.21c-.1-.11-.15-.18-.23-.2a.54.54,0,0,0-.45.17A4.54,4.54,0,0,1,8.21,4.9a2.79,2.79,0,0,0,.6-1.18A1.53,1.53,0,0,1,9,4.37,4.52,4.52,0,0,0,9.61,6a.71.71,0,0,0-.06.44.38.38,0,0,0-.15.47.36.36,0,0,0,.48.15l.07,0a3.07,3.07,0,0,1,1.19-.28A3.08,3.08,0,0,1,12.32,7l.07,0a.36.36,0,0,0,.48-.15.38.38,0,0,0-.15-.47A.72.72,0,0,0,12.64,6h0c.45-.64.48-1.86.85-2.21,0,.43.26.78.48.83a2.44,2.44,0,0,1-.17-1.15ZM11.76,4l.33-.1-.16.22,0,.06,0,.06.16.22-.42-.13A1.19,1.19,0,0,0,11.76,4Zm-1.59.46.16-.22,0-.06,0-.06-.16-.22.33.1a1.17,1.17,0,0,0,.09.33l-.42.13Zm1.31-.11h-.26l0-.46c.39-.17.36.19.23.46Zm-.08.79L11.19,5l-.06,0-.06,0-.22.16L11,4.69h.27l.14.47Zm-.34-1.79.06,0,.06,0,.23-.16-.13.44h0a.15.15,0,0,0-.14-.09.15.15,0,0,0-.14.09h0l-.13-.44.23.16Zm-.3,1c-.13-.28-.16-.64.23-.46l0,.46Zm.36.83.31.23h-.62l.31-.23ZM9.85,6.82l-.07,0c-.09,0-.16,0-.18,0s0-.13.11-.2l0,0,.22.18-.13.05Zm.75-.24-.23-.23A3.35,3.35,0,0,1,11,6.27l.14.27a2.72,2.72,0,0,0-.49.05Zm1.27,0-.14-.31a2.91,2.91,0,0,1,.57.17l.08.32a4.4,4.4,0,0,0-.51-.18ZM11.13,6a3.42,3.42,0,0,0-1.3.27.37.37,0,0,1,.09-.22,1.76,1.76,0,0,1,1.21-.36,1.76,1.76,0,0,1,1.21.36.38.38,0,0,1,.09.22A3.38,3.38,0,0,0,11.13,6Z" transform="translate(-1.08 -1.17)"></path>
    <path d="M8.15,13.39H7.88a5.27,5.27,0,0,0,0,1.31A1.77,1.77,0,0,0,8.25,14,2.39,2.39,0,0,0,8.15,13.39Z" transform="translate(-1.08 -1.17)"></path>
    <path d="M8.27,13.39a2.32,2.32,0,0,1,.1.55,1.78,1.78,0,0,1-.35.83L8,14.88A5,5,0,0,0,11,18.37v-5Zm1.9,3.11a2.66,2.66,0,0,1-.92,0l0-.2A1.18,1.18,0,0,1,9,16.23c0-.14.1-.27.15-.46a2.71,2.71,0,0,0,1.05,0c.05.18.11.32.15.46a1.19,1.19,0,0,1-.27.07Zm-1-1.09a3.07,3.07,0,0,1,1.15,0,.54.54,0,0,1,0,.17,2.69,2.69,0,0,1-1.16,0A.48.48,0,0,1,9.14,15.42Zm1.41-1c-.14.34-.28.68-.32.79l-.24,0c.1-.29.21-.71.31-1S10.68,14.12,10.54,14.44Zm-.83-.49c0-.16.46-.19.38.16s-.19.75-.27,1.09H9.6c-.08-.35-.18-.75-.27-1.09S9.69,13.79,9.71,13.94Zm-.58.28c.1.26.21.68.31,1l-.24,0-.32-.79C8.75,14.12,9.07,14,9.13,14.22Z" transform="translate(-1.08 -1.17)"></path>
    <path d="M13.81,13.88v-.12h.13c.17,0,.25-.16.29-.35h-3v2.4a2.07,2.07,0,0,1,.62-.34v-.53h.24a1.83,1.83,0,0,1,.42-1.28l.08-.08.08.08a1.83,1.83,0,0,1,.42,1.28h.25v.56a1.38,1.38,0,0,1,.58.46,4.52,4.52,0,0,0,.44-1.56h0A.54.54,0,0,1,13.81,13.88Z" transform="translate(-1.08 -1.17)"></path>
    <path d="M14.39,13.41h0c-.06.27-.18.46-.41.46a.42.42,0,0,0,.42.41h0A5.3,5.3,0,0,0,14.39,13.41Z" transform="translate(-1.08 -1.17)"></path>
    <path d="M12.61,15.6a1.88,1.88,0,0,0-1.37.49v2.3a5.25,5.25,0,0,0,2.59-2.2A1.3,1.3,0,0,0,12.61,15.6Zm.58.93L13,16.28l-.36.32.15.17a.24.24,0,0,1,.29.08l-.38.33a.24.24,0,0,1,0-.29l-.15-.17-.44.39L11.9,17l.45-.38-.16-.19-.15.13a.56.56,0,0,1-.14-.59.56.56,0,0,1,.57.22l-.15.13.16.19.37-.31-.21-.24a.47.47,0,0,1,.54.62Z" transform="translate(-1.08 -1.17)"></path>
    <path d="M8,12.16c.18.15.25.25.19.75a1,1,0,0,0,.06.3h6c0-.07,0-.13,0-.19a.89.89,0,0,0-.13-.57.15.15,0,0,0-.12,0h0l-.24,0,.13-.21a.65.65,0,0,1,.5-.33V10.11H7.89v2l.07,0Zm3.83-.24V11.8h-.29c.07-.31.68-.71,1-.8,0-.34.43-.45.79-.46s.55.47.55.61-.05.63-.3.77a.43.43,0,0,1-.66-.32c0-.27.19-.42.51-.39s.3-.14.05-.21-.63-.06-.8.32a.38.38,0,0,1-.26-.1.56.56,0,0,1-.31.18.33.33,0,0,0,.53.09,1,1,0,0,0,0,.11.68.68,0,0,0,1.07.54,1.4,1.4,0,0,0,0,.63H12a1,1,0,0,1,.42-.49l-.14-.22a3.82,3.82,0,0,1-.52.2C11.32,12.37,11.34,12.05,11.8,11.93Zm-1.13.5a.71.71,0,0,1-.54.15.4.4,0,0,1-.2-.39c0-.12.46-.23.6-.19S10.73,12.36,10.67,12.43Zm-2.22-1a1.77,1.77,0,0,0,.72-.64,1.16,1.16,0,0,1-.43-.36,2.38,2.38,0,0,0,1.8,0,1.44,1.44,0,0,1-.48.43,3.55,3.55,0,0,1,.42.9.93.93,0,0,0-.7.21c-.3,0-.67.11-.88-.56l-.21.13a.77.77,0,0,0,.93.67,1,1,0,0,0,.13.34c-.24.14-.85.5-1.31.09Z" transform="translate(-1.08 -1.17)"></path>
    <path d="M7.89,12.25v1H8.1A.9.9,0,0,1,8,12.9C8.1,12.41,8,12.36,7.89,12.25Z" transform="translate(-1.08 -1.17)"></path>
    <path d="M14.39,13.21V12a.54.54,0,0,0-.4.28h0c.27,0,.36.37.35.74,0,.06,0,.12,0,.18Z" transform="translate(-1.08 -1.17)"></path>
    <path d="M9.47,11.57c.11.05.25,0,.39,0a.27.27,0,0,1,0-.2.16.16,0,0,0-.17-.21,1.11,1.11,0,0,1-.43,0C9.34,11.28,9.31,11.49,9.47,11.57Z" transform="translate(-1.08 -1.17)"></path>
    <path d="M8.05,12.89c.06-.5,0-.54-.17-.66s-.33-.14-.54-.28-.19-.25-.37-.45a1.59,1.59,0,0,1,.56-1.05,4.58,4.58,0,0,0,0-.67s.15,0,.13,0a.48.48,0,0,0-.61.17,3.4,3.4,0,0,1-.82.48,15.77,15.77,0,0,1-1.33-1,3,3,0,0,0,.79-.11.63.63,0,0,0,.17-.58,2.65,2.65,0,0,1-.32-.16l-.36-.23a1.62,1.62,0,0,0-.74-.44c0-.19.07-.14.25-.26a1.31,1.31,0,0,0,.45-.52c.07-.14,0-.44-.19-.06a.76.76,0,0,1-.44.36,1.73,1.73,0,0,0,0-.25A1,1,0,0,0,5,6.07c0-.2-.23-.29-.22-.08a.67.67,0,0,1-.28.76.84.84,0,0,0-.09-.34.94.94,0,0,0,.06-1.15c-.1-.13-.34-.18-.23,0s.23.65,0,.84C4.16,6,4.05,6,4,5.82a2.87,2.87,0,0,0-.07-1c-.06-.17-.23-.28-.21,0a3.82,3.82,0,0,1,0,.67S3.34,5.11,3.18,5s-.34-.07-.16.15.65.55.59.67S3.22,5.6,3,5.54s-.24,0-.09.16a2.2,2.2,0,0,0,.83.48c.41.14.62.71.49,1.52,0,0-.08,0-.12,0A3.09,3.09,0,0,0,4,6.87c-.1-.21-.29-.22-.22.07a2.07,2.07,0,0,1,0,.79,1.44,1.44,0,0,1-.61-.23c0-.16.07-.41.08-.65s-.12-.37-.2-.08-.12.41-.17.6a.62.62,0,0,1-.25-.13s0-.33,0-.56-.12-.25-.2,0a1.6,1.6,0,0,0-.07.4.47.47,0,0,1-.21-.32A6.83,6.83,0,0,1,2.28,6c0-.12-.06-.38-.16-.07S2,6.35,2,6.51c-.09,0-.2-.51-.26-.83,0-.15-.15-.31-.17,0a1.84,1.84,0,0,0,.14.88c-.17,0-.34-.33-.46-.51s-.16,0-.15.07A1.09,1.09,0,0,0,1.93,7,3.57,3.57,0,0,0,3.54,8c-.75,0-.95.29-1.29.1a.52.52,0,0,0,.29.48.88.88,0,0,0,.24.07c.06.34.39.33.67.34A2.85,2.85,0,0,0,4,11.22c0,.34,0,.79,0,1.08a5.26,5.26,0,0,0-1.08,1.9,1.31,1.31,0,0,1-.61.83.61.61,0,0,0,.8,0,2.4,2.4,0,0,0,.1.52.9.9,0,0,0-.22.6.66.66,0,0,0-.35.25c-.05.07,0,.38.07.5a4.25,4.25,0,0,1,0,1.69c.08,0,.23,0,.26-.11a.63.63,0,0,1,.22.32c0,.08-.06.38.09.42A1.43,1.43,0,0,0,4,19.12a1.46,1.46,0,0,1-.21-.35,1.13,1.13,0,0,0-.05-.4,3,3,0,0,0-.32-.46,5.32,5.32,0,0,1,0-1.27A3.76,3.76,0,0,0,4.8,15.16c.17.06.12.53.12,1.14,0,.16.2.25.32.26s.62.28,1,.88a1.88,1.88,0,0,1,.18-.17,1.64,1.64,0,0,1,.15.36c0,.08.38.13.63.06a.27.27,0,0,0,.19-.13,3.64,3.64,0,0,0-.93-1.25c-.19-.14-.45-.22-.66-.35a3.38,3.38,0,0,0,.3-2,.72.72,0,0,0-.74-.24,10.08,10.08,0,0,0,1-1.31c.07.08.44,0,.71.13a1.21,1.21,0,0,1,.39.52,2.77,2.77,0,0,1-.12,1.1.6.6,0,0,0,.2-.07.83.83,0,0,1-.17.54,1.25,1.25,0,0,0,.24.62c.14-.41.65-1,.63-1.33s-.23-.85-.21-1.05Z" transform="translate(-1.08 -1.17)"></path>
    <path d="M28.78,12.45a1,1,0,0,1-.46.09,1.82,1.82,0,0,1-1-.36,4.43,4.43,0,0,0-1-.52,1.9,1.9,0,0,1-1.67-.73A3.06,3.06,0,0,1,24.06,9a2.62,2.62,0,0,1,1.17-2.42,2.3,2.3,0,0,1,1.07-.25c1.37,0,2.22,1,2.22,2.62a2.74,2.74,0,0,1-1,2.37,3.08,3.08,0,0,1,.46.26,1.29,1.29,0,0,0,.64.22,3.47,3.47,0,0,0,.46,0ZM27.19,7.8a.93.93,0,0,0-.91-.65.9.9,0,0,0-.8.45A3,3,0,0,0,25.22,9c0,.89.15,1.45.46,1.67a1,1,0,0,0,.62.18c.72,0,1-.55,1-1.87A4.15,4.15,0,0,0,27.19,7.8Z" transform="translate(-1.08 -1.17)"></path>
    <path d="M31.8,11.68a.87.87,0,0,1-.3-.37,1.42,1.42,0,0,1-1,.36,1.15,1.15,0,0,1-1.12-.62,2.27,2.27,0,0,1-.08-.76V7.86l1-.19v2.44a1.51,1.51,0,0,0,.08.62.4.4,0,0,0,.35.18.74.74,0,0,0,.62-.36V7.88l1-.2v2.91a1.1,1.1,0,0,0,.23.69Z" transform="translate(-1.08 -1.17)"></path>
    <path d="M34.16,10v0c0,.59.29.92.8.92a1.49,1.49,0,0,0,1-.38l.39.59a2.18,2.18,0,0,1-1.43.53,1.77,1.77,0,0,1-1.8-2,2.08,2.08,0,0,1,.48-1.51,1.49,1.49,0,0,1,1.2-.51,1.56,1.56,0,0,1,1.1.4,2.23,2.23,0,0,1,.51,1.66V10Zm1.17-.77a1,1,0,0,0-.12-.57.48.48,0,0,0-.44-.22c-.38,0-.59.3-.59.82v0h1.15Z" transform="translate(-1.08 -1.17)"></path>
    <path d="M37.92,10v0c0,.59.29.92.8.92a1.49,1.49,0,0,0,1-.38l.39.59a2.18,2.18,0,0,1-1.43.53,1.77,1.77,0,0,1-1.8-2,2.08,2.08,0,0,1,.48-1.51,1.49,1.49,0,0,1,1.2-.51,1.56,1.56,0,0,1,1.1.4,2.23,2.23,0,0,1,.51,1.66V10Zm1.17-.77A1,1,0,0,0,39,8.64a.48.48,0,0,0-.44-.22c-.38,0-.59.3-.59.82v0h1.15Z" transform="translate(-1.08 -1.17)"></path>
    <path d="M42.84,11.57V9.1c0-.43-.07-.56-.33-.56a1.16,1.16,0,0,0-.69.34v2.69h-1V8.81a2.74,2.74,0,0,0-.13-.89l.88-.25a1,1,0,0,1,.14.48,4.38,4.38,0,0,1,.44-.28,1.57,1.57,0,0,1,.68-.16,1,1,0,0,1,.91.55,1.53,1.53,0,0,1,.07.54v2.78Z" transform="translate(-1.08 -1.17)"></path>
    <path d="M46,11.69a3.39,3.39,0,0,1-1.54-.44l.36-.73a2.78,2.78,0,0,0,1.26.43.47.47,0,0,0,.51-.43c0-.26-.19-.39-.59-.47L45.54,10a1.34,1.34,0,0,1-.7-.39,1.15,1.15,0,0,1-.22-.68c0-.74.59-1.24,1.47-1.24A2.86,2.86,0,0,1,47.46,8l-.33.67a2,2,0,0,0-.94-.27c-.29,0-.48.15-.48.37s.13.3.48.39l.46.12a1.18,1.18,0,0,1,.76.43,1,1,0,0,1,.21.65C47.62,11.16,47,11.69,46,11.69Z" transform="translate(-1.08 -1.17)"></path>
    <path d="M49.29,11.66a.89.89,0,0,1-.88-.52,2.06,2.06,0,0,1-.09-.85V7.45a9.82,9.82,0,0,0-.05-1.14l1-.23a5.67,5.67,0,0,1,.05,1v3c0,.65,0,.74.07.85a.23.23,0,0,0,.2.1h.11l.17.59A1.66,1.66,0,0,1,49.29,11.66Z" transform="translate(-1.08 -1.17)"></path>
    <path d="M52.94,11.77a1.06,1.06,0,0,1-.54-.46,1.88,1.88,0,0,1-.23.2,1.32,1.32,0,0,1-.77.21c-.85,0-1.31-.43-1.31-1.19s.62-1.31,1.83-1.31h.22V9.07c0-.42-.08-.56-.45-.56a2.09,2.09,0,0,0-1.1.43l-.42-.71a3.68,3.68,0,0,1,.62-.31,2.58,2.58,0,0,1,1-.22,1.17,1.17,0,0,1,1.23.66,1.77,1.77,0,0,1,.07.68l0,1.28a.82.82,0,0,0,.36.85ZM52.1,9.91c-.69,0-.93.13-.93.58a.45.45,0,0,0,.44.5.72.72,0,0,0,.52-.26l0-.82Z" transform="translate(-1.08 -1.17)"></path><path d="M56.19,11.57V9.1c0-.43-.07-.56-.33-.56a1.16,1.16,0,0,0-.69.34v2.69h-1V8.81A2.74,2.74,0,0,0,54,7.92l.88-.25a1,1,0,0,1,.14.48,4.38,4.38,0,0,1,.44-.28,1.57,1.57,0,0,1,.68-.16,1,1,0,0,1,.91.55,1.54,1.54,0,0,1,.07.54v2.78Z" transform="translate(-1.08 -1.17)"></path>
    <path d="M60.5,11.57a.67.67,0,0,1-.06-.22,1.28,1.28,0,0,1-.88.32c-1,0-1.58-.75-1.58-1.93s.66-2,1.63-2a1,1,0,0,1,.68.22,4.58,4.58,0,0,1,0-.56V6.07l1,.16v4a3.71,3.71,0,0,0,.14,1.39Zm-.22-2.8a.83.83,0,0,0-.54-.25c-.45,0-.64.37-.64,1.22s.17,1.08.69,1.08a.71.71,0,0,0,.49-.25Z" transform="translate(-1.08 -1.17)"></path>
    <path d="M26.41,18.85a2.08,2.08,0,0,1-1.57-.64,2.76,2.76,0,0,1-.63-2A2.7,2.7,0,0,1,25,14.09a1.91,1.91,0,0,1,1.33-.48,2.07,2.07,0,0,1,1.4.51l-.28.38a1.82,1.82,0,0,0-1.11-.39,1.25,1.25,0,0,0-1.27.86,3.88,3.88,0,0,0-.2,1.29,2.81,2.81,0,0,0,.36,1.55,1.56,1.56,0,0,0,1.23.54,1.52,1.52,0,0,0,.81-.2V16.59h-1l-.12-.51h1.72v2.38A2.77,2.77,0,0,1,26.41,18.85Z" transform="translate(-1.08 -1.17)"></path>
    <path d="M30.44,18.86c-1,0-1.6-.75-1.6-2S29.44,15,30.41,15a1.47,1.47,0,0,1,1.27.65A2.35,2.35,0,0,1,32,17C32,18.21,31.37,18.86,30.44,18.86Zm.76-3a.86.86,0,0,0-.79-.48.85.85,0,0,0-.76.4,2.06,2.06,0,0,0-.18,1A2.6,2.6,0,0,0,29.7,18a.88.88,0,0,0,.75.37.8.8,0,0,0,.8-.56,2.19,2.19,0,0,0,.11-.8A2.61,2.61,0,0,0,31.19,15.9Z" transform="translate(-1.08 -1.17)"></path>
    <path d="M34.33,18.8h-.57l-1.33-3.71L33,15l.86,2.55c.1.3.18.63.18.63h0a5.24,5.24,0,0,1,.18-.62l.85-2.46h.62Z" transform="translate(-1.08 -1.17)"></path>
    <path d="M36.87,17v.09a1.48,1.48,0,0,0,.17.81,1,1,0,0,0,.92.45,1.27,1.27,0,0,0,.91-.35l.22.37a1.85,1.85,0,0,1-1.25.46c-1,0-1.64-.74-1.64-2a2,2,0,0,1,.45-1.4A1.38,1.38,0,0,1,37.76,15a1.36,1.36,0,0,1,1,.4c.32.33.42.68.42,1.56V17Zm1.52-1.26a.79.79,0,0,0-.67-.33c-.53,0-.82.39-.85,1.15h1.69A1.59,1.59,0,0,0,38.4,15.75Z" transform="translate(-1.08 -1.17)"></path>
    <path d="M41.8,15.62a.5.5,0,0,0-.16,0,.88.88,0,0,0-.62.27.67.67,0,0,0-.22.59v2.32h-.58V15.91a1.87,1.87,0,0,0-.13-.79l.58-.16a1.34,1.34,0,0,1,.12.6,1.34,1.34,0,0,1,1-.62.7.7,0,0,1,.2,0Z" transform="translate(-1.08 -1.17)"></path>
    <path d="M44.72,18.76v-2.5c0-.39,0-.49-.13-.62a.54.54,0,0,0-.41-.16,1.71,1.71,0,0,0-1,.52v2.76h-.56V15.91a1.72,1.72,0,0,0-.14-.78L43,15a1.5,1.5,0,0,1,.13.58A1.66,1.66,0,0,1,44.31,15a1,1,0,0,1,.91.54,1.06,1.06,0,0,1,.09.43v2.81Z" transform="translate(-1.08 -1.17)"></path>
    <path d="M50.48,18.76V16c0-.36-.16-.54-.48-.54s-.59.22-1,.57v2.71h-.59V16.13a.76.76,0,0,0-.1-.48.46.46,0,0,0-.38-.15A1.44,1.44,0,0,0,47,16v2.76h-.56V15.9a1.82,1.82,0,0,0-.13-.79l.56-.13a1.56,1.56,0,0,1,.13.55A1.66,1.66,0,0,1,48.1,15a.91.91,0,0,1,.86.62A1.78,1.78,0,0,1,50.15,15a.93.93,0,0,1,.93,1v2.79Z" transform="translate(-1.08 -1.17)"></path>
    <path d="M52.67,17v.09a1.48,1.48,0,0,0,.17.81,1,1,0,0,0,.92.45,1.28,1.28,0,0,0,.91-.35l.22.37a1.85,1.85,0,0,1-1.25.46c-1,0-1.64-.74-1.64-2a2,2,0,0,1,.45-1.4A1.38,1.38,0,0,1,53.55,15a1.36,1.36,0,0,1,1,.4c.32.33.42.68.42,1.56V17Zm1.52-1.26a.79.79,0,0,0-.67-.33c-.53,0-.82.39-.85,1.15h1.69A1.59,1.59,0,0,0,54.19,15.75Z" transform="translate(-1.08 -1.17)"></path>
    <path d="M58.15,18.76v-2.5c0-.39,0-.49-.13-.62a.54.54,0,0,0-.41-.16,1.71,1.71,0,0,0-1,.52v2.76H56V15.91a1.72,1.72,0,0,0-.14-.78l.56-.16a1.5,1.5,0,0,1,.13.58A1.66,1.66,0,0,1,57.74,15a1,1,0,0,1,.91.54,1.06,1.06,0,0,1,.09.43v2.81Z" transform="translate(-1.08 -1.17)"></path><path d="M61.23,15.5h-.77v2.39c0,.41.11.55.48.55a.74.74,0,0,0,.36-.07l.08.37a1.37,1.37,0,0,1-.65.15,1.08,1.08,0,0,1-.48-.1c-.26-.13-.36-.36-.36-.74V15.5H59.4v-.44h.48c0-.36.06-.94.06-.94l.61-.13a10,10,0,0,0-.07,1.07h.93Z" transform="translate(-1.08 -1.17)"></path>
  </symbol>
  <symbol id="detsi" data-name="detsi" viewBox="0 0 1435 121" preserveAspectRatio="xMinYMin meet">
    <path id="Department_of_the" data-name="Department of the" d="M28.8,21.609c0-5.4-1.2-9.55-3.75-12.5-3.25-3.7-7.1-4.9-13.6-4.9H4.25v34.6H12.8c6.45,0,9.451-1.15,12.351-4.85C27.5,30.959,28.8,26.859,28.8,21.609Zm-6.4.6c0,7.851-2.45,11.9-8.55,11.9h-3.8V8.758H13.7c3.1,0,4.9.8,6.5,3C22,14.208,22.4,17.758,22.4,22.209Zm32.3,5.45v-1.15c0-5.9-1.1-9-3.3-11a9.771,9.771,0,0,0-6.95-2.6,9.623,9.623,0,0,0-7.75,3.4c-2.2,2.5-3.15,5.45-3.15,9.9,0,8.1,4.5,13.251,11.651,13.251a13.667,13.667,0,0,0,9.1-3.35l-2.15-3.35a9.325,9.325,0,0,1-6.3,2.5c-4.95,0-6.25-3.7-6.25-7.2v-0.4H54.7ZM49,23.609H39.646c0-4.1,1.7-6.55,4.8-6.55C47.2,17.058,49,19.508,49,23.609Zm32.6,2c0-8.8-4.45-12.651-9.551-12.651a8.648,8.648,0,0,0-6.75,3,11.074,11.074,0,0,0-.4-3.1l-5.05.9a28.894,28.894,0,0,1,.5,6.3v29.5l5.3-1.35V39.76c0-1.25-.1-2.3-0.1-2.5a9.79,9.79,0,0,0,6,2.05C77.991,39.31,81.592,34.009,81.592,25.609Zm-5.9.6c0,6-1.65,8.751-5.35,8.751a7.078,7.078,0,0,1-4.7-2.25v-12.6a7.069,7.069,0,0,1,5.35-2.6C74.591,17.508,75.691,20.559,75.691,26.209Zm31.85,10.151c-1.95-1.35-2.25-2.45-2.2-5.85l0.1-7.25c0.05-3.75.05-5.1-.4-6.2-1.1-2.75-3.75-4.2-7.7-4.2-3.8,0-6.95,1.05-10.751,3.45l2.45,3.95c0.8-.6,4.3-2.9,7.551-2.9,3,0,3.5,1.55,3.5,4.45v1.35h-1.7c-8.1,0-12.5,2.95-12.5,8.8,0,4.4,2.6,7.6,8.4,7.6a8.6,8.6,0,0,0,6.95-3.1,5.93,5.93,0,0,0,3.45,3.4Zm-7.55-9.451-0.1,6a5.72,5.72,0,0,1-4.55,2.65c-2.2,0-3.5-1.5-3.5-3.9,0-3.2,1.65-4.8,7.15-4.8C99.341,26.859,99.891,26.909,99.991,26.909Zm26.17-13.7a4.133,4.133,0,0,0-1.95-.4c-2.45,0-4.45,1.3-6.45,4.05a8.888,8.888,0,0,0-.951-4l-5.05,1.3a20.141,20.141,0,0,1,.9,6.8V38.81h5.5v-17.1a4.991,4.991,0,0,1,4.75-3.75,4.122,4.122,0,0,1,1.55.35Zm16.91,25.152-0.7-3.3a6.411,6.411,0,0,1-2.35.5c-2.4,0-3.1-.9-3.1-4.05v-14.2h4.65l1.45-3.8h-6.05a69.894,69.894,0,0,1,.45-7.6l-5.651,1.35a50.213,50.213,0,0,0-.25,6.25h-2.8v3.8h2.8V32.959c0,3.6,1.7,6.5,6.6,6.5A11.672,11.672,0,0,0,143.071,38.36ZM180,38.81v-18.5c0-5.25-2.45-7.4-6.6-7.4-2.7,0-5.1,1.2-7.551,3.7-1.85-2.95-3.8-3.7-6.05-3.7a9.536,9.536,0,0,0-6.7,3.2,6.965,6.965,0,0,0-.9-3.25l-5,1.4c0.6,1.35.9,3.25,0.9,6.4V38.81h5.351V20.058a8.05,8.05,0,0,1,5.2-2.5c2.1,0,2.75.95,2.75,3.9V38.81h5.25v-18.4c1.75-1.65,3.5-2.9,5.351-2.9,1.95,0,2.6.85,2.6,3.8v17.5H180ZM207,27.659v-1.15c0-5.9-1.1-9-3.3-11a9.771,9.771,0,0,0-6.95-2.6,9.624,9.624,0,0,0-7.751,3.4c-2.2,2.5-3.15,5.45-3.15,9.9,0,8.1,4.5,13.251,11.651,13.251a13.665,13.665,0,0,0,9.1-3.35l-2.15-3.35a9.324,9.324,0,0,1-6.3,2.5c-4.95,0-6.25-3.7-6.25-7.2v-0.4H207Zm-5.7-4.05h-9.351c0-4.1,1.7-6.55,4.8-6.55C199.5,17.058,201.3,19.508,201.3,23.609Zm30.685,15.2v-18.9c0-4.65-2.7-7-6.6-7-2.7,0-5.05,1.2-7.75,3.5a7.4,7.4,0,0,0-.9-3.6l-5,1.4a14.96,14.96,0,0,1,.95,6v18.6h5.4V20.459c1.651-1.65,3.951-2.85,5.551-2.85,2.1,0,2.9.95,2.9,4.4v16.8h5.45Zm18.94-.45-0.7-3.3a6.411,6.411,0,0,1-2.35.5c-2.4,0-3.1-.9-3.1-4.05v-14.2h4.65l1.45-3.8H244.82a69.881,69.881,0,0,1,.451-7.6l-5.651,1.35a50.213,50.213,0,0,0-.25,6.25h-2.8v3.8h2.8V32.959c0,3.6,1.7,6.5,6.6,6.5A11.672,11.672,0,0,0,250.921,38.36Zm37.35-12.1c0-8-4.1-13.351-11.3-13.351-6.7,0-11.051,5.2-11.051,13.3s4.3,13.251,11.151,13.251S288.271,34.409,288.271,26.259Zm-6.05.1c0,6.35-1.8,9-5.05,9-3.3,0-5.151-2.15-5.151-9.5,0-6.15,1.5-8.8,5-8.8C280.221,17.058,282.221,19.208,282.221,26.359Zm25.21-22.851a11,11,0,0,0-5.7-1.45c-4.5,0-7.7,2.45-7.7,7.7a33.583,33.583,0,0,0,.15,3.75h-2.45v3.8h2.35v21.5h5.451v-21.5h5.15l1.4-3.8h-6.6V9.658c0-2.25,1.2-3.55,3.1-3.55a6.548,6.548,0,0,1,3.05.9Zm25.3,34.852-0.7-3.3a6.411,6.411,0,0,1-2.35.5c-2.4,0-3.1-.9-3.1-4.05v-14.2h4.65l1.45-3.8h-6.05a69.643,69.643,0,0,1,.45-7.6l-5.651,1.35a50.213,50.213,0,0,0-.25,6.25h-2.8v3.8h2.8V32.959c0,3.6,1.7,6.5,6.6,6.5A11.672,11.672,0,0,0,332.731,38.36Zm24.775,0.45V20.959c0-2.55-.2-3.7-0.85-4.95-0.85-1.65-3.15-3.1-6.15-3.1a11.375,11.375,0,0,0-7.751,3.3c0-.25.1-1.45,0.1-2.85v-5.4a27.159,27.159,0,0,0-.5-5.95l-5.551,1.2a26.088,26.088,0,0,1,.5,5.5v30.1h5.551V20.659c1.8-1.85,4.15-3.1,6.1-3.1,2.1,0,3.2.9,3.2,4.05v17.2h5.35Zm26.945-11.151v-1.15c0-5.9-1.1-9-3.3-11a9.771,9.771,0,0,0-6.95-2.6,9.624,9.624,0,0,0-7.751,3.4c-2.2,2.5-3.15,5.45-3.15,9.9,0,8.1,4.5,13.251,11.651,13.251a13.665,13.665,0,0,0,9.1-3.35l-2.15-3.35a9.324,9.324,0,0,1-6.3,2.5c-4.95,0-6.251-3.7-6.251-7.2v-0.4h15.1Zm-5.7-4.05H369.4c0-4.1,1.7-6.55,4.8-6.55C376.951,17.058,378.751,19.508,378.751,23.609Z"></path>
    <path id="Environment_Tourism_Science_and_Innovation" data-name="Environment, Tourism, Science and Innovation" d="M31.924,109.749V102.4H11.149V86.2H26.974V79.075H11.149V64.9h18.9l1.125-7.05H2.375v51.9H31.924Zm35.64,0V81.4c0-6.975-4.05-10.5-9.9-10.5-4.05,0-7.575,1.8-11.624,5.25a11.094,11.094,0,0,0-1.35-5.4l-7.5,2.1a22.438,22.438,0,0,1,1.425,9v27.9h8.1V82.225c2.475-2.475,5.925-4.275,8.325-4.275,3.15,0,4.35,1.425,4.35,6.6v25.2h8.175ZM107.126,71.8H98.5L92.2,91.075a70.389,70.389,0,0,0-2.25,8.775H89.8c-0.45-1.875-1.425-5.7-2.325-8.475L80.877,70.9,72.4,72.1l13.649,37.8h7.275Zm14.191,37.948V70.9l-8.325,1.5v37.349h8.325Zm1.35-49.048a5.439,5.439,0,1,0-10.875,0,5.379,5.379,0,0,0,5.325,5.475A5.522,5.522,0,0,0,122.667,60.7Zm29.174,10.65a6.2,6.2,0,0,0-2.925-.6c-3.674,0-6.674,1.95-9.674,6.075a13.349,13.349,0,0,0-1.425-6l-7.575,1.95a30.205,30.205,0,0,1,1.35,10.2v26.774h8.25V84.1a7.486,7.486,0,0,1,7.125-5.625,6.183,6.183,0,0,1,2.324.525Zm35.1,19.574c0-12-6.15-20.024-16.949-20.024-10.05,0-16.575,7.8-16.575,19.949s6.45,19.874,16.725,19.874S186.941,103.149,186.941,90.925Zm-9.075.15c0,9.524-2.7,13.5-7.574,13.5-4.95,0-7.725-3.225-7.725-14.249,0-9.225,2.25-13.2,7.5-13.2C174.866,77.125,177.866,80.35,177.866,91.075Zm46.02,18.674V81.4c0-6.975-4.05-10.5-9.9-10.5-4.049,0-7.574,1.8-11.624,5.25a11.094,11.094,0,0,0-1.35-5.4l-7.5,2.1a22.436,22.436,0,0,1,1.425,9v27.9h8.1V82.225c2.475-2.475,5.925-4.275,8.324-4.275,3.15,0,4.35,1.425,4.35,6.6v25.2h8.175Zm58,0V82c0-7.875-3.675-11.1-9.9-11.1-4.05,0-7.65,1.8-11.324,5.55-2.775-4.425-5.7-5.55-9.075-5.55-3.525,0-7.05,1.725-10.05,4.8a10.463,10.463,0,0,0-1.35-4.875l-7.5,2.1c0.9,2.025,1.35,4.875,1.35,9.6v27.224h8.024V81.625c2.775-2.55,5.475-3.75,7.8-3.75,3.15,0,4.125,1.425,4.125,5.85v26.024h7.875V82.15c2.624-2.475,5.249-4.35,8.024-4.35,2.925,0,3.9,1.275,3.9,5.7v26.249h8.1Zm39.953-16.724V91.3c0-8.85-1.65-13.5-4.95-16.5a14.657,14.657,0,0,0-10.424-3.9A14.434,14.434,0,0,0,294.837,76c-3.3,3.75-4.725,8.175-4.725,14.849,0,12.149,6.75,19.874,17.474,19.874a20.5,20.5,0,0,0,13.65-5.025l-3.225-5.025a13.987,13.987,0,0,1-9.45,3.75c-7.424,0-9.374-5.55-9.374-10.8v-0.6h22.649Zm-8.55-6.075H299.262c0-6.15,2.55-9.825,7.2-9.825C310.586,77.125,313.286,80.8,313.286,86.95Zm45.5,22.8V81.4c0-6.975-4.049-10.5-9.9-10.5-4.05,0-7.575,1.8-11.625,5.25a11.094,11.094,0,0,0-1.35-5.4l-7.5,2.1a22.436,22.436,0,0,1,1.425,9v27.9h8.1V82.225c2.475-2.475,5.925-4.275,8.325-4.275,3.15,0,4.35,1.425,4.35,6.6v25.2h8.174Zm27.863-.675-1.049-4.95a9.616,9.616,0,0,1-3.525.75c-3.6,0-4.65-1.35-4.65-6.075V77.5H384.4l2.175-5.7H377.5a104.821,104.821,0,0,1,.675-11.4L369.7,62.426a75.3,75.3,0,0,0-.375,9.375h-4.2v5.7h4.2v23.474c0,5.4,2.55,9.75,9.9,9.75A17.5,17.5,0,0,0,386.651,109.074Zm18-1.95c0-4.875-2.85-8.25-6.75-8.25a5.906,5.906,0,0,0-5.925,6A5.161,5.161,0,0,0,395.2,109.9a2.4,2.4,0,0,1,1.65,1.575c0,2.1-2.025,4.35-5.1,5.325l3,3.749A14.351,14.351,0,0,0,404.652,107.124Zm59.174-49.273H427.9v7.2h13.125v44.7h8.624v-44.7H462.7Zm30.6,33.074c0-12-6.15-20.024-16.949-20.024-10.05,0-16.575,7.8-16.575,19.949s6.45,19.874,16.725,19.874S494.426,103.149,494.426,90.925Zm-9.075.15c0,9.524-2.7,13.5-7.574,13.5-4.95,0-7.725-3.225-7.725-14.249,0-9.225,2.25-13.2,7.5-13.2C482.351,77.125,485.351,80.35,485.351,91.075Zm48.232,15.974c-0.45-.375-2.324-2.475-2.324-7.575V70.9l-7.95,1.5V99.549a9.2,9.2,0,0,1-7.425,4.95c-4.875,0-5.55-3.45-5.55-8.174V70.9l-8.1,1.5V98.124c0,4.725.6,7.2,2.1,9,1.875,2.25,5.174,3.75,9.449,3.75a13.765,13.765,0,0,0,10.8-4.65,8.4,8.4,0,0,0,3.3,4.725Zm28.516-35.7a6.2,6.2,0,0,0-2.925-.6c-3.675,0-6.675,1.95-9.675,6.075a13.349,13.349,0,0,0-1.425-6l-7.574,1.95a30.205,30.205,0,0,1,1.35,10.2v26.774H550.1V84.1a7.486,7.486,0,0,1,7.125-5.625,6.184,6.184,0,0,1,2.325.525Zm13.643,38.4V70.9l-8.325,1.5v37.349h8.325Zm1.35-49.048a5.439,5.439,0,1,0-10.875,0,5.379,5.379,0,0,0,5.325,5.475A5.522,5.522,0,0,0,577.092,60.7Zm35.549,37.2c0-4.425-2.025-8.625-9.674-10.574l-4.725-1.2c-3.825-.975-5.1-2.175-5.1-4.5,0-2.925,2.25-4.875,5.775-4.875,3,0,5.774.9,9.3,2.775l2.7-5.7a26.062,26.062,0,0,0-12.524-3.3c-8.4,0-14.1,4.95-14.1,12.075,0,5.325,3.375,9.225,9.075,10.425L597.942,94c4.275,0.9,6.149,2.4,6.149,5.325,0,3.15-2.55,5.325-6.149,5.325-4.275,0-8.925-2.025-12.3-3.975l-2.925,5.925a30.6,30.6,0,0,0,14.55,4.2C606.416,110.8,612.641,105.549,612.641,97.9Zm55.267,11.85V82c0-7.875-3.675-11.1-9.9-11.1-4.05,0-7.65,1.8-11.324,5.55-2.775-4.425-5.7-5.55-9.075-5.55-3.525,0-7.05,1.725-10.05,4.8a10.463,10.463,0,0,0-1.35-4.875l-7.5,2.1c0.9,2.025,1.35,4.875,1.35,9.6v27.224h8.024V81.625c2.775-2.55,5.475-3.75,7.8-3.75,3.15,0,4.125,1.425,4.125,5.85v26.024h7.875V82.15c2.624-2.475,5.249-4.35,8.024-4.35,2.925,0,3.9,1.275,3.9,5.7v26.249h8.1Zm21.834-2.625c0-4.875-2.85-8.25-6.75-8.25a5.906,5.906,0,0,0-5.925,6,5.161,5.161,0,0,0,3.225,5.025,2.4,2.4,0,0,1,1.65,1.575c0,2.1-2.025,4.35-5.1,5.325l3,3.749A14.351,14.351,0,0,0,689.742,107.124Zm62.774-13.049c0-7.8-5.25-12.6-12.75-14.774l-6.15-1.8c-5.1-1.5-6.9-3.15-6.9-6.375,0-4.275,3.375-7.05,8.474-7.05,4.125,0,7.425,1.125,12.225,3.975l3.9-6.075a28.855,28.855,0,0,0-16.425-4.95c-10.424,0-17.624,6.225-17.624,15.374a13.073,13.073,0,0,0,2.175,7.575c1.95,2.925,5.325,4.875,10.05,6.225l5.549,1.575c5.325,1.5,7.725,3.9,7.725,7.725,0,5.175-3.825,8.249-10.2,8.249-5.25,0-9.375-1.575-14.025-4.275l-3.3,6.6a33.208,33.208,0,0,0,17.025,4.65C745.541,110.724,752.516,102.7,752.516,94.075ZM787.144,105.7l-3.9-5.025c-2.475,2.475-5.025,3.75-7.65,3.75a6.668,6.668,0,0,1-5.025-2.175c-1.725-1.875-2.55-5.174-2.55-10.349,0-4.725.45-8.25,1.575-10.575a6.449,6.449,0,0,1,6-3.825c2.175,0,4.125.9,6.375,2.925l4.125-5.475a13.822,13.822,0,0,0-10.5-4.125c-8.475,0-16.724,6.6-16.724,20.4,0,12.224,5.775,19.5,16.124,19.5A15.8,15.8,0,0,0,787.144,105.7Zm15.03,4.05V70.9l-8.324,1.5v37.349h8.324Zm1.35-49.048a5.438,5.438,0,1,0-10.874,0,5.378,5.378,0,0,0,5.324,5.475A5.522,5.522,0,0,0,803.524,60.7Zm38.414,32.324V91.3c0-8.85-1.649-13.5-4.949-16.5a14.657,14.657,0,0,0-10.425-3.9A14.434,14.434,0,0,0,814.939,76c-3.3,3.75-4.724,8.175-4.724,14.849,0,12.149,6.749,19.874,17.474,19.874a20.5,20.5,0,0,0,13.649-5.025l-3.224-5.025a13.987,13.987,0,0,1-9.45,3.75c-7.425,0-9.375-5.55-9.375-10.8v-0.6h22.649Zm-8.549-6.075H819.364c0-6.15,2.55-9.825,7.2-9.825C830.689,77.125,833.389,80.8,833.389,86.95Zm45.5,22.8V81.4c0-6.975-4.05-10.5-9.9-10.5-4.049,0-7.574,1.8-11.624,5.25a11.094,11.094,0,0,0-1.35-5.4l-7.5,2.1a22.436,22.436,0,0,1,1.425,9v27.9h8.1V82.225c2.475-2.475,5.925-4.275,8.325-4.275,3.149,0,4.349,1.425,4.349,6.6v25.2h8.175Zm36.42-4.05-3.9-5.025c-2.475,2.475-5.025,3.75-7.649,3.75a6.668,6.668,0,0,1-5.025-2.175c-1.725-1.875-2.55-5.174-2.55-10.349,0-4.725.45-8.25,1.575-10.575a6.449,6.449,0,0,1,6-3.825c2.174,0,4.124.9,6.374,2.925l4.125-5.475a13.821,13.821,0,0,0-10.5-4.125c-8.475,0-16.725,6.6-16.725,20.4,0,12.224,5.775,19.5,16.125,19.5A15.8,15.8,0,0,0,915.311,105.7Zm35.272-12.674V91.3c0-8.85-1.649-13.5-4.949-16.5a14.657,14.657,0,0,0-10.425-3.9A14.431,14.431,0,0,0,923.585,76c-3.3,3.75-4.725,8.175-4.725,14.849,0,12.149,6.75,19.874,17.474,19.874a20.5,20.5,0,0,0,13.65-5.025l-3.225-5.025a13.987,13.987,0,0,1-9.45,3.75c-7.425,0-9.375-5.55-9.375-10.8v-0.6h22.649Zm-8.549-6.075H928.009c0-6.15,2.55-9.825,7.2-9.825C939.334,77.125,942.034,80.8,942.034,86.95Zm65.026,19.124c-2.93-2.025-3.38-3.675-3.3-8.775l0.15-10.875c0.07-5.625.07-7.65-.6-9.3-1.65-4.125-5.626-6.3-11.551-6.3-5.7,0-10.425,1.575-16.124,5.175l3.675,5.925c1.2-.9,6.449-4.35,11.324-4.35,4.5,0,5.25,2.325,5.25,6.675v2.025h-2.55c-12.149,0-18.749,4.425-18.749,13.2,0,6.6,3.9,11.4,12.6,11.4a12.9,12.9,0,0,0,10.425-4.65,8.9,8.9,0,0,0,5.171,5.1ZM995.734,91.9l-0.15,9a8.58,8.58,0,0,1-6.825,3.975c-3.3,0-5.25-2.25-5.25-5.85,0-4.8,2.475-7.2,10.725-7.2C994.759,91.825,995.584,91.9,995.734,91.9Zm47.436,17.849V81.4c0-6.975-4.05-10.5-9.9-10.5-4.05,0-7.57,1.8-11.62,5.25a11.094,11.094,0,0,0-1.35-5.4l-7.5,2.1a22.442,22.442,0,0,1,1.42,9v27.9h8.1V82.225c2.48-2.475,5.93-4.275,8.33-4.275,3.15,0,4.35,1.425,4.35,6.6v25.2h8.17Zm41.22,0c-0.75-1.875-1.2-5.7-1.2-13.2v-40.8l-8.17-1.275V68.351c0,2.925.15,5.625,0.22,6.225a10.717,10.717,0,0,0-8.17-3.45c-9.15,0-15.75,8.1-15.75,20.024,0,11.849,5.85,19.424,15.52,19.424a12.438,12.438,0,0,0,9.3-3.75,9.29,9.29,0,0,0,.68,2.925h7.57Zm-9.37-9.675a7.891,7.891,0,0,1-6.68,3.6c-6.22,0-7.87-4.2-7.87-12.6,0-9.15,2.4-13.35,7.65-13.35a9.015,9.015,0,0,1,6.9,3.075v19.274Zm46.65,9.675v-51.9h-8.85v51.9h8.85Zm39.75,0V81.4c0-6.975-4.05-10.5-9.9-10.5-4.05,0-7.57,1.8-11.62,5.25a11.094,11.094,0,0,0-1.35-5.4l-7.5,2.1a22.442,22.442,0,0,1,1.42,9v27.9h8.1V82.225c2.48-2.475,5.93-4.275,8.33-4.275,3.15,0,4.35,1.425,4.35,6.6v25.2h8.17Zm39.15,0V81.4c0-6.975-4.05-10.5-9.9-10.5-4.05,0-7.58,1.8-11.63,5.25a11.094,11.094,0,0,0-1.35-5.4l-7.5,2.1a22.429,22.429,0,0,1,1.43,9v27.9h8.1V82.225c2.47-2.475,5.92-4.275,8.32-4.275,3.15,0,4.35,1.425,4.35,6.6v25.2h8.18Zm41.5-18.824c0-12-6.15-20.024-16.95-20.024-10.05,0-16.57,7.8-16.57,19.949s6.45,19.874,16.72,19.874S1242.07,103.149,1242.07,90.925Zm-9.07.15c0,9.524-2.7,13.5-7.58,13.5-4.95,0-7.72-3.225-7.72-14.249,0-9.225,2.25-13.2,7.5-13.2C1230,77.125,1233,80.35,1233,91.075ZM1279.08,71.8h-8.62l-6.3,19.274a69.449,69.449,0,0,0-2.25,8.775h-0.15c-0.45-1.875-1.43-5.7-2.33-8.475l-6.6-20.474-8.47,1.2,13.65,37.8h7.27Zm36,34.274c-2.92-2.025-3.37-3.675-3.3-8.775l0.15-10.875c0.08-5.625.08-7.65-.6-9.3-1.65-4.125-5.62-6.3-11.55-6.3-5.7,0-10.42,1.575-16.12,5.175l3.67,5.925c1.2-.9,6.45-4.35,11.33-4.35,4.5,0,5.25,2.325,5.25,6.675v2.025h-2.55c-12.15,0-18.75,4.425-18.75,13.2,0,6.6,3.9,11.4,12.6,11.4a12.879,12.879,0,0,0,10.42-4.65,8.889,8.889,0,0,0,5.18,5.1ZM1303.76,91.9l-0.15,9a8.582,8.582,0,0,1-6.83,3.975c-3.3,0-5.25-2.25-5.25-5.85,0-4.8,2.48-7.2,10.73-7.2C1302.78,91.825,1303.61,91.9,1303.76,91.9Zm36.05,17.174-1.05-4.95a9.593,9.593,0,0,1-3.52.75c-3.6,0-4.65-1.35-4.65-6.075V77.5h6.97l2.18-5.7h-9.08a103.511,103.511,0,0,1,.68-11.4l-8.48,2.025a76.315,76.315,0,0,0-.37,9.375h-4.2v5.7h4.2v23.474c0,5.4,2.55,9.75,9.9,9.75A17.469,17.469,0,0,0,1339.81,109.074Zm14.66,0.675V70.9l-8.33,1.5v37.349h8.33Zm1.35-49.048a5.441,5.441,0,1,0-10.88,0,5.383,5.383,0,0,0,5.33,5.475A5.525,5.525,0,0,0,1355.82,60.7Zm40.05,30.224c0-12-6.15-20.024-16.95-20.024-10.05,0-16.58,7.8-16.58,19.949s6.45,19.874,16.73,19.874S1395.87,103.149,1395.87,90.925Zm-9.08.15c0,9.524-2.7,13.5-7.57,13.5-4.95,0-7.73-3.225-7.73-14.249,0-9.225,2.25-13.2,7.5-13.2C1383.79,77.125,1386.79,80.35,1386.79,91.075Zm46.02,18.674V81.4c0-6.975-4.05-10.5-9.9-10.5-4.05,0-7.57,1.8-11.62,5.25a11.094,11.094,0,0,0-1.35-5.4l-7.5,2.1a22.442,22.442,0,0,1,1.42,9v27.9h8.1V82.225c2.48-2.475,5.93-4.275,8.33-4.275,3.15,0,4.35,1.425,4.35,6.6v25.2h8.17Z"></path>
  </symbol>
  <use href="#qld_gov" x="0" y="0" width="171.583" height="100%" style="fill:#000;" />
  <line x1="187.583" y1="0" x2="188.583" y2="56" stroke="#000" stroke-width="2px"/>
  <use href="#detsi" x="205.583" y="17.2" height="34" style="fill:#000;"/>
</svg>
