<?xml version="1.0" encoding="UTF-8" standalone="no"?>
<!DOCTYPE svg PUBLIC "-//W3C//DTD SVG 1.1//EN" "http://www.w3.org/Graphics/SVG/1.1/DTD/svg11.dtd"><svg width="100%"
    height="100%" viewBox="0 0 125 125" version="1.1" xmlns="http://www.w3.org/2000/svg"
    xmlns:xlink="http://www.w3.org/1999/xlink" xml:space="preserve" xmlns:serif="http://www.serif.com/"
    style="fill-rule:evenodd;clip-rule:evenodd;stroke-linecap:round;stroke-linejoin:round;stroke-miterlimit:1.5;">
    <circle id="Border" cx="62.5" cy="62.5" r="59.074" style="fill:#cbfdff;fill-opacity:100;stroke:#0F528C;stroke-width:4.32px;" />
    <g id="Thick_Waves">
        <clipPath id="_clip1">
            <circle cx="62.5" cy="62.5" r="53.704" />
        </clipPath>
        <g clip-path="url(#_clip1)">
            <path
                d="M126.407,93.648c0,-0 -21.481,10.74 -32.222,10.74c-10.741,0 -21.481,-10.83 -32.222,-10.74c-10.741,0.089 -21.482,11.367 -32.222,11.277c-10.741,-0.089 -32.222,-11.814 -32.222,-11.814l-0,-18.835c-0,-0 21.481,10.741 32.222,10.741c10.74,-0 21.481,-10.741 32.222,-10.741c10.741,-0 21.481,10.741 32.222,10.741c10.741,-0 32.222,-10.741 32.222,-10.741l0,19.372Z"
                style="fill:#55a6d9;stroke:#0F528C;stroke-opacity:0;stroke-width:20.83px;" />
            <path
                d="M126.407,67.755c0,-0 -21.481,10.741 -32.222,10.741c-10.741,-0 -21.481,-10.831 -32.222,-10.741c-10.741,0.089 -21.482,11.367 -32.222,11.278c-10.741,-0.09 -32.222,-11.815 -32.222,-11.815l-0,-18.835c-0,0 21.481,10.741 32.222,10.741c10.74,-0 21.481,-10.741 32.222,-10.741c10.741,0 21.481,10.741 32.222,10.741c10.741,-0 32.222,-10.741 32.222,-10.741l0,19.372Z"
                style="fill:#74c4e5;stroke:#0F528C;stroke-opacity:0;stroke-width:20.83px;" />
            <path
                d="M126.407,41.862c0,-0 -21.481,10.741 -32.222,10.741c-10.741,-0 -21.481,-10.831 -32.222,-10.741c-10.741,0.089 -21.482,11.367 -32.222,11.278c-10.741,-0.09 -32.222,-11.815 -32.222,-11.815l-0,-18.835c-0,0 21.481,10.741 32.222,10.741c10.74,-0 21.481,-10.741 32.222,-10.741c10.741,0 21.481,10.741 32.222,10.741c10.741,-0 32.222,-10.741 32.222,-10.741l0,19.372Z"
                style="fill:#9de1f1;stroke:#0F528C;stroke-opacity:0;stroke-width:20.83px;" />
        </g>
    </g>
    <path id="Coral_big"
        d="M95.642,50.543c-1.131,0.444 -3.969,2.199 -3.64,-0.355c0.062,-0.482 0.272,-0.849 0.331,-1.334c0.1,-0.821 -0.025,-1.741 -0.112,-2.558c-0.125,-1.176 -1.826,-1.036 -1.817,0.13c0.009,1.247 -0.395,10.128 -2.773,8.817c-0.8,-0.441 -1.186,-1.995 -1.385,-2.808c-0.239,-0.974 -1.669,-0.694 -1.687,0.254c-0.024,1.309 0.326,2.376 0.959,3.466c0.639,1.1 0.353,2.223 -0.021,3.411c-0.437,1.392 -0.981,2.766 -2.079,3.759c-1.414,1.28 -2.963,2.442 -4.481,3.599c-2.813,2.146 -5.585,4.737 -7.112,7.985c-0.744,1.584 -1.144,3.332 -0.952,5.083c0.193,1.776 0.661,3.877 -0.975,5.171c-2.574,2.037 -2.723,-5.071 -2.899,-6.059c-0.156,-0.871 -1.378,-0.679 -1.592,0.034c-0.573,1.913 -0.332,3.978 0.242,5.86c0.537,1.757 1.677,3.058 0.892,4.947c-0.715,1.719 -2.391,2.582 -4.081,3.159c-0.681,0.233 -2.137,0.689 -2.771,0.212c-1.268,-0.954 -0.379,-2.667 0.131,-3.733c0.745,-1.557 1.719,-3.029 2.153,-4.715c0.219,-0.853 -0.946,-1.525 -1.538,-0.83c-1.345,1.578 -2.375,3.884 -3.121,5.808c-0.367,0.947 -0.514,1.871 -0.668,2.864c-0.147,0.943 -0.598,1.8 -0.749,2.742c-0.158,0.986 -0.306,1.753 -1.291,2.247c-0.738,0.369 -1.638,0.537 -2.24,-0.089c-1.245,-1.292 -0.76,-3.101 -0.257,-4.577c0.638,-1.874 1.691,-3.558 2.626,-5.291c0.862,-1.597 1.493,-3.543 2.802,-4.842c1.358,-1.347 3.028,-2.332 4.372,-3.682c1.115,-1.12 2.017,-2.423 2.701,-3.848c0.288,-0.6 0.696,-1.067 0.938,-1.685c0.252,-0.644 0.266,-1.373 0.652,-1.966c0.863,-1.325 1.964,-1.763 3.156,-2.652c1.261,-0.939 2.276,-2.151 3.025,-3.531c0.464,-0.854 -0.829,-1.868 -1.431,-1.028c-0.764,1.062 -2.507,3.41 -4.068,2.668c-1.09,-0.519 -1.648,-2.195 -1.143,-3.27c0.743,-1.582 2.292,-3.662 4.117,-3.995c2.022,-0.37 3.234,1.754 5.025,2.283c1.834,0.54 4.022,0.586 5.755,-0.311c1.036,-0.536 0.214,-1.894 -0.761,-1.733c-1.092,0.181 -5.729,0.825 -5.003,-1.444c0.352,-1.098 1.559,-1.819 2.444,-2.455c1.281,-0.921 2.598,-1.659 3.73,-2.789c3.535,-3.533 6.271,-8.859 5.905,-13.957c-0.068,-0.942 -1.48,-1.137 -1.684,-0.161c-0.671,3.218 -1.636,6.435 -3.399,9.237c-0.862,1.369 -4.263,6.35 -6.258,4.36c-1.027,-1.025 -0.561,-3.174 -0.234,-4.387c0.524,-1.946 1.345,-3.625 2.776,-5.064c0.61,-0.614 1.475,-1.005 2.107,-1.589c0.714,-0.66 1.591,-1.161 2.254,-1.903c0.502,-0.562 -0.035,-1.435 -0.762,-1.247c-0.99,0.256 -2.635,1.638 -2.834,-0.074c-0.093,-0.795 0.747,-1.867 0.242,-2.594c-0.429,-0.617 -1.397,-0.417 -1.614,0.285c-1.105,3.57 -2.735,6.872 -3.927,10.403c-0.558,1.653 -0.846,3.25 -0.699,4.961c0.121,1.421 -0.185,3.435 -1.614,4.147c-2.956,1.473 -2.502,-4.691 -2.418,-5.892c0.058,-0.835 -1.162,-1.043 -1.522,-0.367c-0.927,1.743 -1.036,3.972 -0.642,5.875c0.328,1.588 0.195,3.658 -1.787,4.118c-2.556,0.594 -2.559,-2.788 -2.262,-4.418c0.402,-2.203 1.606,-4.185 2.773,-6.059c2.891,-4.646 6.258,-9.271 8.517,-14.257c0.327,-0.722 -0.624,-1.483 -1.185,-0.827c-0.492,0.576 -1.912,3.178 -2.822,2.625c-0.819,-0.496 -0.869,-2.397 -0.997,-3.228c-0.153,-0.99 -1.624,-0.653 -1.658,0.251c-0.061,1.655 0.22,3.199 0.579,4.801c0.3,1.335 0.401,2.771 -0.773,3.729c-3.051,2.488 -2.556,-4.126 -2.641,-5.292c-0.159,-2.17 -0.759,-4.324 -2.053,-6.09c-0.478,-0.652 -1.568,-0.225 -1.327,0.605c0.496,1.709 0.952,3.555 1.066,5.336c0.094,1.464 -1.135,2.001 -2.387,1.276c-1.424,-0.827 -2.34,-3.468 -2.948,-4.923c-0.352,-0.842 -1.911,-0.833 -1.758,0.266c0.619,4.447 3.913,6.764 6.577,9.943c0.887,1.058 1.927,2.535 1.909,3.972c-0.011,0.877 -0.785,1.294 -1.637,1.274c-1.767,-0.044 -2.512,-2.723 -3.109,-4.018c-0.415,-0.899 -1.601,-0.168 -1.468,0.646c0.288,1.75 1.05,3.194 1.824,4.758c0.394,0.798 1.281,2.501 0.305,3.208c-1.507,1.09 -3.179,-1.05 -3.967,-2.047c-1.299,-1.648 -2.145,-3.615 -2.523,-5.675c-0.671,-3.654 -0.285,-7.803 -2.383,-11.041c-0.489,-0.755 -1.707,-0.216 -1.446,0.66c0.41,1.372 2.385,8.247 -0.857,7.512c-1.337,-0.303 -2.283,-1.971 -2.963,-3.036c-0.586,-0.918 -1.985,-0.062 -1.442,0.881c0.904,1.573 2.123,3.101 3.332,4.455c1.349,1.51 3.156,2.352 4.319,4.099c0.686,1.031 2.623,3.27 1.319,4.461c-0.65,0.593 -1.567,0.268 -2.31,0.051c-1.001,-0.295 -1.521,1.183 -0.639,1.674c1.401,0.779 2.894,1.034 4.479,0.965c1.506,-0.066 3,0.004 4.285,0.916c1.8,1.279 2.256,3.608 3.042,5.521c0.858,2.084 1.784,4.2 1.828,6.492c0.048,2.48 -0.708,4.927 -2.153,6.943c-0.789,1.1 -3.195,4.246 -4.6,1.991c-0.653,-1.047 -0.437,-2.607 0.08,-3.644c0.613,-1.228 0.852,-2.434 0.766,-3.864c-0.174,-2.926 -1.598,-5.661 -3.438,-7.886c-2.646,-3.202 -6.238,-6.106 -8.242,-9.772c-0.82,-1.5 -1.616,-3.489 -2.089,-5.125c-0.488,-1.69 -0.651,-3.206 -1.641,-4.755c-0.496,-0.775 -1.92,-0.244 -1.547,0.68c0.338,0.838 1.035,2.217 1.053,3.102c0.017,0.806 -0.742,0.768 -1.419,0.37c-0.661,-0.388 -1.139,-1.142 -1.716,-1.673c-0.711,-0.656 -1.943,0.302 -1.34,1.122c1.083,1.473 2.24,2.89 3.433,4.275c0.584,0.678 2.275,2.247 1.884,3.318c-0.498,1.368 -3.274,-0.101 -4.019,-0.531c-1.478,-0.858 -2.723,-2.074 -3.839,-3.355c-0.535,-0.613 -1.593,0.115 -1.331,0.84c0.945,2.625 3.193,4.494 5.785,5.39c2.557,0.885 5.915,0.075 8.156,1.741c0.657,0.488 1.465,1.624 1.474,2.471c0.016,1.474 -1.452,0.713 -2.389,0.872c-0.589,0.1 -0.751,0.97 -0.321,1.33c1.611,1.352 4.213,0.688 6.042,1.725c1.72,0.975 2.885,3.438 3.209,5.31c0.306,1.763 -0.805,3.406 -2.806,3.082c-1.233,-0.198 -2.009,-1.133 -3.066,-1.718c-1.188,-0.658 -2.816,-1.721 -3.551,-2.892c-0.892,-1.422 -1.39,-3.016 -2.236,-4.458c-0.856,-1.459 -1.903,-2.804 -3.083,-4.015c-0.795,-0.817 -1.927,0.444 -1.196,1.276c1.003,1.143 1.87,2.402 2.58,3.748c0.358,0.677 1.162,1.818 -0.075,1.904c-1.134,0.077 -2.576,-1.381 -3.346,-2.074c-3.363,-3.024 -5.664,-6.742 -7.556,-10.808c-0.402,-0.864 -1.763,-0.19 -1.498,0.683c0.529,1.743 1.283,3.381 2.159,4.974c0.621,1.13 0.147,2.254 -1.353,1.658c-1.076,-0.428 -2.083,-1.657 -2.731,-2.567c-0.625,-0.878 -2.005,-0.063 -1.443,0.881c1.133,1.906 2.969,3.487 4.984,4.397c1.679,0.757 3.547,1.025 5.187,1.88c1.792,0.933 3.257,2.677 4.99,3.792c1.102,0.709 5.101,2.079 3.441,4.006c-0.902,1.047 -3.024,1.029 -4.278,1.086c-2.556,0.116 -5.015,-0.603 -7.007,-2.236c-3.405,-2.789 -5.668,-7.337 -10.014,-8.837c-0.775,-0.267 -1.413,0.952 -0.75,1.436c0.601,0.439 1.978,1.027 0.939,1.687c-0.583,0.371 -1.464,0.091 -2.086,0.391c-0.686,0.33 -0.366,1.285 0.233,1.476c0.632,0.201 1.193,0.027 1.812,0.074c0.586,0.046 1.215,0.273 1.788,0.414c2.003,0.493 2.987,1.287 4.344,2.788c1.386,1.531 2.906,2.986 4.767,3.924c3.199,1.613 6.855,1.49 10.258,0.676c1.875,-0.449 3.979,-1.011 5.899,-0.512c2.374,0.615 3.777,2.907 3.767,5.274c-0.06,0.198 -0.069,0.409 -0.03,0.614c-0.191,2.08 -2.133,6.259 -4.865,4.342c-1.343,-0.943 -2.88,-1.564 -4.454,-2.005c-1.917,-0.538 -3.892,-0.815 -5.858,-1.1c-1.555,-0.228 -3.356,-0.253 -4.69,-1.142c-1.525,-1.015 -2.626,-2.119 -3.466,-3.766c-0.808,-1.581 -1.35,-3.3 -2.306,-4.807c-0.431,-0.68 -1.665,-0.214 -1.348,0.593c0.303,0.773 2.272,5.366 -0.219,4.072c-1.061,-0.552 -1.909,-1.738 -2.637,-2.658c-1.775,-2.248 -3.188,-4.768 -5.102,-6.909c-0.505,-0.564 -1.528,0.104 -1.26,0.794c0.276,0.712 1.575,2.332 0.777,2.914c-0.545,0.399 -1.636,-0.024 -2.251,-0.017c-0.858,0.009 -1.206,1.273 -0.399,1.659c1.927,0.918 4.988,0.466 6.226,2.436c0.432,0.687 0.919,1.492 1.043,2.298c0.354,2.31 -3.077,1.296 -4.139,0.825c-1.933,-0.854 -3.571,-2.257 -5.314,-3.426c-0.675,-0.453 -1.605,0.554 -1.095,1.191c3.357,4.185 8.864,6.988 13.872,3.949c1.256,0.99 2.58,1.823 3.942,2.43c1.872,0.834 4.06,1.355 6.103,1.434c1.419,0.053 2.965,1.542 2.313,3.114c-0.711,1.716 -2.467,3.791 -4.016,4.816c-0.936,0.62 -2.331,1.395 -3.374,0.732c-1.117,-0.709 -1.627,-2.135 -2.187,-3.264c-0.867,-1.753 -2.395,-3.256 -4.122,-4.153c-0.827,-0.43 -1.764,0.746 -0.987,1.373c0.771,0.623 3.948,3.216 3.088,4.508c-0.483,0.727 -2.085,0.125 -2.738,-0.059c-0.774,-0.218 -1.35,0.98 -0.681,1.439c2.063,1.418 4.473,2.512 6.988,2.746c0.635,0.059 1.276,0.063 1.91,-0.005c0.52,-0.056 1.09,-0.354 1.595,-0.295c0.802,0.095 1.62,1.041 1.168,1.838c-0.484,0.856 -2.038,0.681 -2.863,0.723c-1.212,0.06 -2.368,0.256 -3.496,0.742c-1.017,0.436 -0.629,1.838 0.475,1.653c1.257,-0.213 3.876,-0.856 4.62,0.551c0.384,0.727 0.044,1.089 -0.335,1.689c-0.333,0.527 -0.694,1.036 -0.243,1.629c0.315,0.415 0.845,0.55 1.266,0.198c1.737,-1.449 2.888,-3.524 3.363,-5.724c0.441,-2.043 -0.144,-3.997 0.531,-6.011c0.419,-1.248 1.302,-2.139 1.938,-3.252c0.558,-0.972 0.926,-1.913 1.966,-2.506c1.831,-1.043 4.06,-0.197 5.503,1.12c1.207,1.103 1.952,2.977 1.373,4.509c-0.395,1.046 -0.745,2.468 -0.583,3.596c0.277,1.92 0.825,3.786 0.004,5.662c-0.232,0.529 -0.558,1.026 -0.664,1.593c-0.052,0.276 -0.048,0.562 -0.013,0.84c0.092,0.722 0.422,1.434 0.999,1.875c0.578,0.441 1.418,0.564 2.048,0.2c0.96,-0.555 1.07,-1.859 1.42,-2.912c0.403,-1.215 1.808,-3.208 3.265,-3.257c1.358,-0.046 2.211,1.749 2.691,2.756c0.862,1.807 1.809,3.942 3.312,5.334c0.41,0.38 1.211,1.141 1.825,1.106c1.019,-0.059 0.606,-0.96 0.456,-1.715c-0.186,-0.933 -2.193,-3.446 -1.456,-4.273c0.645,-0.724 2.168,0.404 2.719,0.814c1.305,0.972 3.256,1.898 4.935,1.194c0.675,-0.284 0.952,-0.875 0.583,-1.648c-0.459,-0.963 -1.942,-1.104 -2.87,-1.407c-1.618,-0.529 -3.434,-1.119 -4.709,-2.303c-0.534,-0.494 -0.893,-1.018 -0.846,-1.781c0.181,-2.909 3.399,-1.477 4.951,-0.75c2.308,1.081 5.011,2.441 6.994,4.047c1.354,1.098 4.879,4.067 6.585,2.064c1.77,-2.079 -2.308,-2.458 -2.968,-3.723c-1.333,-2.553 0.466,-4.502 2.755,-5.508c1.063,-0.466 2.394,-0.936 3.565,-0.996c1.636,-0.082 1.971,1.535 2.767,2.684c0.657,0.95 1.596,1.868 2.668,2.355c0.853,0.387 2.534,1.168 2.081,-0.484c-0.372,-1.36 -1.939,-1.697 -2.904,-2.512c-0.398,-0.336 -1.051,-0.942 -0.84,-1.522c0.358,-0.985 3.058,-0.731 3.894,-0.733c2.034,-0.004 4.07,-0.018 6.099,-0.172c1.263,-0.096 1.054,-1.844 -0.137,-1.905c-2.656,-0.136 -5.331,-0.048 -7.99,-0.022c-2.465,0.022 -4.987,-0.091 -7.421,0.37c-0.951,0.181 -1.761,0.768 -2.613,0.139c-0.651,-0.48 -0.844,-1.185 -0.777,-1.963c0.128,-1.484 1.067,-2.91 1.824,-4.121c0.546,-0.874 -0.757,-1.764 -1.443,-1.038c-1.556,1.645 -2.245,3.697 -2.749,5.853c-0.435,1.858 -0.543,4.177 -1.964,5.61c-1.562,1.574 -4.37,0.89 -5.686,-0.642c-1.446,-1.687 -0.432,-3.911 0.772,-5.422c1.579,-1.983 2.276,-4.385 3.675,-6.499c1.091,-1.648 2.686,-2.934 4.726,-3.105c1.826,-0.151 2.67,1.266 3.928,2.246c1.651,1.287 3.484,2.344 5.41,3.164c2.903,1.234 7.3,2.73 10.401,1.643c0.806,-0.281 0.592,-1.294 -0.113,-1.517c-1.542,-0.489 -3.284,-0.355 -4.89,-0.684c-1.652,-0.34 -3.254,-0.864 -4.788,-1.565c-1.451,-0.664 -3.479,-1.588 -4.51,-2.824c-0.367,-0.44 -0.916,-1.36 -0.647,-1.96c0.413,-0.92 2.336,-0.509 3.11,-0.438c4.829,0.443 8.885,2.74 13.465,3.984c1.092,0.297 1.369,-1.227 0.561,-1.732c-1.803,-1.13 -3.775,-2.161 -5.805,-2.805c-1.339,-0.425 -3.752,-1.319 -3.06,-3.19c0.998,-2.698 6.069,0.855 7.451,1.537c1.02,0.505 1.807,-0.967 0.835,-1.554c-0.622,-0.375 -1.681,-0.727 -2.159,-1.284c-0.703,-0.821 0.067,-1.72 0.656,-2.314c0.865,-0.871 1.51,-1.669 1.817,-2.903c0.253,-1.014 -1.185,-1.354 -1.65,-0.535c-1.427,2.52 -4.19,3.413 -6.729,4.394c-2.486,0.962 -4.731,2.393 -7.212,3.381c-0.922,0.368 -1.893,0.416 -2.82,0.695c-0.97,0.294 -1.859,0.772 -2.866,1.012c-1.177,0.282 -3.666,1 -4.743,0.188c-1.68,-1.264 0.253,-4.421 1.532,-5.291c0.874,-0.595 1.696,-0.648 2.696,-0.477c1.245,0.212 2.457,0.249 3.725,0.066c1.556,-0.225 3.87,-0.633 4.85,-1.979c0.434,-0.596 0.173,-1.56 -0.682,-1.534c-1.265,0.041 -2.504,0.664 -3.692,1.045c-0.975,0.312 -1.962,-0.052 -1.389,-1.323c0.376,-0.833 1.194,-1.31 1.841,-1.937c1.277,-1.236 2.317,-2.186 4.134,-2.032c1.88,0.16 3.997,0.203 5.809,-0.377c1.908,-0.609 3.987,-1.744 4.953,-3.552c0.713,-1.331 -1.158,-1.088 -1.759,-0.774c-0.287,0.151 -1.185,0.813 -1.463,0.74c-0.596,-0.158 -0.289,-0.98 -0.149,-1.405c0.187,-0.569 0.397,-1.184 0.508,-1.86c0.19,-1.159 -1.414,-1.549 -1.771,-0.427c-0.519,1.63 -0.976,4.841 -3.092,5.202c-2.23,0.378 -1.02,-2.581 -0.558,-3.554c1.34,-2.818 3.855,-4.334 6.239,-6.181c0.712,-0.553 0.305,-1.995 -0.703,-1.601Z"
        style="fill:#0F528C;fill-rule:nonzero;" />
</svg>
